# MagicaVoxel @ Ephtracy

# group
o 

# material
mtllib dopel.mtl
usemtl palette

# normals
vn -1 0 0
vn 1 0 0
vn 0 0 1
vn 0 0 -1
vn 0 -1 0
vn 0 1 0

# texcoords
vt 0.0292969 0.5
vt 0.310547 0.5
vt 0.333984 0.5
vt 0.365234 0.5
vt 0.412109 0.5
vt 0.478516 0.5
vt 0.958984 0.5
vt 0.986328 0.5
vt 0.994141 0.5

# verts
v -1.3 1.4 0.2
v -1.3 1.4 -0.1
v -1.3 1.6 0.2
v -1.3 1.6 -0.1
v -1.2 1.3 0.2
v -1.2 1.3 -0.1
v -1.2 1.4 0.3
v -1.2 1.4 0.2
v -1.2 1.4 -0.1
v -1.2 1.4 -0.2
v -1.2 1.6 0.3
v -1.2 1.6 0.2
v -1.2 1.6 -0.1
v -1.2 1.6 -0.2
v -1.2 1.7 0.2
v -1.2 1.7 -0.1
v -0.7 0 0.4
v -0.7 0 -0.2
v -0.7 0.1 0.4
v -0.7 0.1 -0.2
v -0.7 0.3 0.4
v -0.7 0.3 0.1
v -0.7 0.5 0.1
v -0.7 0.5 -0.2
v -0.7 2.6 -0.3
v -0.7 2.6 -0.4
v -0.7 2.7 0.1
v -0.7 2.7 -0.1
v -0.7 2.7 -0.3
v -0.7 2.8 -5.96046e-08
v -0.7 2.8 -0.1
v -0.7 3 0.1
v -0.7 3 -5.96046e-08
v -0.7 3.1 0.2
v -0.7 3.1 0.1
v -0.7 3.2 0.4
v -0.7 3.2 0.2
v -0.7 3.3 0.4
v -0.7 3.3 -0.4
v -0.6 1 0.2
v -0.6 1 -5.96046e-08
v -0.6 1.1 0.3
v -0.6 1.1 0.2
v -0.6 1.1 -5.96046e-08
v -0.6 1.1 -0.1
v -0.6 1.2 -0.1
v -0.6 1.2 -0.2
v -0.6 2.1 0.3
v -0.6 2.1 0.2
v -0.6 2.1 -0.1
v -0.6 2.1 -0.2
v -0.6 2.2 0.2
v -0.6 2.2 -0.1
v -0.6 2.5 0.4
v -0.6 2.5 -0.3
v -0.6 2.6 0.5
v -0.6 2.6 0.4
v -0.6 2.6 -0.3
v -0.6 2.6 -0.4
v -0.6 2.6 -0.5
v -0.6 2.7 0.1
v -0.6 2.7 -0.1
v -0.6 2.7 -0.3
v -0.6 3 0.1
v -0.6 3.1 0.2
v -0.6 3.1 0.1
v -0.6 3.2 0.5
v -0.6 3.2 0.4
v -0.6 3.2 0.2
v -0.6 3.3 0.5
v -0.6 3.3 0.4
v -0.6 3.3 0.3
v -0.6 3.3 -0.4
v -0.6 3.4 0.3
v -0.6 3.4 -0.5
v -0.5 1 0.3
v -0.5 1 0.2
v -0.5 1 -5.96046e-08
v -0.5 1 -0.2
v -0.5 1.1 0.4
v -0.5 1.1 0.3
v -0.5 1.1 0.2
v -0.5 1.1 -5.96046e-08
v -0.5 1.1 -0.1
v -0.5 1.1 -0.2
v -0.5 1.1 -0.3
v -0.5 1.2 -0.1
v -0.5 1.2 -0.2
v -0.5 1.9 -0.2
v -0.5 1.9 -0.3
v -0.5 2.1 0.4
v -0.5 2.1 0.3
v -0.5 2.1 0.2
v -0.5 2.1 -0.1
v -0.5 2.1 -0.2
v -0.5 2.2 0.3
v -0.5 2.2 0.2
v -0.5 2.2 -0.1
v -0.5 2.2 -0.2
v -0.5 2.5 0.5
v -0.5 2.5 0.4
v -0.5 2.5 -0.3
v -0.5 2.5 -0.4
v -0.5 2.5 -0.5
v -0.5 2.6 0.6
v -0.5 2.6 0.5
v -0.5 2.6 0.4
v -0.5 2.6 -0.3
v -0.5 2.6 -0.4
v -0.5 2.6 -0.5
v -0.5 2.6 -0.6
v -0.5 3.2 0.6
v -0.5 3.2 0.5
v -0.5 3.3 0.6
v -0.5 3.3 0.5
v -0.5 3.3 0.3
v -0.5 3.3 -0.5
v -0.5 3.3 -0.6
v -0.5 3.4 0.5
v -0.5 3.4 0.3
v -0.5 3.4 -0.4
v -0.5 3.5 0.3
v -0.5 3.5 -0.4
v -0.4 0.9 0.2
v -0.4 0.9 -0.1
v -0.4 1 0.4
v -0.4 1 0.3
v -0.4 1 0.2
v -0.4 1 -0.1
v -0.4 1 -0.2
v -0.4 1 -0.3
v -0.4 1.1 0.4
v -0.4 1.1 0.3
v -0.4 1.1 -0.2
v -0.4 1.1 -0.3
v -0.4 1.9 -0.2
v -0.4 1.9 -0.3
v -0.4 2.1 0.4
v -0.4 2.1 0.3
v -0.4 2.1 -0.2
v -0.4 2.1 -0.3
v -0.4 2.2 0.4
v -0.4 2.2 0.3
v -0.4 2.4 0.4
v -0.4 2.4 -0.3
v -0.4 2.5 0.6
v -0.4 2.5 0.5
v -0.4 2.5 0.4
v -0.4 2.5 -0.3
v -0.4 2.6 0.6
v -0.4 2.6 0.5
v -0.4 3.2 0.7
v -0.4 3.2 0.6
v -0.4 3.3 0.7
v -0.4 3.3 0.6
v -0.4 3.3 0.5
v -0.4 3.3 -0.5
v -0.4 3.3 -0.6
v -0.4 3.4 0.6
v -0.4 3.4 0.5
v -0.4 3.4 0.4
v -0.4 3.4 0.3
v -0.4 3.4 -0.4
v -0.4 3.4 -0.5
v -0.4 3.4 -0.6
v -0.4 3.5 0.4
v -0.4 3.5 0.3
v -0.4 3.5 0.1
v -0.4 3.5 -0.3
v -0.4 3.5 -0.4
v -0.4 3.5 -0.5
v -0.4 3.6 0.1
v -0.4 3.6 -0.3
v -0.3 0.9 0.3
v -0.3 0.9 0.2
v -0.3 0.9 -0.1
v -0.3 0.9 -0.2
v -0.3 1 0.3
v -0.3 1 0.2
v -0.3 1 -0.1
v -0.3 1 -0.2
v -0.3 2.4 0.5
v -0.3 2.4 0.4
v -0.3 2.5 0.5
v -0.3 2.5 0.4
v -0.3 2.8 -0.6
v -0.3 2.8 -0.7
v -0.3 3.2 -0.6
v -0.3 3.2 -0.7
v -0.3 3.4 0.5
v -0.3 3.4 0.4
v -0.3 3.5 0.5
v -0.3 3.5 0.4
v -0.3 3.5 0.2
v -0.3 3.5 0.1
v -0.3 3.5 -0.3
v -0.3 3.5 -0.4
v -0.3 3.6 0.2
v -0.3 3.6 0.1
v -0.3 3.6 -0.3
v -0.3 3.6 -0.4
v -0.2 2.1 -0.2
v -0.2 2.1 -0.3
v -0.2 2.2 -0.2
v -0.2 2.2 -0.3
v -0.2 2.5 -0.5
v -0.2 2.5 -0.6
v -0.2 2.6 -0.5
v -0.2 2.6 -0.6
v -0.2 2.7 -0.6
v -0.2 2.7 -0.7
v -0.2 2.8 -0.6
v -0.2 2.8 -0.7
v -0.2 3.2 -0.6
v -0.2 3.2 -0.7
v -0.2 3.3 -0.6
v -0.2 3.3 -0.7
v -0.2 3.4 -0.5
v -0.2 3.4 -0.6
v -0.2 3.5 0.4
v -0.2 3.5 0.2
v -0.2 3.5 -0.4
v -0.2 3.5 -0.5
v -0.2 3.5 -0.6
v -0.2 3.6 0.4
v -0.2 3.6 0.2
v -0.2 3.6 -0.4
v -0.2 3.6 -0.5
v -0.0999999 2.6 -0.6
v -0.0999999 2.6 -0.7
v -0.0999999 2.7 -0.6
v -0.0999999 2.7 -0.7
v 0.3 0 0.4
v 0.3 0 -0.2
v 0.3 0.1 0.4
v 0.3 0.1 -0.2
v 0.3 0.3 0.4
v 0.3 0.3 0.1
v 0.3 0.5 0.1
v 0.3 0.5 -0.2
v 0.8 1.4 0.2
v 0.8 1.4 -0.1
v 0.8 1.6 0.2
v 0.8 1.6 -0.1
v 0.9 1.3 0.2
v 0.9 1.3 -0.1
v 0.9 1.4 0.3
v 0.9 1.4 0.2
v 0.9 1.4 -0.1
v 0.9 1.4 -0.2
v 0.9 1.6 0.3
v 0.9 1.6 0.2
v 0.9 1.6 -0.1
v 0.9 1.6 -0.2
v 0.9 1.7 0.2
v 0.9 1.7 -0.1
v -0.9 1.3 0.2
v -0.9 1.3 -0.1
v -0.9 1.4 0.3
v -0.9 1.4 0.2
v -0.9 1.4 -0.1
v -0.9 1.4 -0.2
v -0.9 1.6 0.3
v -0.9 1.6 0.2
v -0.9 1.6 -0.1
v -0.9 1.6 -0.2
v -0.9 1.7 0.2
v -0.9 1.7 -0.1
v -0.8 1.4 0.2
v -0.8 1.4 -0.1
v -0.8 1.6 0.2
v -0.8 1.6 -0.1
v -0.3 0 0.4
v -0.3 0 -0.2
v -0.3 0.1 0.4
v -0.3 0.1 -0.2
v -0.3 0.3 0.4
v -0.3 0.3 0.1
v -0.3 0.5 0.1
v -0.3 0.5 -0.2
v 0.1 2.6 -0.6
v 0.1 2.6 -0.7
v 0.1 2.7 -0.6
v 0.1 2.7 -0.7
v 0.2 2.1 -0.2
v 0.2 2.1 -0.3
v 0.2 2.2 -0.2
v 0.2 2.2 -0.3
v 0.2 2.5 -0.5
v 0.2 2.5 -0.6
v 0.2 2.6 -0.5
v 0.2 2.6 -0.6
v 0.2 2.7 -0.6
v 0.2 2.7 -0.7
v 0.2 2.8 -0.6
v 0.2 2.8 -0.7
v 0.2 3.2 -0.6
v 0.2 3.2 -0.7
v 0.2 3.3 -0.6
v 0.2 3.3 -0.7
v 0.2 3.4 -0.5
v 0.2 3.4 -0.6
v 0.2 3.5 0.4
v 0.2 3.5 0.2
v 0.2 3.5 -0.4
v 0.2 3.5 -0.5
v 0.2 3.5 -0.6
v 0.2 3.6 0.4
v 0.2 3.6 0.2
v 0.2 3.6 -0.4
v 0.2 3.6 -0.5
v 0.3 0.9 0.3
v 0.3 0.9 0.2
v 0.3 0.9 -0.1
v 0.3 0.9 -0.2
v 0.3 1 0.3
v 0.3 1 0.2
v 0.3 1 -0.1
v 0.3 1 -0.2
v 0.3 2.4 0.5
v 0.3 2.4 0.4
v 0.3 2.5 0.5
v 0.3 2.5 0.4
v 0.3 2.8 -0.6
v 0.3 2.8 -0.7
v 0.3 3.2 -0.6
v 0.3 3.2 -0.7
v 0.3 3.4 0.5
v 0.3 3.4 0.4
v 0.3 3.5 0.5
v 0.3 3.5 0.4
v 0.3 3.5 0.2
v 0.3 3.5 0.1
v 0.3 3.5 -0.3
v 0.3 3.5 -0.4
v 0.3 3.6 0.2
v 0.3 3.6 0.1
v 0.3 3.6 -0.3
v 0.3 3.6 -0.4
v 0.4 0.9 0.2
v 0.4 0.9 -0.1
v 0.4 1 0.4
v 0.4 1 0.3
v 0.4 1 0.2
v 0.4 1 -0.1
v 0.4 1 -0.2
v 0.4 1 -0.3
v 0.4 1.1 0.4
v 0.4 1.1 0.3
v 0.4 1.1 -0.2
v 0.4 1.1 -0.3
v 0.4 1.9 -0.2
v 0.4 1.9 -0.3
v 0.4 2.1 0.4
v 0.4 2.1 0.3
v 0.4 2.1 -0.2
v 0.4 2.1 -0.3
v 0.4 2.2 0.4
v 0.4 2.2 0.3
v 0.4 2.4 0.4
v 0.4 2.4 -0.3
v 0.4 2.5 0.6
v 0.4 2.5 0.5
v 0.4 2.5 0.4
v 0.4 2.5 -0.3
v 0.4 2.6 0.6
v 0.4 2.6 0.5
v 0.4 3.2 0.7
v 0.4 3.2 0.6
v 0.4 3.3 0.7
v 0.4 3.3 0.6
v 0.4 3.3 0.5
v 0.4 3.3 -0.5
v 0.4 3.3 -0.6
v 0.4 3.4 0.6
v 0.4 3.4 0.5
v 0.4 3.4 0.4
v 0.4 3.4 0.3
v 0.4 3.4 -0.4
v 0.4 3.4 -0.5
v 0.4 3.4 -0.6
v 0.4 3.5 0.4
v 0.4 3.5 0.3
v 0.4 3.5 0.1
v 0.4 3.5 -0.3
v 0.4 3.5 -0.4
v 0.4 3.5 -0.5
v 0.4 3.6 0.1
v 0.4 3.6 -0.3
v 0.5 1 0.3
v 0.5 1 0.2
v 0.5 1 -5.96046e-08
v 0.5 1 -0.2
v 0.5 1.1 0.4
v 0.5 1.1 0.3
v 0.5 1.1 0.2
v 0.5 1.1 -5.96046e-08
v 0.5 1.1 -0.1
v 0.5 1.1 -0.2
v 0.5 1.1 -0.3
v 0.5 1.2 -0.1
v 0.5 1.2 -0.2
v 0.5 1.9 -0.2
v 0.5 1.9 -0.3
v 0.5 2.1 0.4
v 0.5 2.1 0.3
v 0.5 2.1 0.2
v 0.5 2.1 -0.1
v 0.5 2.1 -0.2
v 0.5 2.2 0.3
v 0.5 2.2 0.2
v 0.5 2.2 -0.1
v 0.5 2.2 -0.2
v 0.5 2.5 0.5
v 0.5 2.5 0.4
v 0.5 2.5 -0.3
v 0.5 2.5 -0.4
v 0.5 2.5 -0.5
v 0.5 2.6 0.6
v 0.5 2.6 0.5
v 0.5 2.6 0.4
v 0.5 2.6 -0.3
v 0.5 2.6 -0.4
v 0.5 2.6 -0.5
v 0.5 2.6 -0.6
v 0.5 3.2 0.6
v 0.5 3.2 0.5
v 0.5 3.3 0.6
v 0.5 3.3 0.5
v 0.5 3.3 0.3
v 0.5 3.3 -0.5
v 0.5 3.3 -0.6
v 0.5 3.4 0.5
v 0.5 3.4 0.3
v 0.5 3.4 -0.4
v 0.5 3.5 0.3
v 0.5 3.5 -0.4
v 0.6 1 0.2
v 0.6 1 -5.96046e-08
v 0.6 1.1 0.3
v 0.6 1.1 0.2
v 0.6 1.1 -5.96046e-08
v 0.6 1.1 -0.1
v 0.6 1.2 -0.1
v 0.6 1.2 -0.2
v 0.6 2.1 0.3
v 0.6 2.1 0.2
v 0.6 2.1 -0.1
v 0.6 2.1 -0.2
v 0.6 2.2 0.2
v 0.6 2.2 -0.1
v 0.6 2.5 0.4
v 0.6 2.5 -0.3
v 0.6 2.6 0.5
v 0.6 2.6 0.4
v 0.6 2.6 -0.3
v 0.6 2.6 -0.4
v 0.6 2.6 -0.5
v 0.6 2.7 0.1
v 0.6 2.7 -0.1
v 0.6 2.7 -0.3
v 0.6 3 0.1
v 0.6 3.1 0.2
v 0.6 3.1 0.1
v 0.6 3.2 0.5
v 0.6 3.2 0.4
v 0.6 3.2 0.2
v 0.6 3.3 0.5
v 0.6 3.3 0.4
v 0.6 3.3 0.3
v 0.6 3.3 -0.4
v 0.6 3.4 0.3
v 0.6 3.4 -0.5
v 0.7 0 0.4
v 0.7 0 -0.2
v 0.7 0.1 0.4
v 0.7 0.1 -0.2
v 0.7 0.3 0.4
v 0.7 0.3 0.1
v 0.7 0.5 0.1
v 0.7 0.5 -0.2
v 0.7 2.6 -0.3
v 0.7 2.6 -0.4
v 0.7 2.7 0.1
v 0.7 2.7 -0.1
v 0.7 2.7 -0.3
v 0.7 2.8 -5.96046e-08
v 0.7 2.8 -0.1
v 0.7 3 0.1
v 0.7 3 -5.96046e-08
v 0.7 3.1 0.2
v 0.7 3.1 0.1
v 0.7 3.2 0.4
v 0.7 3.2 0.2
v 0.7 3.3 0.4
v 0.7 3.3 -0.4
v 1.2 1.3 0.2
v 1.2 1.3 -0.1
v 1.2 1.4 0.3
v 1.2 1.4 0.2
v 1.2 1.4 -0.1
v 1.2 1.4 -0.2
v 1.2 1.6 0.3
v 1.2 1.6 0.2
v 1.2 1.6 -0.1
v 1.2 1.6 -0.2
v 1.2 1.7 0.2
v 1.2 1.7 -0.1
v 1.3 1.4 0.2
v 1.3 1.4 -0.1
v 1.3 1.6 0.2
v 1.3 1.6 -0.1
v -0.4 3.2 0.7
v -0.4 3.3 0.7
v 0.4 3.2 0.7
v 0.4 3.3 0.7
v -0.5 2.6 0.6
v -0.5 3.2 0.6
v -0.5 3.3 0.6
v -0.4 2.5 0.6
v -0.4 2.6 0.6
v -0.4 2.8 0.6
v -0.4 3.1 0.6
v -0.4 3.2 0.6
v -0.4 3.3 0.6
v -0.4 3.4 0.6
v -0.3 2.8 0.6
v -0.3 3 0.6
v -0.2 2.8 0.6
v -0.2 3 0.6
v -0.2 3.1 0.6
v 0.2 2.8 0.6
v 0.2 3 0.6
v 0.2 3.1 0.6
v 0.3 2.8 0.6
v 0.3 3 0.6
v 0.4 2.5 0.6
v 0.4 2.6 0.6
v 0.4 2.8 0.6
v 0.4 3.1 0.6
v 0.4 3.2 0.6
v 0.4 3.3 0.6
v 0.4 3.4 0.6
v 0.5 2.6 0.6
v 0.5 3.2 0.6
v 0.5 3.3 0.6
v -0.6 2.6 0.5
v -0.6 3.2 0.5
v -0.6 3.3 0.5
v -0.5 2.5 0.5
v -0.5 2.6 0.5
v -0.5 3.2 0.5
v -0.5 3.3 0.5
v -0.5 3.4 0.5
v -0.4 2.5 0.5
v -0.4 2.6 0.5
v -0.4 3.3 0.5
v -0.4 3.4 0.5
v -0.3 2.4 0.5
v -0.3 2.5 0.5
v -0.3 3.4 0.5
v -0.3 3.5 0.5
v 0.3 2.4 0.5
v 0.3 2.5 0.5
v 0.3 3.4 0.5
v 0.3 3.5 0.5
v 0.4 2.5 0.5
v 0.4 2.6 0.5
v 0.4 3.3 0.5
v 0.4 3.4 0.5
v 0.5 2.5 0.5
v 0.5 2.6 0.5
v 0.5 3.2 0.5
v 0.5 3.3 0.5
v 0.5 3.4 0.5
v 0.6 2.6 0.5
v 0.6 3.2 0.5
v 0.6 3.3 0.5
v -0.7 0 0.4
v -0.7 0.1 0.4
v -0.7 0.3 0.4
v -0.7 3.2 0.4
v -0.7 3.3 0.4
v -0.6 2.5 0.4
v -0.6 2.6 0.4
v -0.6 3.2 0.4
v -0.6 3.3 0.4
v -0.5 1.1 0.4
v -0.5 2.1 0.4
v -0.5 2.5 0.4
v -0.5 2.6 0.4
v -0.4 1 0.4
v -0.4 1.1 0.4
v -0.4 2.1 0.4
v -0.4 2.2 0.4
v -0.4 2.4 0.4
v -0.4 2.5 0.4
v -0.4 3.4 0.4
v -0.4 3.5 0.4
v -0.3 0 0.4
v -0.3 0.1 0.4
v -0.3 0.3 0.4
v -0.3 2.4 0.4
v -0.3 2.5 0.4
v -0.3 3.4 0.4
v -0.3 3.5 0.4
v -0.2 1.1 0.4
v -0.2 1.2 0.4
v -0.2 1.3 0.4
v -0.2 1.4 0.4
v -0.2 1.5 0.4
v -0.2 1.6 0.4
v -0.2 1.7 0.4
v -0.2 1.8 0.4
v -0.2 1.9 0.4
v -0.2 2 0.4
v -0.2 3.5 0.4
v -0.2 3.6 0.4
v -0.0999999 1 0.4
v -0.0999999 1.1 0.4
v -0.0999999 1.2 0.4
v -0.0999999 1.3 0.4
v -0.0999999 1.4 0.4
v -0.0999999 1.5 0.4
v -0.0999999 1.6 0.4
v -0.0999999 1.7 0.4
v -0.0999999 1.8 0.4
v -0.0999999 1.9 0.4
v -0.0999999 2 0.4
v -0.0999999 2.2 0.4
v 0.1 1 0.4
v 0.1 1.1 0.4
v 0.1 1.2 0.4
v 0.1 1.3 0.4
v 0.1 1.4 0.4
v 0.1 1.5 0.4
v 0.1 1.6 0.4
v 0.1 1.7 0.4
v 0.1 1.8 0.4
v 0.1 1.9 0.4
v 0.1 2 0.4
v 0.1 2.2 0.4
v 0.2 1.1 0.4
v 0.2 1.2 0.4
v 0.2 1.3 0.4
v 0.2 1.4 0.4
v 0.2 1.5 0.4
v 0.2 1.6 0.4
v 0.2 1.7 0.4
v 0.2 1.8 0.4
v 0.2 1.9 0.4
v 0.2 2 0.4
v 0.2 3.5 0.4
v 0.2 3.6 0.4
v 0.3 0 0.4
v 0.3 0.1 0.4
v 0.3 0.3 0.4
v 0.3 2.4 0.4
v 0.3 2.5 0.4
v 0.3 3.4 0.4
v 0.3 3.5 0.4
v 0.4 1 0.4
v 0.4 1.1 0.4
v 0.4 2.1 0.4
v 0.4 2.2 0.4
v 0.4 2.4 0.4
v 0.4 2.5 0.4
v 0.4 3.4 0.4
v 0.4 3.5 0.4
v 0.5 1.1 0.4
v 0.5 2.1 0.4
v 0.5 2.5 0.4
v 0.5 2.6 0.4
v 0.6 2.5 0.4
v 0.6 2.6 0.4
v 0.6 3.2 0.4
v 0.6 3.3 0.4
v 0.7 0 0.4
v 0.7 0.1 0.4
v 0.7 0.3 0.4
v 0.7 3.2 0.4
v 0.7 3.3 0.4
v -1.2 1.4 0.3
v -1.2 1.6 0.3
v -0.9 1.4 0.3
v -0.9 1.6 0.3
v -0.6 1.1 0.3
v -0.6 2.1 0.3
v -0.6 3.3 0.3
v -0.6 3.4 0.3
v -0.5 1 0.3
v -0.5 1.1 0.3
v -0.5 2.1 0.3
v -0.5 2.2 0.3
v -0.5 3.3 0.3
v -0.5 3.4 0.3
v -0.5 3.5 0.3
v -0.4 1 0.3
v -0.4 1.1 0.3
v -0.4 2.1 0.3
v -0.4 2.2 0.3
v -0.4 3.4 0.3
v -0.4 3.5 0.3
v -0.3 0.9 0.3
v -0.3 1 0.3
v -0.0999999 0.9 0.3
v -0.0999999 1 0.3
v 0.1 0.9 0.3
v 0.1 1 0.3
v 0.3 0.9 0.3
v 0.3 1 0.3
v 0.4 1 0.3
v 0.4 1.1 0.3
v 0.4 2.1 0.3
v 0.4 2.2 0.3
v 0.4 3.4 0.3
v 0.4 3.5 0.3
v 0.5 1 0.3
v 0.5 1.1 0.3
v 0.5 2.1 0.3
v 0.5 2.2 0.3
v 0.5 3.3 0.3
v 0.5 3.4 0.3
v 0.5 3.5 0.3
v 0.6 1.1 0.3
v 0.6 2.1 0.3
v 0.6 3.3 0.3
v 0.6 3.4 0.3
v 0.9 1.4 0.3
v 0.9 1.6 0.3
v 1.2 1.4 0.3
v 1.2 1.6 0.3
v -1.3 1.4 0.2
v -1.3 1.6 0.2
v -1.2 1.3 0.2
v -1.2 1.4 0.2
v -1.2 1.6 0.2
v -1.2 1.7 0.2
v -0.9 1.3 0.2
v -0.9 1.4 0.2
v -0.9 1.6 0.2
v -0.9 1.7 0.2
v -0.8 1.4 0.2
v -0.8 1.6 0.2
v -0.7 3.1 0.2
v -0.7 3.2 0.2
v -0.6 1 0.2
v -0.6 1.1 0.2
v -0.6 2.1 0.2
v -0.6 2.2 0.2
v -0.6 3.1 0.2
v -0.6 3.2 0.2
v -0.5 1 0.2
v -0.5 1.1 0.2
v -0.5 2.1 0.2
v -0.5 2.2 0.2
v -0.4 0.9 0.2
v -0.4 1 0.2
v -0.3 0.9 0.2
v -0.3 1 0.2
v -0.3 3.5 0.2
v -0.3 3.6 0.2
v -0.2 3.5 0.2
v -0.2 3.6 0.2
v 0.2 3.5 0.2
v 0.2 3.6 0.2
v 0.3 0.9 0.2
v 0.3 1 0.2
v 0.3 3.5 0.2
v 0.3 3.6 0.2
v 0.4 0.9 0.2
v 0.4 1 0.2
v 0.5 1 0.2
v 0.5 1.1 0.2
v 0.5 2.1 0.2
v 0.5 2.2 0.2
v 0.6 1 0.2
v 0.6 1.1 0.2
v 0.6 2.1 0.2
v 0.6 2.2 0.2
v 0.6 3.1 0.2
v 0.6 3.2 0.2
v 0.7 3.1 0.2
v 0.7 3.2 0.2
v 0.8 1.4 0.2
v 0.8 1.6 0.2
v 0.9 1.3 0.2
v 0.9 1.4 0.2
v 0.9 1.6 0.2
v 0.9 1.7 0.2
v 1.2 1.3 0.2
v 1.2 1.4 0.2
v 1.2 1.6 0.2
v 1.2 1.7 0.2
v 1.3 1.4 0.2
v 1.3 1.6 0.2
v -0.7 0.3 0.1
v -0.7 0.5 0.1
v -0.7 2.7 0.1
v -0.7 3 0.1
v -0.7 3.1 0.1
v -0.6 2.7 0.1
v -0.6 3 0.1
v -0.6 3.1 0.1
v -0.4 3.5 0.1
v -0.4 3.6 0.1
v -0.3 0.3 0.1
v -0.3 0.5 0.1
v -0.3 3.5 0.1
v -0.3 3.6 0.1
v 0.3 0.3 0.1
v 0.3 0.5 0.1
v 0.3 3.5 0.1
v 0.3 3.6 0.1
v 0.4 3.5 0.1
v 0.4 3.6 0.1
v 0.6 2.7 0.1
v 0.6 3 0.1
v 0.6 3.1 0.1
v 0.7 0.3 0.1
v 0.7 0.5 0.1
v 0.7 2.7 0.1
v 0.7 3 0.1
v 0.7 3.1 0.1
v -0.7 2.6 -0.3
v -0.7 2.7 -0.3
v -0.6 2.6 -0.3
v -0.6 2.7 -0.3
v 0.6 2.6 -0.3
v 0.6 2.7 -0.3
v 0.7 2.6 -0.3
v 0.7 2.7 -0.3
v -0.6 1 -5.96046e-08
v -0.6 1.1 -5.96046e-08
v -0.5 1 -5.96046e-08
v -0.5 1.1 -5.96046e-08
v 0.5 1 -5.96046e-08
v 0.5 1.1 -5.96046e-08
v 0.6 1 -5.96046e-08
v 0.6 1.1 -5.96046e-08
v -1.3 1.4 -0.1
v -1.3 1.6 -0.1
v -1.2 1.3 -0.1
v -1.2 1.4 -0.1
v -1.2 1.6 -0.1
v -1.2 1.7 -0.1
v -0.9 1.3 -0.1
v -0.9 1.4 -0.1
v -0.9 1.6 -0.1
v -0.9 1.7 -0.1
v -0.8 1.4 -0.1
v -0.8 1.6 -0.1
v -0.6 1.1 -0.1
v -0.6 1.2 -0.1
v -0.6 2.1 -0.1
v -0.6 2.2 -0.1
v -0.5 1.1 -0.1
v -0.5 1.2 -0.1
v -0.5 2.1 -0.1
v -0.5 2.2 -0.1
v -0.4 0.9 -0.1
v -0.4 1 -0.1
v -0.3 0.9 -0.1
v -0.3 1 -0.1
v 0.3 0.9 -0.1
v 0.3 1 -0.1
v 0.4 0.9 -0.1
v 0.4 1 -0.1
v 0.5 1.1 -0.1
v 0.5 1.2 -0.1
v 0.5 2.1 -0.1
v 0.5 2.2 -0.1
v 0.6 1.1 -0.1
v 0.6 1.2 -0.1
v 0.6 2.1 -0.1
v 0.6 2.2 -0.1
v 0.8 1.4 -0.1
v 0.8 1.6 -0.1
v 0.9 1.3 -0.1
v 0.9 1.4 -0.1
v 0.9 1.6 -0.1
v 0.9 1.7 -0.1
v 1.2 1.3 -0.1
v 1.2 1.4 -0.1
v 1.2 1.6 -0.1
v 1.2 1.7 -0.1
v 1.3 1.4 -0.1
v 1.3 1.6 -0.1
v -1.2 1.4 -0.2
v -1.2 1.6 -0.2
v -0.9 1.4 -0.2
v -0.9 1.6 -0.2
v -0.7 0 -0.2
v -0.7 0.1 -0.2
v -0.7 0.5 -0.2
v -0.6 1.2 -0.2
v -0.6 2.1 -0.2
v -0.5 1 -0.2
v -0.5 1.1 -0.2
v -0.5 1.2 -0.2
v -0.5 1.9 -0.2
v -0.5 2.1 -0.2
v -0.5 2.2 -0.2
v -0.4 1 -0.2
v -0.4 1.1 -0.2
v -0.4 1.9 -0.2
v -0.4 2.1 -0.2
v -0.3 0 -0.2
v -0.3 0.1 -0.2
v -0.3 0.5 -0.2
v -0.3 0.9 -0.2
v -0.3 1 -0.2
v -0.2 2.1 -0.2
v -0.2 2.2 -0.2
v 0.2 2.1 -0.2
v 0.2 2.2 -0.2
v 0.3 0 -0.2
v 0.3 0.1 -0.2
v 0.3 0.5 -0.2
v 0.3 0.9 -0.2
v 0.3 1 -0.2
v 0.4 1 -0.2
v 0.4 1.1 -0.2
v 0.4 1.9 -0.2
v 0.4 2.1 -0.2
v 0.5 1 -0.2
v 0.5 1.1 -0.2
v 0.5 1.2 -0.2
v 0.5 1.9 -0.2
v 0.5 2.1 -0.2
v 0.5 2.2 -0.2
v 0.6 1.2 -0.2
v 0.6 2.1 -0.2
v 0.7 0 -0.2
v 0.7 0.1 -0.2
v 0.7 0.5 -0.2
v 0.9 1.4 -0.2
v 0.9 1.6 -0.2
v 1.2 1.4 -0.2
v 1.2 1.6 -0.2
v -0.6 2.5 -0.3
v -0.6 2.6 -0.3
v -0.5 1.1 -0.3
v -0.5 1.9 -0.3
v -0.5 2.5 -0.3
v -0.5 2.6 -0.3
v -0.4 1 -0.3
v -0.4 1.1 -0.3
v -0.4 1.9 -0.3
v -0.4 2.1 -0.3
v -0.4 2.4 -0.3
v -0.4 2.5 -0.3
v -0.4 3.5 -0.3
v -0.4 3.6 -0.3
v -0.3 3.5 -0.3
v -0.3 3.6 -0.3
v -0.2 2.1 -0.3
v -0.2 2.2 -0.3
v 0.2 2.1 -0.3
v 0.2 2.2 -0.3
v 0.3 3.5 -0.3
v 0.3 3.6 -0.3
v 0.4 1 -0.3
v 0.4 1.1 -0.3
v 0.4 1.9 -0.3
v 0.4 2.1 -0.3
v 0.4 2.4 -0.3
v 0.4 2.5 -0.3
v 0.4 3.5 -0.3
v 0.4 3.6 -0.3
v 0.5 1.1 -0.3
v 0.5 1.9 -0.3
v 0.5 2.5 -0.3
v 0.5 2.6 -0.3
v 0.6 2.5 -0.3
v 0.6 2.6 -0.3
v -0.7 2.6 -0.4
v -0.7 3.3 -0.4
v -0.6 2.6 -0.4
v -0.6 3.3 -0.4
v -0.5 3.4 -0.4
v -0.5 3.5 -0.4
v -0.4 3.4 -0.4
v -0.4 3.5 -0.4
v -0.3 3.5 -0.4
v -0.3 3.6 -0.4
v -0.2 3.5 -0.4
v -0.2 3.6 -0.4
v 0.2 3.5 -0.4
v 0.2 3.6 -0.4
v 0.3 3.5 -0.4
v 0.3 3.6 -0.4
v 0.4 3.4 -0.4
v 0.4 3.5 -0.4
v 0.5 3.4 -0.4
v 0.5 3.5 -0.4
v 0.6 2.6 -0.4
v 0.6 3.3 -0.4
v 0.7 2.6 -0.4
v 0.7 3.3 -0.4
v -0.6 2.6 -0.5
v -0.6 3.4 -0.5
v -0.5 2.5 -0.5
v -0.5 2.6 -0.5
v -0.5 3.3 -0.5
v -0.4 3.3 -0.5
v -0.4 3.4 -0.5
v -0.4 3.5 -0.5
v -0.2 2.5 -0.5
v -0.2 2.6 -0.5
v -0.2 3.4 -0.5
v -0.2 3.5 -0.5
v -0.2 3.6 -0.5
v 0.2 2.5 -0.5
v 0.2 2.6 -0.5
v 0.2 3.4 -0.5
v 0.2 3.5 -0.5
v 0.2 3.6 -0.5
v 0.4 3.3 -0.5
v 0.4 3.4 -0.5
v 0.4 3.5 -0.5
v 0.5 2.5 -0.5
v 0.5 2.6 -0.5
v 0.5 3.3 -0.5
v 0.6 2.6 -0.5
v 0.6 3.4 -0.5
v -0.5 2.6 -0.6
v -0.5 3.3 -0.6
v -0.4 3.3 -0.6
v -0.4 3.4 -0.6
v -0.3 2.8 -0.6
v -0.3 3.2 -0.6
v -0.2 2.5 -0.6
v -0.2 2.6 -0.6
v -0.2 2.7 -0.6
v -0.2 2.8 -0.6
v -0.2 3.2 -0.6
v -0.2 3.3 -0.6
v -0.2 3.4 -0.6
v -0.2 3.5 -0.6
v -0.0999999 2.6 -0.6
v -0.0999999 2.7 -0.6
v 0.1 2.6 -0.6
v 0.1 2.7 -0.6
v 0.2 2.5 -0.6
v 0.2 2.6 -0.6
v 0.2 2.7 -0.6
v 0.2 2.8 -0.6
v 0.2 3.2 -0.6
v 0.2 3.3 -0.6
v 0.2 3.4 -0.6
v 0.2 3.5 -0.6
v 0.3 2.8 -0.6
v 0.3 3.2 -0.6
v 0.4 3.3 -0.6
v 0.4 3.4 -0.6
v 0.5 2.6 -0.6
v 0.5 3.3 -0.6
v -0.3 2.8 -0.7
v -0.3 3.2 -0.7
v -0.2 2.7 -0.7
v -0.2 2.8 -0.7
v -0.2 3.2 -0.7
v -0.2 3.3 -0.7
v -0.0999999 2.6 -0.7
v -0.0999999 2.7 -0.7
v 0.1 2.6 -0.7
v 0.1 2.7 -0.7
v 0.2 2.7 -0.7
v 0.2 2.8 -0.7
v 0.2 3.2 -0.7
v 0.2 3.3 -0.7
v 0.3 2.8 -0.7
v 0.3 3.2 -0.7
v -0.7 0 0.4
v -0.3 0 0.4
v 0.3 0 0.4
v 0.7 0 0.4
v -0.7 0 -0.2
v -0.3 0 -0.2
v 0.3 0 -0.2
v 0.7 0 -0.2
v -0.3 0.9 0.3
v -0.0999999 0.9 0.3
v 0.1 0.9 0.3
v 0.3 0.9 0.3
v -0.4 0.9 0.2
v -0.3 0.9 0.2
v -0.0999999 0.9 0.2
v 0.1 0.9 0.2
v 0.3 0.9 0.2
v 0.4 0.9 0.2
v -0.4 0.9 -0.1
v -0.3 0.9 -0.1
v 0.3 0.9 -0.1
v 0.4 0.9 -0.1
v -0.3 0.9 -0.2
v 0.3 0.9 -0.2
v -0.4 1 0.4
v -0.0999999 1 0.4
v 0.1 1 0.4
v 0.4 1 0.4
v -0.5 1 0.3
v -0.4 1 0.3
v -0.3 1 0.3
v -0.0999999 1 0.3
v 0.1 1 0.3
v 0.3 1 0.3
v 0.4 1 0.3
v 0.5 1 0.3
v -0.6 1 0.2
v -0.5 1 0.2
v -0.4 1 0.2
v -0.3 1 0.2
v 0.3 1 0.2
v 0.4 1 0.2
v 0.5 1 0.2
v 0.6 1 0.2
v -0.6 1 -5.96046e-08
v -0.5 1 -5.96046e-08
v 0.5 1 -5.96046e-08
v 0.6 1 -5.96046e-08
v -0.4 1 -0.1
v -0.3 1 -0.1
v 0.3 1 -0.1
v 0.4 1 -0.1
v -0.5 1 -0.2
v -0.4 1 -0.2
v -0.3 1 -0.2
v 0.3 1 -0.2
v 0.4 1 -0.2
v 0.5 1 -0.2
v -0.4 1 -0.3
v 0.4 1 -0.3
v -0.5 1.1 0.4
v -0.4 1.1 0.4
v 0.4 1.1 0.4
v 0.5 1.1 0.4
v -0.6 1.1 0.3
v -0.5 1.1 0.3
v -0.4 1.1 0.3
v 0.4 1.1 0.3
v 0.5 1.1 0.3
v 0.6 1.1 0.3
v -0.6 1.1 0.2
v -0.5 1.1 0.2
v 0.5 1.1 0.2
v 0.6 1.1 0.2
v -0.6 1.1 -5.96046e-08
v -0.5 1.1 -5.96046e-08
v 0.5 1.1 -5.96046e-08
v 0.6 1.1 -5.96046e-08
v -0.6 1.1 -0.1
v -0.5 1.1 -0.1
v 0.5 1.1 -0.1
v 0.6 1.1 -0.1
v -0.5 1.1 -0.2
v -0.4 1.1 -0.2
v 0.4 1.1 -0.2
v 0.5 1.1 -0.2
v -0.5 1.1 -0.3
v -0.4 1.1 -0.3
v 0.4 1.1 -0.3
v 0.5 1.1 -0.3
v -0.6 1.2 -0.1
v -0.5 1.2 -0.1
v 0.5 1.2 -0.1
v 0.6 1.2 -0.1
v -0.6 1.2 -0.2
v -0.5 1.2 -0.2
v 0.5 1.2 -0.2
v 0.6 1.2 -0.2
v -1.2 1.3 0.2
v -0.9 1.3 0.2
v 0.9 1.3 0.2
v 1.2 1.3 0.2
v -1.2 1.3 -0.1
v -0.9 1.3 -0.1
v 0.9 1.3 -0.1
v 1.2 1.3 -0.1
v -1.2 1.4 0.3
v -0.9 1.4 0.3
v 0.9 1.4 0.3
v 1.2 1.4 0.3
v -1.3 1.4 0.2
v -1.2 1.4 0.2
v -0.9 1.4 0.2
v -0.8 1.4 0.2
v 0.8 1.4 0.2
v 0.9 1.4 0.2
v 1.2 1.4 0.2
v 1.3 1.4 0.2
v -1.3 1.4 -0.1
v -1.2 1.4 -0.1
v -0.9 1.4 -0.1
v -0.8 1.4 -0.1
v 0.8 1.4 -0.1
v 0.9 1.4 -0.1
v 1.2 1.4 -0.1
v 1.3 1.4 -0.1
v -1.2 1.4 -0.2
v -0.9 1.4 -0.2
v 0.9 1.4 -0.2
v 1.2 1.4 -0.2
v -0.3 2.4 0.5
v 0.3 2.4 0.5
v -0.4 2.4 0.4
v -0.3 2.4 0.4
v 0.3 2.4 0.4
v 0.4 2.4 0.4
v -0.4 2.4 -0.3
v 0.4 2.4 -0.3
v -0.4 2.5 0.6
v 0.4 2.5 0.6
v -0.5 2.5 0.5
v -0.4 2.5 0.5
v -0.3 2.5 0.5
v 0.3 2.5 0.5
v 0.4 2.5 0.5
v 0.5 2.5 0.5
v -0.6 2.5 0.4
v -0.5 2.5 0.4
v -0.4 2.5 0.4
v -0.3 2.5 0.4
v 0.3 2.5 0.4
v 0.4 2.5 0.4
v 0.5 2.5 0.4
v 0.6 2.5 0.4
v -0.6 2.5 -0.3
v -0.5 2.5 -0.3
v -0.4 2.5 -0.3
v 0.4 2.5 -0.3
v 0.5 2.5 -0.3
v 0.6 2.5 -0.3
v -0.5 2.5 -0.4
v 0.5 2.5 -0.4
v -0.5 2.5 -0.5
v -0.2 2.5 -0.5
v 0.2 2.5 -0.5
v 0.5 2.5 -0.5
v -0.2 2.5 -0.6
v 0.2 2.5 -0.6
v -0.5 2.6 0.6
v -0.4 2.6 0.6
v 0.4 2.6 0.6
v 0.5 2.6 0.6
v -0.6 2.6 0.5
v -0.5 2.6 0.5
v -0.4 2.6 0.5
v 0.4 2.6 0.5
v 0.5 2.6 0.5
v 0.6 2.6 0.5
v -0.6 2.6 0.4
v -0.5 2.6 0.4
v 0.5 2.6 0.4
v 0.6 2.6 0.4
v -0.7 2.6 -0.3
v -0.6 2.6 -0.3
v -0.5 2.6 -0.3
v 0.5 2.6 -0.3
v 0.6 2.6 -0.3
v 0.7 2.6 -0.3
v -0.7 2.6 -0.4
v -0.6 2.6 -0.4
v -0.5 2.6 -0.4
v 0.5 2.6 -0.4
v 0.6 2.6 -0.4
v 0.7 2.6 -0.4
v -0.6 2.6 -0.5
v -0.5 2.6 -0.5
v -0.2 2.6 -0.5
v 0.2 2.6 -0.5
v 0.5 2.6 -0.5
v 0.6 2.6 -0.5
v -0.5 2.6 -0.6
v -0.2 2.6 -0.6
v -0.0999999 2.6 -0.6
v 0.1 2.6 -0.6
v 0.2 2.6 -0.6
v 0.5 2.6 -0.6
v -0.0999999 2.6 -0.7
v 0.1 2.6 -0.7
v -0.7 2.7 0.1
v -0.6 2.7 0.1
v 0.6 2.7 0.1
v 0.7 2.7 0.1
v -0.7 2.7 -0.1
v -0.6 2.7 -0.1
v 0.6 2.7 -0.1
v 0.7 2.7 -0.1
v -0.7 2.7 -0.3
v -0.6 2.7 -0.3
v 0.6 2.7 -0.3
v 0.7 2.7 -0.3
v -0.2 2.7 -0.6
v -0.0999999 2.7 -0.6
v 0.1 2.7 -0.6
v 0.2 2.7 -0.6
v -0.2 2.7 -0.7
v -0.0999999 2.7 -0.7
v 0.1 2.7 -0.7
v 0.2 2.7 -0.7
v -0.3 2.8 -0.6
v -0.2 2.8 -0.6
v 0.2 2.8 -0.6
v 0.3 2.8 -0.6
v -0.3 2.8 -0.7
v -0.2 2.8 -0.7
v 0.2 2.8 -0.7
v 0.3 2.8 -0.7
v -0.7 3.1 0.2
v -0.6 3.1 0.2
v 0.6 3.1 0.2
v 0.7 3.1 0.2
v -0.7 3.1 0.1
v -0.6 3.1 0.1
v 0.6 3.1 0.1
v 0.7 3.1 0.1
v -0.4 3.2 0.7
v 0.4 3.2 0.7
v -0.4 3.2 0.6
v 0.4 3.2 0.6
v -0.7 3.2 0.4
v -0.6 3.2 0.4
v 0.6 3.2 0.4
v 0.7 3.2 0.4
v -0.7 3.2 0.2
v -0.6 3.2 0.2
v 0.6 3.2 0.2
v 0.7 3.2 0.2
v -0.7 0.3 0.4
v -0.3 0.3 0.4
v 0.3 0.3 0.4
v 0.7 0.3 0.4
v -0.7 0.3 0.1
v -0.3 0.3 0.1
v 0.3 0.3 0.1
v 0.7 0.3 0.1
v -0.7 0.5 0.1
v -0.3 0.5 0.1
v 0.3 0.5 0.1
v 0.7 0.5 0.1
v -0.7 0.5 -0.2
v -0.3 0.5 -0.2
v 0.3 0.5 -0.2
v 0.7 0.5 -0.2
v -1.2 1.6 0.3
v -0.9 1.6 0.3
v 0.9 1.6 0.3
v 1.2 1.6 0.3
v -1.3 1.6 0.2
v -1.2 1.6 0.2
v -0.9 1.6 0.2
v -0.8 1.6 0.2
v 0.8 1.6 0.2
v 0.9 1.6 0.2
v 1.2 1.6 0.2
v 1.3 1.6 0.2
v -1.3 1.6 -0.1
v -1.2 1.6 -0.1
v -0.9 1.6 -0.1
v -0.8 1.6 -0.1
v 0.8 1.6 -0.1
v 0.9 1.6 -0.1
v 1.2 1.6 -0.1
v 1.3 1.6 -0.1
v -1.2 1.6 -0.2
v -0.9 1.6 -0.2
v 0.9 1.6 -0.2
v 1.2 1.6 -0.2
v -1.2 1.7 0.2
v -0.9 1.7 0.2
v 0.9 1.7 0.2
v 1.2 1.7 0.2
v -1.2 1.7 -0.1
v -0.9 1.7 -0.1
v 0.9 1.7 -0.1
v 1.2 1.7 -0.1
v -0.5 1.9 -0.2
v -0.4 1.9 -0.2
v 0.4 1.9 -0.2
v 0.5 1.9 -0.2
v -0.5 1.9 -0.3
v -0.4 1.9 -0.3
v 0.4 1.9 -0.3
v 0.5 1.9 -0.3
v -0.5 2.1 0.4
v -0.4 2.1 0.4
v 0.4 2.1 0.4
v 0.5 2.1 0.4
v -0.6 2.1 0.3
v -0.5 2.1 0.3
v -0.4 2.1 0.3
v 0.4 2.1 0.3
v 0.5 2.1 0.3
v 0.6 2.1 0.3
v -0.6 2.1 0.2
v -0.5 2.1 0.2
v 0.5 2.1 0.2
v 0.6 2.1 0.2
v -0.6 2.1 -0.1
v -0.5 2.1 -0.1
v 0.5 2.1 -0.1
v 0.6 2.1 -0.1
v -0.6 2.1 -0.2
v -0.5 2.1 -0.2
v -0.4 2.1 -0.2
v -0.2 2.1 -0.2
v 0.2 2.1 -0.2
v 0.4 2.1 -0.2
v 0.5 2.1 -0.2
v 0.6 2.1 -0.2
v -0.4 2.1 -0.3
v -0.2 2.1 -0.3
v 0.2 2.1 -0.3
v 0.4 2.1 -0.3
v -0.4 2.2 0.4
v -0.0999999 2.2 0.4
v 0.1 2.2 0.4
v 0.4 2.2 0.4
v -0.5 2.2 0.3
v -0.4 2.2 0.3
v -0.3 2.2 0.3
v -0.0999999 2.2 0.3
v 0.1 2.2 0.3
v 0.3 2.2 0.3
v 0.4 2.2 0.3
v 0.5 2.2 0.3
v -0.6 2.2 0.2
v -0.5 2.2 0.2
v 0.5 2.2 0.2
v 0.6 2.2 0.2
v -0.6 2.2 -0.1
v -0.5 2.2 -0.1
v -0.3 2.2 -0.1
v 0.3 2.2 -0.1
v 0.5 2.2 -0.1
v 0.6 2.2 -0.1
v -0.5 2.2 -0.2
v -0.2 2.2 -0.2
v 0.2 2.2 -0.2
v 0.5 2.2 -0.2
v -0.2 2.2 -0.3
v 0.2 2.2 -0.3
v -0.3 3.2 -0.6
v -0.2 3.2 -0.6
v 0.2 3.2 -0.6
v 0.3 3.2 -0.6
v -0.3 3.2 -0.7
v -0.2 3.2 -0.7
v 0.2 3.2 -0.7
v 0.3 3.2 -0.7
v -0.4 3.3 0.7
v 0.4 3.3 0.7
v -0.5 3.3 0.6
v -0.4 3.3 0.6
v 0.4 3.3 0.6
v 0.5 3.3 0.6
v -0.6 3.3 0.5
v -0.5 3.3 0.5
v -0.4 3.3 0.5
v 0.4 3.3 0.5
v 0.5 3.3 0.5
v 0.6 3.3 0.5
v -0.7 3.3 0.4
v -0.6 3.3 0.4
v 0.6 3.3 0.4
v 0.7 3.3 0.4
v -0.6 3.3 0.3
v -0.5 3.3 0.3
v 0.5 3.3 0.3
v 0.6 3.3 0.3
v -0.7 3.3 -0.4
v -0.6 3.3 -0.4
v 0.6 3.3 -0.4
v 0.7 3.3 -0.4
v -0.5 3.3 -0.5
v -0.4 3.3 -0.5
v 0.4 3.3 -0.5
v 0.5 3.3 -0.5
v -0.5 3.3 -0.6
v -0.4 3.3 -0.6
v -0.2 3.3 -0.6
v 0.2 3.3 -0.6
v 0.4 3.3 -0.6
v 0.5 3.3 -0.6
v -0.2 3.3 -0.7
v 0.2 3.3 -0.7
v -0.4 3.4 0.6
v 0.4 3.4 0.6
v -0.5 3.4 0.5
v -0.4 3.4 0.5
v -0.3 3.4 0.5
v 0.3 3.4 0.5
v 0.4 3.4 0.5
v 0.5 3.4 0.5
v -0.4 3.4 0.4
v -0.3 3.4 0.4
v 0.3 3.4 0.4
v 0.4 3.4 0.4
v -0.6 3.4 0.3
v -0.5 3.4 0.3
v -0.4 3.4 0.3
v 0.4 3.4 0.3
v 0.5 3.4 0.3
v 0.6 3.4 0.3
v -0.5 3.4 -0.4
v -0.4 3.4 -0.4
v 0.4 3.4 -0.4
v 0.5 3.4 -0.4
v -0.6 3.4 -0.5
v -0.4 3.4 -0.5
v -0.2 3.4 -0.5
v 0.2 3.4 -0.5
v 0.4 3.4 -0.5
v 0.6 3.4 -0.5
v -0.4 3.4 -0.6
v -0.2 3.4 -0.6
v 0.2 3.4 -0.6
v 0.4 3.4 -0.6
v -0.3 3.5 0.5
v 0.3 3.5 0.5
v -0.4 3.5 0.4
v -0.3 3.5 0.4
v -0.2 3.5 0.4
v 0.2 3.5 0.4
v 0.3 3.5 0.4
v 0.4 3.5 0.4
v -0.5 3.5 0.3
v -0.4 3.5 0.3
v 0.4 3.5 0.3
v 0.5 3.5 0.3
v -0.3 3.5 0.2
v -0.2 3.5 0.2
v 0.2 3.5 0.2
v 0.3 3.5 0.2
v -0.4 3.5 0.1
v -0.3 3.5 0.1
v 0.3 3.5 0.1
v 0.4 3.5 0.1
v -0.4 3.5 -0.3
v -0.3 3.5 -0.3
v 0.3 3.5 -0.3
v 0.4 3.5 -0.3
v -0.5 3.5 -0.4
v -0.4 3.5 -0.4
v -0.3 3.5 -0.4
v -0.2 3.5 -0.4
v 0.2 3.5 -0.4
v 0.3 3.5 -0.4
v 0.4 3.5 -0.4
v 0.5 3.5 -0.4
v -0.4 3.5 -0.5
v -0.2 3.5 -0.5
v 0.2 3.5 -0.5
v 0.4 3.5 -0.5
v -0.2 3.5 -0.6
v 0.2 3.5 -0.6
v -0.2 3.6 0.4
v 0.2 3.6 0.4
v -0.3 3.6 0.2
v -0.2 3.6 0.2
v 0.2 3.6 0.2
v 0.3 3.6 0.2
v -0.4 3.6 0.1
v -0.3 3.6 0.1
v 0.3 3.6 0.1
v 0.4 3.6 0.1
v -0.4 3.6 -0.3
v -0.3 3.6 -0.3
v 0.3 3.6 -0.3
v 0.4 3.6 -0.3
v -0.3 3.6 -0.4
v -0.2 3.6 -0.4
v 0.2 3.6 -0.4
v 0.3 3.6 -0.4
v -0.2 3.6 -0.5
v 0.2 3.6 -0.5

# faces
f 3/5/1 2/5/1 1/5/1
f 4/5/1 2/5/1 3/5/1
f 8/5/1 6/5/1 5/5/1
f 9/5/1 6/5/1 8/5/1
f 11/5/1 8/5/1 7/5/1
f 12/5/1 8/5/1 11/5/1
f 13/5/1 10/5/1 9/5/1
f 14/5/1 10/5/1 13/5/1
f 15/5/1 13/5/1 12/5/1
f 16/5/1 13/5/1 15/5/1
f 19/6/1 18/6/1 17/6/1
f 20/6/1 18/6/1 19/6/1
f 21/2/1 20/2/1 19/2/1
f 22/2/1 20/2/1 21/2/1
f 23/2/1 20/2/1 22/2/1
f 24/2/1 20/2/1 23/2/1
f 29/6/1 26/6/1 25/6/1
f 30/5/1 28/5/1 27/5/1
f 31/6/1 29/6/1 28/6/1
f 31/5/1 28/5/1 30/5/1
f 32/5/1 30/5/1 27/5/1
f 33/6/1 31/6/1 30/6/1
f 33/5/1 30/5/1 32/5/1
f 35/6/1 33/6/1 32/6/1
f 37/6/1 35/6/1 34/6/1
f 38/6/1 37/6/1 36/6/1
f 39/6/1 29/6/1 31/6/1
f 39/6/1 37/6/1 38/6/1
f 39/6/1 26/6/1 29/6/1
f 39/6/1 35/6/1 37/6/1
f 39/6/1 31/6/1 33/6/1
f 39/6/1 33/6/1 35/6/1
f 43/4/1 41/4/1 40/4/1
f 44/4/1 41/4/1 43/4/1
f 46/4/1 43/4/1 42/4/1
f 46/4/1 45/4/1 44/4/1
f 46/4/1 44/4/1 43/4/1
f 48/4/1 46/4/1 42/4/1
f 48/4/1 47/4/1 46/4/1
f 49/4/1 47/4/1 48/4/1
f 50/4/1 47/4/1 49/4/1
f 51/4/1 47/4/1 50/4/1
f 52/4/1 50/4/1 49/4/1
f 53/4/1 50/4/1 52/4/1
f 57/5/1 55/5/1 54/5/1
f 58/5/1 55/5/1 57/5/1
f 61/5/1 57/5/1 56/5/1
f 61/5/1 58/5/1 57/5/1
f 62/5/1 58/5/1 61/5/1
f 63/5/1 58/5/1 62/5/1
f 64/5/1 61/5/1 56/5/1
f 65/5/1 64/5/1 56/5/1
f 66/5/1 64/5/1 65/5/1
f 67/5/1 65/5/1 56/5/1
f 68/5/1 65/5/1 67/5/1
f 69/5/1 65/5/1 68/5/1
f 70/6/1 68/6/1 67/6/1
f 71/6/1 68/6/1 70/6/1
f 73/6/1 60/6/1 59/6/1
f 74/6/1 73/6/1 72/6/1
f 75/6/1 60/6/1 73/6/1
f 75/6/1 73/6/1 74/6/1
f 81/4/1 77/4/1 76/4/1
f 82/4/1 77/4/1 81/4/1
f 83/4/1 79/4/1 78/4/1
f 84/4/1 79/4/1 83/4/1
f 85/4/1 79/4/1 84/4/1
f 87/4/1 86/4/1 85/4/1
f 87/4/1 85/4/1 84/4/1
f 88/4/1 86/4/1 87/4/1
f 89/4/1 86/4/1 88/4/1
f 90/4/1 86/4/1 89/4/1
f 91/4/1 81/4/1 80/4/1
f 92/4/1 81/4/1 91/4/1
f 96/4/1 93/4/1 92/4/1
f 97/4/1 93/4/1 96/4/1
f 98/4/1 95/4/1 94/4/1
f 99/4/1 95/4/1 98/4/1
f 106/5/1 101/5/1 100/5/1
f 107/5/1 101/5/1 106/5/1
f 108/5/1 103/5/1 102/5/1
f 109/6/1 104/6/1 103/6/1
f 109/5/1 103/5/1 108/5/1
f 110/6/1 104/6/1 109/6/1
f 112/5/1 106/5/1 105/5/1
f 113/5/1 106/5/1 112/5/1
f 114/6/1 113/6/1 112/6/1
f 115/6/1 113/6/1 114/6/1
f 117/6/1 111/6/1 110/6/1
f 118/6/1 111/6/1 117/6/1
f 119/6/1 116/6/1 115/6/1
f 120/6/1 116/6/1 119/6/1
f 122/6/1 121/6/1 120/6/1
f 123/6/1 121/6/1 122/6/1
f 128/4/1 125/4/1 124/4/1
f 129/4/1 125/4/1 128/4/1
f 132/4/1 127/4/1 126/4/1
f 133/4/1 127/4/1 132/4/1
f 134/4/1 131/4/1 130/4/1
f 135/4/1 131/4/1 134/4/1
f 140/4/1 137/4/1 136/4/1
f 141/4/1 137/4/1 140/4/1
f 142/4/1 139/4/1 138/4/1
f 143/4/1 139/4/1 142/4/1
f 148/5/1 145/5/1 144/5/1
f 149/5/1 145/5/1 148/5/1
f 150/5/1 147/5/1 146/5/1
f 151/5/1 147/5/1 150/5/1
f 154/6/1 153/6/1 152/6/1
f 155/6/1 153/6/1 154/6/1
f 159/6/1 156/6/1 155/6/1
f 160/6/1 156/6/1 159/6/1
f 164/6/1 158/6/1 157/6/1
f 165/6/1 158/6/1 164/6/1
f 166/6/1 162/6/1 161/6/1
f 167/6/1 162/6/1 166/6/1
f 170/6/1 164/6/1 163/6/1
f 171/6/1 164/6/1 170/6/1
f 172/6/1 169/6/1 168/6/1
f 173/6/1 169/6/1 172/6/1
f 178/4/1 175/4/1 174/4/1
f 179/4/1 175/4/1 178/4/1
f 180/4/1 177/4/1 176/4/1
f 181/4/1 177/4/1 180/4/1
f 184/5/1 183/5/1 182/5/1
f 185/5/1 183/5/1 184/5/1
f 188/6/1 187/6/1 186/6/1
f 189/6/1 187/6/1 188/6/1
f 192/6/1 191/6/1 190/6/1
f 193/6/1 191/6/1 192/6/1
f 198/6/1 195/6/1 194/6/1
f 199/6/1 195/6/1 198/6/1
f 200/6/1 197/6/1 196/6/1
f 201/6/1 197/6/1 200/6/1
f 204/4/1 203/4/1 202/4/1
f 205/4/1 203/4/1 204/4/1
f 208/6/1 207/6/1 206/6/1
f 209/6/1 207/6/1 208/6/1
f 212/6/1 211/6/1 210/6/1
f 213/6/1 211/6/1 212/6/1
f 216/6/1 215/6/1 214/6/1
f 217/6/1 215/6/1 216/6/1
f 223/6/1 219/6/1 218/6/1
f 224/6/1 219/6/1 223/6/1
f 225/6/1 221/6/1 220/6/1
f 226/6/1 221/6/1 225/6/1
f 227/6/1 223/6/1 222/6/1
f 228/6/1 223/6/1 227/6/1
f 231/6/1 230/6/1 229/6/1
f 232/6/1 230/6/1 231/6/1
f 235/6/1 234/6/1 233/6/1
f 236/6/1 234/6/1 235/6/1
f 237/2/1 236/2/1 235/2/1
f 238/2/1 236/2/1 237/2/1
f 239/2/1 236/2/1 238/2/1
f 240/2/1 236/2/1 239/2/1
f 243/5/1 242/5/1 241/5/1
f 244/5/1 242/5/1 243/5/1
f 248/5/1 246/5/1 245/5/1
f 249/5/1 246/5/1 248/5/1
f 251/5/1 248/5/1 247/5/1
f 252/5/1 248/5/1 251/5/1
f 253/5/1 250/5/1 249/5/1
f 254/5/1 250/5/1 253/5/1
f 255/5/1 253/5/1 252/5/1
f 256/5/1 253/5/1 255/5/1
f 257/5/2 258/5/2 260/5/2
f 260/5/2 258/5/2 261/5/2
f 259/5/2 260/5/2 263/5/2
f 263/5/2 260/5/2 264/5/2
f 261/5/2 262/5/2 265/5/2
f 265/5/2 262/5/2 266/5/2
f 264/5/2 265/5/2 267/5/2
f 267/5/2 265/5/2 268/5/2
f 269/5/2 270/5/2 271/5/2
f 271/5/2 270/5/2 272/5/2
f 273/6/2 274/6/2 275/6/2
f 275/6/2 274/6/2 276/6/2
f 275/2/2 276/2/2 277/2/2
f 277/2/2 276/2/2 278/2/2
f 278/2/2 276/2/2 279/2/2
f 279/2/2 276/2/2 280/2/2
f 281/6/2 282/6/2 283/6/2
f 283/6/2 282/6/2 284/6/2
f 285/4/2 286/4/2 287/4/2
f 287/4/2 286/4/2 288/4/2
f 289/6/2 290/6/2 291/6/2
f 291/6/2 290/6/2 292/6/2
f 293/6/2 294/6/2 295/6/2
f 295/6/2 294/6/2 296/6/2
f 297/6/2 298/6/2 299/6/2
f 299/6/2 298/6/2 300/6/2
f 301/6/2 302/6/2 306/6/2
f 306/6/2 302/6/2 307/6/2
f 303/6/2 304/6/2 308/6/2
f 308/6/2 304/6/2 309/6/2
f 305/6/2 306/6/2 310/6/2
f 310/6/2 306/6/2 311/6/2
f 312/4/2 313/4/2 316/4/2
f 316/4/2 313/4/2 317/4/2
f 314/4/2 315/4/2 318/4/2
f 318/4/2 315/4/2 319/4/2
f 320/5/2 321/5/2 322/5/2
f 322/5/2 321/5/2 323/5/2
f 324/6/2 325/6/2 326/6/2
f 326/6/2 325/6/2 327/6/2
f 328/6/2 329/6/2 330/6/2
f 330/6/2 329/6/2 331/6/2
f 332/6/2 333/6/2 336/6/2
f 336/6/2 333/6/2 337/6/2
f 334/6/2 335/6/2 338/6/2
f 338/6/2 335/6/2 339/6/2
f 340/4/2 341/4/2 344/4/2
f 344/4/2 341/4/2 345/4/2
f 342/4/2 343/4/2 348/4/2
f 348/4/2 343/4/2 349/4/2
f 346/4/2 347/4/2 350/4/2
f 350/4/2 347/4/2 351/4/2
f 352/4/2 353/4/2 356/4/2
f 356/4/2 353/4/2 357/4/2
f 354/4/2 355/4/2 358/4/2
f 358/4/2 355/4/2 359/4/2
f 360/5/2 361/5/2 364/5/2
f 364/5/2 361/5/2 365/5/2
f 362/5/2 363/5/2 366/5/2
f 366/5/2 363/5/2 367/5/2
f 368/6/2 369/6/2 370/6/2
f 370/6/2 369/6/2 371/6/2
f 371/6/2 372/6/2 375/6/2
f 375/6/2 372/6/2 376/6/2
f 373/6/2 374/6/2 380/6/2
f 380/6/2 374/6/2 381/6/2
f 377/6/2 378/6/2 382/6/2
f 382/6/2 378/6/2 383/6/2
f 379/6/2 380/6/2 386/6/2
f 386/6/2 380/6/2 387/6/2
f 384/6/2 385/6/2 388/6/2
f 388/6/2 385/6/2 389/6/2
f 390/4/2 391/4/2 395/4/2
f 395/4/2 391/4/2 396/4/2
f 392/4/2 393/4/2 397/4/2
f 397/4/2 393/4/2 398/4/2
f 398/4/2 393/4/2 399/4/2
f 399/4/2 400/4/2 401/4/2
f 398/4/2 399/4/2 401/4/2
f 401/4/2 400/4/2 402/4/2
f 402/4/2 400/4/2 403/4/2
f 403/4/2 400/4/2 404/4/2
f 394/4/2 395/4/2 405/4/2
f 405/4/2 395/4/2 406/4/2
f 406/4/2 407/4/2 410/4/2
f 410/4/2 407/4/2 411/4/2
f 408/4/2 409/4/2 412/4/2
f 412/4/2 409/4/2 413/4/2
f 414/5/2 415/5/2 420/5/2
f 420/5/2 415/5/2 421/5/2
f 416/5/2 417/5/2 422/5/2
f 417/6/2 418/6/2 423/6/2
f 422/5/2 417/5/2 423/5/2
f 423/6/2 418/6/2 424/6/2
f 419/5/2 420/5/2 426/5/2
f 426/5/2 420/5/2 427/5/2
f 426/6/2 427/6/2 428/6/2
f 428/6/2 427/6/2 429/6/2
f 424/6/2 425/6/2 431/6/2
f 431/6/2 425/6/2 432/6/2
f 429/6/2 430/6/2 433/6/2
f 433/6/2 430/6/2 434/6/2
f 434/6/2 435/6/2 436/6/2
f 436/6/2 435/6/2 437/6/2
f 438/4/2 439/4/2 441/4/2
f 441/4/2 439/4/2 442/4/2
f 440/4/2 441/4/2 444/4/2
f 442/4/2 443/4/2 444/4/2
f 441/4/2 442/4/2 444/4/2
f 440/4/2 444/4/2 446/4/2
f 444/4/2 445/4/2 446/4/2
f 446/4/2 445/4/2 447/4/2
f 447/4/2 445/4/2 448/4/2
f 448/4/2 445/4/2 449/4/2
f 447/4/2 448/4/2 450/4/2
f 450/4/2 448/4/2 451/4/2
f 452/5/2 453/5/2 455/5/2
f 455/5/2 453/5/2 456/5/2
f 454/5/2 455/5/2 459/5/2
f 455/5/2 456/5/2 459/5/2
f 459/5/2 456/5/2 460/5/2
f 460/5/2 456/5/2 461/5/2
f 454/5/2 459/5/2 462/5/2
f 454/5/2 462/5/2 463/5/2
f 463/5/2 462/5/2 464/5/2
f 454/5/2 463/5/2 465/5/2
f 465/5/2 463/5/2 466/5/2
f 466/5/2 463/5/2 467/5/2
f 465/6/2 466/6/2 468/6/2
f 468/6/2 466/6/2 469/6/2
f 457/6/2 458/6/2 471/6/2
f 470/6/2 471/6/2 472/6/2
f 471/6/2 458/6/2 473/6/2
f 472/6/2 471/6/2 473/6/2
f 474/6/2 475/6/2 476/6/2
f 476/6/2 475/6/2 477/6/2
f 476/2/2 477/2/2 478/2/2
f 478/2/2 477/2/2 479/2/2
f 479/2/2 477/2/2 480/2/2
f 480/2/2 477/2/2 481/2/2
f 482/6/2 483/6/2 486/6/2
f 484/5/2 485/5/2 487/5/2
f 485/6/2 486/6/2 488/6/2
f 487/5/2 485/5/2 488/5/2
f 484/5/2 487/5/2 489/5/2
f 487/6/2 488/6/2 490/6/2
f 489/5/2 487/5/2 490/5/2
f 489/6/2 490/6/2 492/6/2
f 491/6/2 492/6/2 494/6/2
f 493/6/2 494/6/2 495/6/2
f 488/6/2 486/6/2 496/6/2
f 495/6/2 494/6/2 496/6/2
f 486/6/2 483/6/2 496/6/2
f 494/6/2 492/6/2 496/6/2
f 490/6/2 488/6/2 496/6/2
f 492/6/2 490/6/2 496/6/2
f 497/5/2 498/5/2 500/5/2
f 500/5/2 498/5/2 501/5/2
f 499/5/2 500/5/2 503/5/2
f 503/5/2 500/5/2 504/5/2
f 501/5/2 502/5/2 505/5/2
f 505/5/2 502/5/2 506/5/2
f 504/5/2 505/5/2 507/5/2
f 507/5/2 505/5/2 508/5/2
f 509/5/2 510/5/2 511/5/2
f 511/5/2 510/5/2 512/5/2
f 515/6/3 514/6/3 513/6/3
f 516/6/3 514/6/3 515/6/3
f 521/5/3 518/5/3 517/5/3
f 522/5/3 518/5/3 521/5/3
f 523/5/3 518/5/3 522/5/3
f 524/6/3 519/6/3 518/6/3
f 524/5/3 518/5/3 523/5/3
f 525/6/3 519/6/3 524/6/3
f 527/7/3 523/7/3 522/7/3
f 527/5/3 521/5/3 520/5/3
f 527/5/3 522/5/3 521/5/3
f 528/7/3 523/7/3 527/7/3
f 529/5/3 527/5/3 520/5/3
f 529/9/3 528/9/3 527/9/3
f 530/7/3 523/7/3 528/7/3
f 530/9/3 528/9/3 529/9/3
f 531/5/3 524/5/3 523/5/3
f 531/7/3 523/7/3 530/7/3
f 532/5/3 530/5/3 529/5/3
f 532/5/3 529/5/3 520/5/3
f 532/5/3 531/5/3 530/5/3
f 533/5/3 531/5/3 532/5/3
f 534/5/3 524/5/3 531/5/3
f 534/5/3 531/5/3 533/5/3
f 535/9/3 533/9/3 532/9/3
f 535/5/3 532/5/3 520/5/3
f 536/7/3 534/7/3 533/7/3
f 536/9/3 533/9/3 535/9/3
f 537/5/3 535/5/3 520/5/3
f 538/5/3 535/5/3 537/5/3
f 539/7/3 536/7/3 535/7/3
f 539/5/3 535/5/3 538/5/3
f 540/5/3 524/5/3 534/5/3
f 540/7/3 536/7/3 539/7/3
f 540/7/3 534/7/3 536/7/3
f 541/5/3 524/5/3 540/5/3
f 542/6/3 526/6/3 525/6/3
f 543/6/3 526/6/3 542/6/3
f 544/5/3 541/5/3 540/5/3
f 544/5/3 539/5/3 538/5/3
f 544/5/3 540/5/3 539/5/3
f 545/6/3 542/6/3 541/6/3
f 545/5/3 541/5/3 544/5/3
f 546/6/3 542/6/3 545/6/3
f 551/5/3 548/5/3 547/5/3
f 552/6/3 549/6/3 548/6/3
f 552/5/3 548/5/3 551/5/3
f 553/6/3 549/6/3 552/6/3
f 555/5/3 551/5/3 550/5/3
f 556/5/3 551/5/3 555/5/3
f 557/6/3 554/6/3 553/6/3
f 558/6/3 554/6/3 557/6/3
f 563/5/3 560/5/3 559/5/3
f 564/5/3 560/5/3 563/5/3
f 565/6/3 562/6/3 561/6/3
f 566/6/3 562/6/3 565/6/3
f 571/5/3 568/5/3 567/5/3
f 572/5/3 568/5/3 571/5/3
f 574/6/3 570/6/3 569/6/3
f 575/6/3 570/6/3 574/6/3
f 576/5/3 573/5/3 572/5/3
f 577/6/3 574/6/3 573/6/3
f 577/5/3 573/5/3 576/5/3
f 578/6/3 574/6/3 577/6/3
f 586/6/3 583/6/3 582/6/3
f 587/6/3 583/6/3 586/6/3
f 590/5/3 585/5/3 584/5/3
f 591/5/3 585/5/3 590/5/3
f 593/4/3 589/4/3 588/4/3
f 594/4/3 589/4/3 593/4/3
f 600/6/3 580/6/3 579/6/3
f 601/2/3 581/2/3 580/2/3
f 601/6/3 580/6/3 600/6/3
f 602/2/3 581/2/3 601/2/3
f 603/5/3 597/5/3 596/5/3
f 604/5/3 597/5/3 603/5/3
f 605/6/3 599/6/3 598/6/3
f 606/6/3 599/6/3 605/6/3
f 607/4/3 595/4/3 594/4/3
f 607/4/3 593/4/3 592/4/3
f 607/4/3 594/4/3 593/4/3
f 608/4/3 595/4/3 607/4/3
f 609/4/3 595/4/3 608/4/3
f 610/4/3 595/4/3 609/4/3
f 611/4/3 595/4/3 610/4/3
f 612/4/3 595/4/3 611/4/3
f 613/4/3 595/4/3 612/4/3
f 614/4/3 595/4/3 613/4/3
f 615/4/3 595/4/3 614/4/3
f 616/4/3 595/4/3 615/4/3
f 619/4/3 607/4/3 592/4/3
f 620/1/3 608/1/3 607/1/3
f 620/4/3 607/4/3 619/4/3
f 621/4/3 609/4/3 608/4/3
f 621/1/3 608/1/3 620/1/3
f 622/1/3 610/1/3 609/1/3
f 622/4/3 609/4/3 621/4/3
f 623/4/3 611/4/3 610/4/3
f 623/1/3 610/1/3 622/1/3
f 624/1/3 612/1/3 611/1/3
f 624/4/3 611/4/3 623/4/3
f 625/4/3 613/4/3 612/4/3
f 625/1/3 612/1/3 624/1/3
f 626/1/3 614/1/3 613/1/3
f 626/4/3 613/4/3 625/4/3
f 627/4/3 615/4/3 614/4/3
f 627/1/3 614/1/3 626/1/3
f 628/1/3 616/1/3 615/1/3
f 628/4/3 615/4/3 627/4/3
f 629/4/3 595/4/3 616/4/3
f 629/1/3 616/1/3 628/1/3
f 630/4/3 595/4/3 629/4/3
f 631/3/3 628/3/3 627/3/3
f 631/3/3 620/3/3 619/3/3
f 631/3/3 630/3/3 629/3/3
f 631/3/3 629/3/3 628/3/3
f 631/3/3 627/3/3 626/3/3
f 631/3/3 626/3/3 625/3/3
f 631/3/3 625/3/3 624/3/3
f 631/3/3 624/3/3 623/3/3
f 631/3/3 623/3/3 622/3/3
f 631/3/3 622/3/3 621/3/3
f 631/3/3 621/3/3 620/3/3
f 632/3/3 630/3/3 631/3/3
f 633/3/3 630/3/3 632/3/3
f 634/3/3 630/3/3 633/3/3
f 635/3/3 630/3/3 634/3/3
f 636/3/3 630/3/3 635/3/3
f 637/3/3 630/3/3 636/3/3
f 638/3/3 630/3/3 637/3/3
f 639/3/3 630/3/3 638/3/3
f 640/3/3 630/3/3 639/3/3
f 641/3/3 630/3/3 640/3/3
f 642/3/3 630/3/3 641/3/3
f 643/4/3 632/4/3 631/4/3
f 643/1/3 633/1/3 632/1/3
f 644/4/3 634/4/3 633/4/3
f 644/1/3 633/1/3 643/1/3
f 645/1/3 635/1/3 634/1/3
f 645/4/3 634/4/3 644/4/3
f 646/4/3 636/4/3 635/4/3
f 646/1/3 635/1/3 645/1/3
f 647/1/3 637/1/3 636/1/3
f 647/4/3 636/4/3 646/4/3
f 648/4/3 638/4/3 637/4/3
f 648/1/3 637/1/3 647/1/3
f 649/1/3 639/1/3 638/1/3
f 649/4/3 638/4/3 648/4/3
f 650/4/3 640/4/3 639/4/3
f 650/1/3 639/1/3 649/1/3
f 651/1/3 641/1/3 640/1/3
f 651/4/3 640/4/3 650/4/3
f 652/4/3 642/4/3 641/4/3
f 652/1/3 641/1/3 651/1/3
f 653/6/3 618/6/3 617/6/3
f 654/6/3 618/6/3 653/6/3
f 662/4/3 652/4/3 651/4/3
f 662/4/3 650/4/3 649/4/3
f 662/4/3 651/4/3 650/4/3
f 662/4/3 643/4/3 631/4/3
f 662/4/3 644/4/3 643/4/3
f 662/4/3 645/4/3 644/4/3
f 662/4/3 646/4/3 645/4/3
f 662/4/3 649/4/3 648/4/3
f 662/4/3 648/4/3 647/4/3
f 662/4/3 647/4/3 646/4/3
f 663/4/3 652/4/3 662/4/3
f 664/4/3 642/4/3 652/4/3
f 664/4/3 652/4/3 663/4/3
f 665/4/3 642/4/3 664/4/3
f 666/5/3 659/5/3 658/5/3
f 667/5/3 659/5/3 666/5/3
f 668/6/3 661/6/3 660/6/3
f 669/6/3 661/6/3 668/6/3
f 670/4/3 664/4/3 663/4/3
f 671/4/3 664/4/3 670/4/3
f 674/5/3 673/5/3 672/5/3
f 675/5/3 673/5/3 674/5/3
f 678/6/3 656/6/3 655/6/3
f 679/2/3 657/2/3 656/2/3
f 679/6/3 656/6/3 678/6/3
f 680/2/3 657/2/3 679/2/3
f 681/6/3 677/6/3 676/6/3
f 682/6/3 677/6/3 681/6/3
f 685/5/3 684/5/3 683/5/3
f 686/5/3 684/5/3 685/5/3
f 692/4/3 688/4/3 687/4/3
f 693/4/3 688/4/3 692/4/3
f 695/6/3 690/6/3 689/6/3
f 696/6/3 690/6/3 695/6/3
f 698/4/3 692/4/3 691/4/3
f 699/4/3 692/4/3 698/4/3
f 700/4/3 694/4/3 693/4/3
f 701/4/3 694/4/3 700/4/3
f 702/6/3 697/6/3 696/6/3
f 703/6/3 697/6/3 702/6/3
f 706/4/3 705/4/3 704/4/3
f 707/4/3 705/4/3 706/4/3
f 708/3/3 707/3/3 706/3/3
f 709/3/3 707/3/3 708/3/3
f 710/4/3 709/4/3 708/4/3
f 711/4/3 709/4/3 710/4/3
f 718/4/3 713/4/3 712/4/3
f 719/4/3 713/4/3 718/4/3
f 720/4/3 715/4/3 714/4/3
f 721/4/3 715/4/3 720/4/3
f 723/6/3 717/6/3 716/6/3
f 724/6/3 717/6/3 723/6/3
f 725/4/3 720/4/3 719/4/3
f 726/4/3 720/4/3 725/4/3
f 727/6/3 723/6/3 722/6/3
f 728/6/3 723/6/3 727/6/3
f 731/5/3 730/5/3 729/5/3
f 732/5/3 730/5/3 731/5/3
f 736/5/3 734/5/3 733/5/3
f 737/5/3 734/5/3 736/5/3
f 739/5/3 736/5/3 735/5/3
f 740/5/3 736/5/3 739/5/3
f 741/5/3 738/5/3 737/5/3
f 742/5/3 738/5/3 741/5/3
f 743/5/3 741/5/3 740/5/3
f 744/5/3 741/5/3 743/5/3
f 751/6/3 746/6/3 745/6/3
f 752/6/3 746/6/3 751/6/3
f 753/4/3 748/4/3 747/4/3
f 754/4/3 748/4/3 753/4/3
f 755/4/3 750/4/3 749/4/3
f 756/4/3 750/4/3 755/4/3
f 759/4/3 758/4/3 757/4/3
f 760/4/3 758/4/3 759/4/3
f 763/6/3 762/6/3 761/6/3
f 764/6/3 762/6/3 763/6/3
f 769/6/3 766/6/3 765/6/3
f 770/6/3 766/6/3 769/6/3
f 771/4/3 768/4/3 767/4/3
f 772/4/3 768/4/3 771/4/3
f 777/4/3 774/4/3 773/4/3
f 778/4/3 774/4/3 777/4/3
f 779/4/3 776/4/3 775/4/3
f 780/4/3 776/4/3 779/4/3
f 783/6/3 782/6/3 781/6/3
f 784/6/3 782/6/3 783/6/3
f 788/5/3 786/5/3 785/5/3
f 789/5/3 786/5/3 788/5/3
f 791/5/3 788/5/3 787/5/3
f 792/5/3 788/5/3 791/5/3
f 793/5/3 790/5/3 789/5/3
f 794/5/3 790/5/3 793/5/3
f 795/5/3 793/5/3 792/5/3
f 796/5/3 793/5/3 795/5/3
f 802/5/3 800/5/3 799/5/3
f 803/6/3 801/6/3 800/6/3
f 803/5/3 800/5/3 802/5/3
f 804/6/3 801/6/3 803/6/3
f 807/2/3 798/2/3 797/2/3
f 808/2/3 798/2/3 807/2/3
f 809/6/3 806/6/3 805/6/3
f 810/6/3 806/6/3 809/6/3
f 815/6/3 814/6/3 813/6/3
f 816/6/3 814/6/3 815/6/3
f 820/2/3 812/2/3 811/2/3
f 821/2/3 812/2/3 820/2/3
f 822/5/3 818/5/3 817/5/3
f 823/6/3 819/6/3 818/6/3
f 823/5/3 818/5/3 822/5/3
f 824/6/3 819/6/3 823/6/3
f 827/6/3 826/6/3 825/6/3
f 828/6/3 826/6/3 827/6/3
f 831/6/3 830/6/3 829/6/3
f 832/6/3 830/6/3 831/6/3
f 833/4/4 834/4/4 835/4/4
f 835/4/4 834/4/4 836/4/4
f 837/4/4 838/4/4 839/4/4
f 839/4/4 838/4/4 840/4/4
f 841/5/4 842/5/4 844/5/4
f 844/5/4 842/5/4 845/5/4
f 843/5/4 844/5/4 847/5/4
f 847/5/4 844/5/4 848/5/4
f 845/5/4 846/5/4 849/5/4
f 849/5/4 846/5/4 850/5/4
f 848/5/4 849/5/4 851/5/4
f 851/5/4 849/5/4 852/5/4
f 853/4/4 854/4/4 857/4/4
f 857/4/4 854/4/4 858/4/4
f 855/4/4 856/4/4 859/4/4
f 859/4/4 856/4/4 860/4/4
f 861/4/4 862/4/4 863/4/4
f 863/4/4 862/4/4 864/4/4
f 865/4/4 866/4/4 867/4/4
f 867/4/4 866/4/4 868/4/4
f 869/4/4 870/4/4 873/4/4
f 873/4/4 870/4/4 874/4/4
f 871/4/4 872/4/4 875/4/4
f 875/4/4 872/4/4 876/4/4
f 877/5/4 878/5/4 880/5/4
f 880/5/4 878/5/4 881/5/4
f 879/5/4 880/5/4 883/5/4
f 883/5/4 880/5/4 884/5/4
f 881/5/4 882/5/4 885/5/4
f 885/5/4 882/5/4 886/5/4
f 884/5/4 885/5/4 887/5/4
f 887/5/4 885/5/4 888/5/4
f 889/5/4 890/5/4 891/5/4
f 891/5/4 890/5/4 892/5/4
f 896/4/4 897/4/4 900/4/4
f 900/4/4 897/4/4 901/4/4
f 901/4/4 897/4/4 902/4/4
f 898/4/4 899/4/4 904/4/4
f 904/4/4 899/4/4 905/4/4
f 902/4/4 903/4/4 906/4/4
f 901/4/4 902/4/4 906/4/4
f 906/4/4 903/4/4 907/4/4
f 893/6/4 894/6/4 908/6/4
f 894/2/4 895/2/4 909/2/4
f 908/6/4 894/6/4 909/6/4
f 909/2/4 895/2/4 910/2/4
f 907/4/4 903/4/4 913/4/4
f 913/4/4 903/4/4 914/4/4
f 911/4/4 912/4/4 920/4/4
f 920/4/4 912/4/4 921/4/4
f 915/4/4 916/4/4 925/4/4
f 922/4/4 923/4/4 926/4/4
f 926/4/4 923/4/4 927/4/4
f 924/4/4 925/4/4 929/4/4
f 925/4/4 916/4/4 930/4/4
f 929/4/4 925/4/4 930/4/4
f 930/4/4 916/4/4 931/4/4
f 928/4/4 929/4/4 932/4/4
f 929/4/4 930/4/4 932/4/4
f 932/4/4 930/4/4 933/4/4
f 917/6/4 918/6/4 934/6/4
f 918/2/4 919/2/4 935/2/4
f 934/6/4 918/6/4 935/6/4
f 935/2/4 919/2/4 936/2/4
f 937/5/4 938/5/4 939/5/4
f 939/5/4 938/5/4 940/5/4
f 941/5/4 942/5/4 945/5/4
f 945/5/4 942/5/4 946/5/4
f 943/4/4 944/4/4 948/4/4
f 948/4/4 944/4/4 949/4/4
f 953/6/4 954/6/4 955/6/4
f 955/6/4 954/6/4 956/6/4
f 947/4/4 948/4/4 957/4/4
f 948/4/4 949/4/4 957/4/4
f 949/4/4 950/4/4 957/4/4
f 947/4/4 957/4/4 959/4/4
f 957/4/4 958/4/4 959/4/4
f 959/4/4 958/4/4 960/4/4
f 947/4/4 959/4/4 963/4/4
f 963/4/4 959/4/4 964/4/4
f 964/4/4 959/4/4 965/4/4
f 965/4/4 959/4/4 966/4/4
f 951/5/4 952/5/4 967/5/4
f 967/5/4 952/5/4 968/5/4
f 961/6/4 962/6/4 969/6/4
f 969/6/4 962/6/4 970/6/4
f 964/4/4 965/4/4 971/4/4
f 971/4/4 965/4/4 972/4/4
f 973/5/4 974/5/4 975/5/4
f 975/5/4 974/5/4 976/5/4
f 977/6/4 978/6/4 979/6/4
f 979/6/4 978/6/4 980/6/4
f 981/6/4 982/6/4 983/6/4
f 983/6/4 982/6/4 984/6/4
f 985/6/4 986/6/4 987/6/4
f 987/6/4 986/6/4 988/6/4
f 989/6/4 990/6/4 991/6/4
f 991/6/4 990/6/4 992/6/4
f 993/6/4 994/6/4 995/6/4
f 995/6/4 994/6/4 996/6/4
f 997/6/4 998/6/4 999/6/4
f 999/6/4 998/6/4 1000/6/4
f 1001/6/4 1002/6/4 1004/6/4
f 1004/6/4 1002/6/4 1005/6/4
f 1005/6/4 1002/6/4 1006/6/4
f 1006/6/4 1002/6/4 1007/6/4
f 1003/6/4 1004/6/4 1009/6/4
f 1009/6/4 1004/6/4 1010/6/4
f 1007/6/4 1008/6/4 1011/6/4
f 1011/6/4 1008/6/4 1012/6/4
f 1012/6/4 1013/6/4 1017/6/4
f 1017/6/4 1013/6/4 1018/6/4
f 1016/6/4 1017/6/4 1020/6/4
f 1020/6/4 1017/6/4 1021/6/4
f 1014/6/4 1015/6/4 1022/6/4
f 1022/6/4 1015/6/4 1023/6/4
f 1019/6/4 1020/6/4 1024/6/4
f 1023/6/4 1024/6/4 1025/6/4
f 1024/6/4 1020/6/4 1026/6/4
f 1025/6/4 1024/6/4 1026/6/4
f 1027/6/4 1028/6/4 1029/6/4
f 1027/6/4 1029/6/4 1031/6/4
f 1029/6/4 1030/6/4 1031/6/4
f 1031/6/4 1030/6/4 1032/6/4
f 1027/6/4 1031/6/4 1034/6/4
f 1034/6/4 1031/6/4 1035/6/4
f 1035/6/4 1031/6/4 1036/6/4
f 1032/6/4 1030/6/4 1037/6/4
f 1037/6/4 1030/6/4 1038/6/4
f 1038/6/4 1030/6/4 1039/6/4
f 1033/6/4 1034/6/4 1041/6/4
f 1034/6/4 1035/6/4 1041/6/4
f 1041/6/4 1035/6/4 1042/6/4
f 1033/6/4 1041/6/4 1043/6/4
f 1033/6/4 1043/6/4 1045/6/4
f 1043/6/4 1044/6/4 1045/6/4
f 1045/6/4 1044/6/4 1046/6/4
f 1046/6/4 1044/6/4 1047/6/4
f 1039/6/4 1040/6/4 1050/6/4
f 1038/6/4 1039/6/4 1050/6/4
f 1050/6/4 1040/6/4 1051/6/4
f 1051/6/4 1040/6/4 1052/6/4
f 1047/6/4 1048/6/4 1053/6/4
f 1046/6/4 1047/6/4 1053/6/4
f 1050/6/4 1051/6/4 1054/6/4
f 1049/6/4 1050/6/4 1054/6/4
f 1054/6/4 1051/6/4 1055/6/4
f 1053/6/4 1054/6/4 1055/6/4
f 1055/6/4 1051/6/4 1056/6/4
f 1046/6/4 1053/6/4 1057/6/4
f 1053/6/4 1055/6/4 1057/6/4
f 1057/6/4 1055/6/4 1058/6/4
f 1059/6/4 1060/6/4 1062/6/4
f 1062/6/4 1060/6/4 1063/6/4
f 1061/6/4 1062/6/4 1066/6/4
f 1063/6/4 1064/6/4 1066/6/4
f 1062/6/4 1063/6/4 1066/6/4
f 1065/6/4 1066/6/4 1067/6/4
f 1066/6/4 1064/6/4 1068/6/4
f 1067/6/4 1066/6/4 1068/6/4
f 1068/6/4 1064/6/4 1069/6/4
f 1069/6/4 1064/6/4 1070/6/4
f 1070/6/4 1064/6/4 1071/6/4
f 1071/6/4 1064/6/4 1072/6/4
f 1070/6/4 1071/6/4 1073/6/4
f 1073/6/4 1071/6/4 1074/6/4
f 1079/6/5 1076/6/5 1075/6/5
f 1080/6/5 1076/6/5 1079/6/5
f 1081/6/5 1078/6/5 1077/6/5
f 1082/6/5 1078/6/5 1081/6/5
f 1088/4/5 1084/4/5 1083/4/5
f 1089/3/5 1085/3/5 1084/3/5
f 1089/4/5 1084/4/5 1088/4/5
f 1090/4/5 1086/4/5 1085/4/5
f 1090/3/5 1085/3/5 1089/3/5
f 1091/4/5 1086/4/5 1090/4/5
f 1093/4/5 1089/4/5 1088/4/5
f 1093/4/5 1092/4/5 1091/4/5
f 1093/4/5 1091/4/5 1090/4/5
f 1093/4/5 1090/4/5 1089/4/5
f 1093/4/5 1088/4/5 1087/4/5
f 1094/4/5 1092/4/5 1093/4/5
f 1095/4/5 1092/4/5 1094/4/5
f 1096/4/5 1092/4/5 1095/4/5
f 1097/4/5 1095/4/5 1094/4/5
f 1098/4/5 1095/4/5 1097/4/5
f 1104/4/5 1100/4/5 1099/4/5
f 1105/4/5 1100/4/5 1104/4/5
f 1106/3/5 1101/3/5 1100/3/5
f 1106/4/5 1100/4/5 1105/4/5
f 1107/4/5 1102/4/5 1101/4/5
f 1107/3/5 1101/3/5 1106/3/5
f 1108/4/5 1102/4/5 1107/4/5
f 1109/4/5 1102/4/5 1108/4/5
f 1112/4/5 1105/4/5 1104/4/5
f 1112/4/5 1104/4/5 1103/4/5
f 1113/4/5 1105/4/5 1112/4/5
f 1114/4/5 1105/4/5 1113/4/5
f 1115/4/5 1110/4/5 1109/4/5
f 1115/4/5 1109/4/5 1108/4/5
f 1116/4/5 1110/4/5 1115/4/5
f 1117/4/5 1110/4/5 1116/4/5
f 1119/4/5 1113/4/5 1112/4/5
f 1119/4/5 1112/4/5 1111/4/5
f 1120/4/5 1113/4/5 1119/4/5
f 1121/4/5 1118/4/5 1117/4/5
f 1121/4/5 1117/4/5 1116/4/5
f 1122/4/5 1118/4/5 1121/4/5
f 1123/4/5 1113/4/5 1120/4/5
f 1126/4/5 1121/4/5 1116/4/5
f 1127/4/5 1124/4/5 1123/4/5
f 1127/4/5 1123/4/5 1120/4/5
f 1128/4/5 1124/4/5 1127/4/5
f 1129/4/5 1124/4/5 1128/4/5
f 1130/4/5 1126/4/5 1125/4/5
f 1131/4/5 1121/4/5 1126/4/5
f 1131/4/5 1126/4/5 1130/4/5
f 1132/4/5 1121/4/5 1131/4/5
f 1133/4/5 1129/4/5 1128/4/5
f 1133/4/5 1130/4/5 1129/4/5
f 1133/4/5 1131/4/5 1130/4/5
f 1134/4/5 1131/4/5 1133/4/5
f 1140/4/5 1136/4/5 1135/4/5
f 1141/4/5 1136/4/5 1140/4/5
f 1142/4/5 1138/4/5 1137/4/5
f 1143/4/5 1138/4/5 1142/4/5
f 1145/4/5 1140/4/5 1139/4/5
f 1146/4/5 1140/4/5 1145/4/5
f 1147/4/5 1144/4/5 1143/4/5
f 1148/4/5 1144/4/5 1147/4/5
f 1153/4/5 1150/4/5 1149/4/5
f 1154/4/5 1150/4/5 1153/4/5
f 1155/4/5 1152/4/5 1151/4/5
f 1156/4/5 1152/4/5 1155/4/5
f 1161/4/5 1158/4/5 1157/4/5
f 1162/4/5 1158/4/5 1161/4/5
f 1163/4/5 1160/4/5 1159/4/5
f 1164/4/5 1160/4/5 1163/4/5
f 1169/4/5 1166/4/5 1165/4/5
f 1170/4/5 1166/4/5 1169/4/5
f 1171/4/5 1168/4/5 1167/4/5
f 1172/4/5 1168/4/5 1171/4/5
f 1177/5/5 1174/5/5 1173/5/5
f 1178/5/5 1174/5/5 1177/5/5
f 1179/5/5 1176/5/5 1175/5/5
f 1180/5/5 1176/5/5 1179/5/5
f 1186/5/5 1182/5/5 1181/5/5
f 1187/5/5 1182/5/5 1186/5/5
f 1190/5/5 1184/5/5 1183/5/5
f 1191/5/5 1184/5/5 1190/5/5
f 1193/5/5 1186/5/5 1185/5/5
f 1194/5/5 1186/5/5 1193/5/5
f 1195/5/5 1188/5/5 1187/5/5
f 1196/5/5 1188/5/5 1195/5/5
f 1197/5/5 1190/5/5 1189/5/5
f 1198/5/5 1190/5/5 1197/5/5
f 1199/5/5 1192/5/5 1191/5/5
f 1200/5/5 1192/5/5 1199/5/5
f 1201/5/5 1195/5/5 1194/5/5
f 1202/5/5 1195/5/5 1201/5/5
f 1203/5/5 1199/5/5 1198/5/5
f 1204/5/5 1199/5/5 1203/5/5
f 1208/5/5 1206/5/5 1205/5/5
f 1209/5/5 1206/5/5 1208/5/5
f 1211/5/5 1208/5/5 1207/5/5
f 1211/5/5 1210/5/5 1209/5/5
f 1211/5/5 1209/5/5 1208/5/5
f 1212/5/5 1210/5/5 1211/5/5
f 1216/5/5 1214/5/5 1213/5/5
f 1217/5/5 1214/5/5 1216/5/5
f 1218/5/5 1214/5/5 1217/5/5
f 1219/5/5 1214/5/5 1218/5/5
f 1222/5/5 1216/5/5 1215/5/5
f 1222/5/5 1217/5/5 1216/5/5
f 1223/5/5 1217/5/5 1222/5/5
f 1224/5/5 1217/5/5 1223/5/5
f 1225/5/5 1219/5/5 1218/5/5
f 1225/5/5 1220/5/5 1219/5/5
f 1226/5/5 1220/5/5 1225/5/5
f 1227/5/5 1220/5/5 1226/5/5
f 1229/5/5 1223/5/5 1222/5/5
f 1229/5/5 1222/5/5 1221/5/5
f 1230/5/5 1223/5/5 1229/5/5
f 1231/5/5 1223/5/5 1230/5/5
f 1232/5/5 1228/5/5 1227/5/5
f 1232/5/5 1227/5/5 1226/5/5
f 1233/5/5 1228/5/5 1232/5/5
f 1234/5/5 1228/5/5 1233/5/5
f 1235/5/5 1231/5/5 1230/5/5
f 1235/5/5 1233/5/5 1232/5/5
f 1235/5/5 1232/5/5 1231/5/5
f 1236/5/5 1233/5/5 1235/5/5
f 1237/6/5 1236/6/5 1235/6/5
f 1238/6/5 1236/6/5 1237/6/5
f 1239/6/5 1236/6/5 1238/6/5
f 1240/6/5 1236/6/5 1239/6/5
f 1241/6/5 1239/6/5 1238/6/5
f 1242/6/5 1239/6/5 1241/6/5
f 1248/5/5 1244/5/5 1243/5/5
f 1249/5/5 1244/5/5 1248/5/5
f 1250/5/5 1246/5/5 1245/5/5
f 1251/5/5 1246/5/5 1250/5/5
f 1253/5/5 1248/5/5 1247/5/5
f 1254/5/5 1248/5/5 1253/5/5
f 1255/5/5 1252/5/5 1251/5/5
f 1256/5/5 1252/5/5 1255/5/5
f 1263/6/5 1258/6/5 1257/6/5
f 1263/6/5 1259/6/5 1258/6/5
f 1264/6/5 1259/6/5 1263/6/5
f 1265/6/5 1259/6/5 1264/6/5
f 1266/6/5 1261/6/5 1260/6/5
f 1266/6/5 1262/6/5 1261/6/5
f 1267/6/5 1262/6/5 1266/6/5
f 1268/6/5 1262/6/5 1267/6/5
f 1269/6/5 1265/6/5 1264/6/5
f 1270/6/5 1265/6/5 1269/6/5
f 1273/6/5 1267/6/5 1266/6/5
f 1274/6/5 1267/6/5 1273/6/5
f 1275/6/5 1271/6/5 1270/6/5
f 1276/6/5 1271/6/5 1275/6/5
f 1279/6/5 1273/6/5 1272/6/5
f 1280/6/5 1273/6/5 1279/6/5
f 1281/6/5 1278/6/5 1277/6/5
f 1282/6/5 1278/6/5 1281/6/5
f 1287/5/5 1284/5/5 1283/5/5
f 1288/5/5 1284/5/5 1287/5/5
f 1289/5/5 1286/5/5 1285/5/5
f 1290/5/5 1286/5/5 1289/5/5
f 1291/6/5 1288/6/5 1287/6/5
f 1292/6/5 1288/6/5 1291/6/5
f 1293/6/5 1290/6/5 1289/6/5
f 1294/6/5 1290/6/5 1293/6/5
f 1299/6/5 1296/6/5 1295/6/5
f 1300/6/5 1296/6/5 1299/6/5
f 1301/6/5 1298/6/5 1297/6/5
f 1302/6/5 1298/6/5 1301/6/5
f 1307/6/5 1304/6/5 1303/6/5
f 1308/6/5 1304/6/5 1307/6/5
f 1309/6/5 1306/6/5 1305/6/5
f 1310/6/5 1306/6/5 1309/6/5
f 1315/6/5 1312/6/5 1311/6/5
f 1316/6/5 1312/6/5 1315/6/5
f 1317/6/5 1314/6/5 1313/6/5
f 1318/6/5 1314/6/5 1317/6/5
f 1321/6/5 1320/6/5 1319/6/5
f 1322/6/5 1320/6/5 1321/6/5
f 1327/6/5 1324/6/5 1323/6/5
f 1328/6/5 1324/6/5 1327/6/5
f 1329/6/5 1326/6/5 1325/6/5
f 1330/6/5 1326/6/5 1329/6/5
f 1331/2/6 1332/2/6 1335/2/6
f 1335/2/6 1332/2/6 1336/2/6
f 1333/2/6 1334/2/6 1337/2/6
f 1337/2/6 1334/2/6 1338/2/6
f 1339/2/6 1340/2/6 1343/2/6
f 1343/2/6 1340/2/6 1344/2/6
f 1341/2/6 1342/2/6 1345/2/6
f 1345/2/6 1342/2/6 1346/2/6
f 1347/5/6 1348/5/6 1352/5/6
f 1352/5/6 1348/5/6 1353/5/6
f 1349/5/6 1350/5/6 1356/5/6
f 1356/5/6 1350/5/6 1357/5/6
f 1351/5/6 1352/5/6 1359/5/6
f 1359/5/6 1352/5/6 1360/5/6
f 1353/5/6 1354/5/6 1361/5/6
f 1361/5/6 1354/5/6 1362/5/6
f 1355/5/6 1356/5/6 1363/5/6
f 1363/5/6 1356/5/6 1364/5/6
f 1357/5/6 1358/5/6 1365/5/6
f 1365/5/6 1358/5/6 1366/5/6
f 1360/5/6 1361/5/6 1367/5/6
f 1367/5/6 1361/5/6 1368/5/6
f 1364/5/6 1365/5/6 1369/5/6
f 1369/5/6 1365/5/6 1370/5/6
f 1371/5/6 1372/5/6 1375/5/6
f 1375/5/6 1372/5/6 1376/5/6
f 1373/5/6 1374/5/6 1377/5/6
f 1377/5/6 1374/5/6 1378/5/6
f 1379/4/6 1380/4/6 1383/4/6
f 1383/4/6 1380/4/6 1384/4/6
f 1381/4/6 1382/4/6 1385/4/6
f 1385/4/6 1382/4/6 1386/4/6
f 1387/4/6 1388/4/6 1392/4/6
f 1392/4/6 1388/4/6 1393/4/6
f 1389/4/6 1390/4/6 1394/4/6
f 1394/4/6 1390/4/6 1395/4/6
f 1391/4/6 1392/4/6 1397/4/6
f 1397/4/6 1392/4/6 1398/4/6
f 1395/4/6 1396/4/6 1399/4/6
f 1399/4/6 1396/4/6 1400/4/6
f 1401/4/6 1402/4/6 1405/4/6
f 1405/4/6 1402/4/6 1406/4/6
f 1403/4/6 1404/4/6 1411/4/6
f 1411/4/6 1404/4/6 1412/4/6
f 1407/4/6 1408/4/6 1413/4/6
f 1413/4/6 1408/4/6 1414/4/6
f 1409/4/6 1410/4/6 1415/4/6
f 1415/4/6 1410/4/6 1416/4/6
f 1417/4/6 1418/4/6 1422/4/6
f 1422/4/6 1418/4/6 1423/4/6
f 1418/3/6 1419/3/6 1424/3/6
f 1423/4/6 1418/4/6 1424/4/6
f 1419/4/6 1420/4/6 1425/4/6
f 1424/3/6 1419/3/6 1425/3/6
f 1425/4/6 1420/4/6 1426/4/6
f 1426/4/6 1420/4/6 1427/4/6
f 1422/4/6 1423/4/6 1430/4/6
f 1421/4/6 1422/4/6 1430/4/6
f 1427/4/6 1428/4/6 1431/4/6
f 1426/4/6 1427/4/6 1431/4/6
f 1429/4/6 1430/4/6 1433/4/6
f 1430/4/6 1423/4/6 1434/4/6
f 1433/4/6 1430/4/6 1434/4/6
f 1423/3/6 1424/3/6 1435/3/6
f 1434/4/6 1423/4/6 1435/4/6
f 1424/3/6 1425/3/6 1435/3/6
f 1425/3/6 1426/3/6 1435/3/6
f 1431/4/6 1432/4/6 1436/4/6
f 1435/3/6 1426/3/6 1436/3/6
f 1426/4/6 1431/4/6 1436/4/6
f 1436/4/6 1432/4/6 1437/4/6
f 1437/4/6 1432/4/6 1438/4/6
f 1434/4/6 1435/4/6 1439/4/6
f 1436/4/6 1437/4/6 1439/4/6
f 1435/4/6 1436/4/6 1439/4/6
f 1439/4/6 1437/4/6 1440/4/6
f 1440/4/6 1437/4/6 1441/4/6
f 1441/4/6 1437/4/6 1442/4/6
f 1440/4/6 1441/4/6 1443/4/6
f 1443/4/6 1441/4/6 1444/4/6
f 1445/6/6 1446/6/6 1449/6/6
f 1449/6/6 1446/6/6 1450/6/6
f 1447/6/6 1448/6/6 1451/6/6
f 1451/6/6 1448/6/6 1452/6/6
f 1453/6/6 1454/6/6 1456/6/6
f 1456/6/6 1454/6/6 1457/6/6
f 1455/6/6 1456/6/6 1460/6/6
f 1460/6/6 1456/6/6 1461/6/6
f 1457/6/6 1458/6/6 1462/6/6
f 1462/6/6 1458/6/6 1463/6/6
f 1459/6/6 1460/6/6 1466/6/6
f 1463/6/6 1464/6/6 1467/6/6
f 1465/6/6 1466/6/6 1469/6/6
f 1466/6/6 1460/6/6 1469/6/6
f 1469/6/6 1460/6/6 1470/6/6
f 1467/6/6 1468/6/6 1471/6/6
f 1463/6/6 1467/6/6 1471/6/6
f 1471/6/6 1468/6/6 1472/6/6
f 1465/6/6 1469/6/6 1473/6/6
f 1473/6/6 1469/6/6 1474/6/6
f 1472/6/6 1468/6/6 1475/6/6
f 1475/6/6 1468/6/6 1476/6/6
f 1477/6/6 1478/6/6 1481/6/6
f 1481/6/6 1478/6/6 1482/6/6
f 1479/6/6 1480/6/6 1485/6/6
f 1485/6/6 1480/6/6 1486/6/6
f 1483/6/6 1484/6/6 1487/6/6
f 1487/6/6 1484/6/6 1488/6/6
f 1489/6/6 1490/6/6 1492/6/6
f 1492/6/6 1490/6/6 1493/6/6
f 1493/6/6 1490/6/6 1494/6/6
f 1494/6/6 1490/6/6 1495/6/6
f 1491/6/6 1492/6/6 1497/6/6
f 1492/6/6 1493/6/6 1497/6/6
f 1497/6/6 1493/6/6 1498/6/6
f 1495/6/6 1496/6/6 1499/6/6
f 1494/6/6 1495/6/6 1499/6/6
f 1499/6/6 1496/6/6 1500/6/6
f 1491/6/6 1497/6/6 1502/6/6
f 1502/6/6 1497/6/6 1503/6/6
f 1500/6/6 1496/6/6 1504/6/6
f 1504/6/6 1496/6/6 1505/6/6
f 1501/6/6 1502/6/6 1507/6/6
f 1505/6/6 1506/6/6 1510/6/6
f 1507/6/6 1508/6/6 1511/6/6
f 1501/6/6 1507/6/6 1511/6/6
f 1511/6/6 1508/6/6 1512/6/6
f 1509/6/6 1510/6/6 1515/6/6
f 1510/6/6 1506/6/6 1516/6/6
f 1515/6/6 1510/6/6 1516/6/6
f 1512/6/6 1513/6/6 1517/6/6
f 1517/6/6 1513/6/6 1518/6/6
f 1514/6/6 1515/6/6 1519/6/6
f 1519/6/6 1515/6/6 1520/6/6
f 1521/6/6 1522/6/6 1524/6/6
f 1524/6/6 1522/6/6 1525/6/6
f 1525/6/6 1522/6/6 1526/6/6
f 1526/6/6 1522/6/6 1527/6/6
f 1523/6/6 1524/6/6 1530/6/6
f 1524/6/6 1525/6/6 1530/6/6
f 1526/6/6 1527/6/6 1531/6/6
f 1527/6/6 1528/6/6 1531/6/6
f 1529/6/6 1530/6/6 1533/6/6
f 1530/6/6 1525/6/6 1533/6/6
f 1533/6/6 1525/6/6 1534/6/6
f 1531/6/6 1532/6/6 1535/6/6
f 1526/6/6 1531/6/6 1535/6/6
f 1535/6/6 1532/6/6 1536/6/6
f 1529/6/6 1533/6/6 1537/6/6
f 1537/6/6 1533/6/6 1538/6/6
f 1536/6/6 1532/6/6 1539/6/6
f 1539/6/6 1532/6/6 1540/6/6
f 1529/6/6 1537/6/6 1541/6/6
f 1540/6/6 1532/6/6 1544/6/6
f 1541/6/6 1542/6/6 1545/6/6
f 1529/6/6 1541/6/6 1545/6/6
f 1545/6/6 1542/6/6 1546/6/6
f 1546/6/6 1542/6/6 1547/6/6
f 1543/6/6 1544/6/6 1550/6/6
f 1544/6/6 1532/6/6 1551/6/6
f 1550/6/6 1544/6/6 1551/6/6
f 1551/6/6 1532/6/6 1552/6/6
f 1547/6/6 1548/6/6 1553/6/6
f 1546/6/6 1547/6/6 1553/6/6
f 1553/6/6 1548/6/6 1554/6/6
f 1549/6/6 1550/6/6 1555/6/6
f 1550/6/6 1551/6/6 1555/6/6
f 1555/6/6 1551/6/6 1556/6/6
f 1554/6/6 1555/6/6 1557/6/6
f 1557/6/6 1555/6/6 1558/6/6
f 1559/6/6 1560/6/6 1562/6/6
f 1562/6/6 1560/6/6 1563/6/6
f 1561/6/6 1562/6/6 1566/6/6
f 1563/6/6 1564/6/6 1566/6/6
f 1562/6/6 1563/6/6 1566/6/6
f 1566/6/6 1564/6/6 1567/6/6
f 1565/6/6 1566/6/6 1569/6/6
f 1567/6/6 1568/6/6 1569/6/6
f 1566/6/6 1567/6/6 1569/6/6
f 1569/6/6 1568/6/6 1570/6/6
f 1570/6/6 1568/6/6 1571/6/6
f 1571/6/6 1568/6/6 1572/6/6
f 1570/6/6 1571/6/6 1573/6/6
f 1573/6/6 1571/6/6 1574/6/6
f 1574/6/6 1571/6/6 1575/6/6
f 1575/6/6 1571/6/6 1576/6/6
f 1574/6/6 1575/6/6 1577/6/6
f 1577/6/6 1575/6/6 1578/6/6
