# MagicaVoxel @ Ephtracy

# group
o 

# material
mtllib bee.mtl
usemtl palette

# normals
vn -1 0 0
vn 1 0 0
vn 0 0 1
vn 0 0 -1
vn 0 -1 0
vn 0 1 0

# texcoords
vt 0.0175781 0.5
vt 0.0214844 0.5
vt 0.283203 0.5
vt 0.994141 0.5

# verts
v -1.3 2.3 -1
v -1.3 2.3 -1.3
v -1.3 2.4 -1
v -1.3 2.4 -1.3
v -1.2 2.3 -0.6
v -1.2 2.3 -1
v -1.2 2.3 -1.3
v -1.2 2.3 -1.5
v -1.2 2.4 -0.6
v -1.2 2.4 -1
v -1.2 2.4 -1.3
v -1.2 2.4 -1.5
v -1.1 2.3 -0.2
v -1.1 2.3 -0.6
v -1.1 2.3 -1.5
v -1.1 2.3 -1.6
v -1.1 2.4 -0.2
v -1.1 2.4 -0.6
v -1.1 2.4 -1.5
v -1.1 2.4 -1.6
v -1 2.3 0.2
v -1 2.3 -0.2
v -1 2.3 -0.8
v -1 2.3 -0.9
v -1 2.3 -1.6
v -1 2.3 -1.7
v -1 2.4 0.2
v -1 2.4 -0.2
v -1 2.4 -0.8
v -1 2.4 -0.9
v -1 2.4 -1.6
v -1 2.4 -1.7
v -0.9 2.3 0.3
v -0.9 2.3 0.2
v -0.9 2.3 -1.2
v -0.9 2.3 -1.6
v -0.9 2.4 0.3
v -0.9 2.4 0.2
v -0.9 2.4 -1.2
v -0.9 2.4 -1.6
v -0.8 2.3 0.4
v -0.8 2.3 0.3
v -0.8 2.3 -0.2
v -0.8 2.3 -0.3
v -0.8 2.3 -1.1
v -0.8 2.3 -1.2
v -0.8 2.4 0.4
v -0.8 2.4 0.3
v -0.8 2.4 -0.2
v -0.8 2.4 -0.3
v -0.8 2.4 -1.1
v -0.8 2.4 -1.2
v -0.7 1.3 1
v -0.7 1.3 0.7
v -0.7 1.3 0.5
v -0.7 1.3 -1.19209e-07
v -0.7 1.3 -0.2
v -0.7 1.3 -0.7
v -0.7 1.3 -0.9
v -0.7 1.4 1.1
v -0.7 1.4 1
v -0.7 2 1.1
v -0.7 2 1
v -0.7 2.1 1
v -0.7 2.1 0.7
v -0.7 2.1 0.5
v -0.7 2.1 -1.19209e-07
v -0.7 2.1 -0.2
v -0.7 2.1 -0.7
v -0.7 2.1 -0.9
v -0.7 2.3 0.5
v -0.7 2.3 0.4
v -0.7 2.3 -0.1
v -0.7 2.3 -0.2
v -0.7 2.3 -0.3
v -0.7 2.3 -0.8
v -0.7 2.3 -1
v -0.7 2.3 -1.1
v -0.7 2.4 0.5
v -0.7 2.4 0.4
v -0.7 2.4 -0.1
v -0.7 2.4 -0.2
v -0.7 2.4 -0.3
v -0.7 2.4 -0.8
v -0.7 2.4 -1
v -0.7 2.4 -1.1
v -0.6 1.2 1
v -0.6 1.2 0.7
v -0.6 1.2 0.5
v -0.6 1.2 -1.19209e-07
v -0.6 1.2 -0.2
v -0.6 1.2 -0.7
v -0.6 1.2 -0.9
v -0.6 1.3 1.1
v -0.6 1.3 1
v -0.6 1.3 0.7
v -0.6 1.3 0.5
v -0.6 1.3 -1.19209e-07
v -0.6 1.3 -0.2
v -0.6 1.3 -0.7
v -0.6 1.3 -0.9
v -0.6 1.4 1.2
v -0.6 1.4 1.1
v -0.6 1.4 1
v -0.6 2 1.2
v -0.6 2 1.1
v -0.6 2 1
v -0.6 2.1 1.1
v -0.6 2.1 1
v -0.6 2.1 0.7
v -0.6 2.1 0.5
v -0.6 2.1 -1.19209e-07
v -0.6 2.1 -0.2
v -0.6 2.1 -0.7
v -0.6 2.1 -0.9
v -0.6 2.2 1
v -0.6 2.2 0.7
v -0.6 2.2 0.5
v -0.6 2.2 -1.19209e-07
v -0.6 2.2 -0.2
v -0.6 2.2 -0.7
v -0.6 2.2 -0.9
v -0.6 2.3 0.2
v -0.6 2.3 -0.1
v -0.6 2.3 -0.8
v -0.6 2.3 -1
v -0.6 2.3 -1.5
v -0.6 2.3 -1.6
v -0.6 2.4 0.2
v -0.6 2.4 -0.1
v -0.6 2.4 -0.8
v -0.6 2.4 -1
v -0.6 2.4 -1.5
v -0.6 2.4 -1.6
v -0.5 1.1 1
v -0.5 1.1 0.7
v -0.5 1.1 0.5
v -0.5 1.1 -1.19209e-07
v -0.5 1.1 -0.2
v -0.5 1.1 -0.7
v -0.5 1.1 -0.9
v -0.5 1.2 1.1
v -0.5 1.2 1
v -0.5 1.2 0.7
v -0.5 1.2 0.5
v -0.5 1.2 -1.19209e-07
v -0.5 1.2 -0.2
v -0.5 1.2 -0.7
v -0.5 1.2 -0.9
v -0.5 1.3 1.2
v -0.5 1.3 1.1
v -0.5 1.3 1
v -0.5 1.3 -0.9
v -0.5 1.3 -1
v -0.5 1.4 1.2
v -0.5 1.4 1.1
v -0.5 2 1.2
v -0.5 2 1.1
v -0.5 2.1 1.2
v -0.5 2.1 1.1
v -0.5 2.1 1
v -0.5 2.1 -0.9
v -0.5 2.1 -1
v -0.5 2.2 1.1
v -0.5 2.2 1
v -0.5 2.2 0.7
v -0.5 2.2 0.5
v -0.5 2.2 -1.19209e-07
v -0.5 2.2 -0.2
v -0.5 2.2 -0.7
v -0.5 2.2 -0.9
v -0.5 2.3 1
v -0.5 2.3 0.7
v -0.5 2.3 0.6
v -0.5 2.3 0.5
v -0.5 2.3 0.4
v -0.5 2.3 0.2
v -0.5 2.3 -1.19209e-07
v -0.5 2.3 -0.1
v -0.5 2.3 -0.2
v -0.5 2.3 -0.7
v -0.5 2.3 -0.8
v -0.5 2.3 -0.9
v -0.5 2.3 -1
v -0.5 2.3 -1.1
v -0.5 2.3 -1.4
v -0.5 2.3 -1.5
v -0.5 2.4 0.6
v -0.5 2.4 0.5
v -0.5 2.4 0.4
v -0.5 2.4 0.2
v -0.5 2.4 -1
v -0.5 2.4 -1.1
v -0.5 2.4 -1.4
v -0.5 2.4 -1.5
v -0.4 0.9 0.7
v -0.4 0.9 0.5
v -0.4 0.9 -1.19209e-07
v -0.4 0.9 -0.2
v -0.4 0.9 -0.7
v -0.4 0.9 -0.9
v -0.4 1 0.8
v -0.4 1 0.7
v -0.4 1 0.5
v -0.4 1 0.0999999
v -0.4 1 -1.19209e-07
v -0.4 1 -0.2
v -0.4 1 -0.6
v -0.4 1 -0.7
v -0.4 1 -0.9
v -0.4 1.1 1.1
v -0.4 1.1 1
v -0.4 1.1 0.8
v -0.4 1.1 0.7
v -0.4 1.1 0.0999999
v -0.4 1.1 -1.19209e-07
v -0.4 1.1 -0.6
v -0.4 1.1 -0.7
v -0.4 1.2 1.2
v -0.4 1.2 1.1
v -0.4 1.2 1
v -0.4 1.3 1.2
v -0.4 1.3 1.1
v -0.4 1.4 -1
v -0.4 1.4 -1.1
v -0.4 2 -1
v -0.4 2 -1.1
v -0.4 2.1 1.2
v -0.4 2.1 1.1
v -0.4 2.2 1.2
v -0.4 2.2 1.1
v -0.4 2.2 1
v -0.4 2.3 1.1
v -0.4 2.3 1
v -0.4 2.3 0.5
v -0.4 2.3 0.4
v -0.4 2.3 -1.2
v -0.4 2.3 -1.4
v -0.4 2.4 0.5
v -0.4 2.4 0.4
v -0.4 2.4 -1.2
v -0.4 2.4 -1.4
v -0.3 2.3 1
v -0.3 2.3 0.9
v -0.3 2.3 0.4
v -0.3 2.3 -1.19209e-07
v -0.3 2.3 -0.2
v -0.3 2.3 -0.3
v -0.3 2.3 -0.9
v -0.3 2.3 -1
v -0.3 2.3 -1.1
v -0.3 2.3 -1.2
v -0.3 2.4 0.4
v -0.3 2.4 -0.3
v -0.3 2.4 -0.9
v -0.3 2.4 -1
v -0.3 2.4 -1.1
v -0.3 2.4 -1.2
v -0.3 2.5 1.1
v -0.3 2.5 1
v -0.3 2.5 0.9
v -0.3 2.6 1.1
v -0.3 2.6 1
v -0.2 2.3 -0.3
v -0.2 2.3 -0.7
v -0.2 2.3 -0.9
v -0.2 2.4 -0.3
v -0.2 2.4 -0.9
v 0.1 2.3 -0.3
v 0.1 2.3 -0.7
v 0.1 2.3 -0.9
v 0.1 2.4 -0.3
v 0.1 2.4 -0.9
v 0.2 0.9 0.7
v 0.2 0.9 0.5
v 0.2 0.9 -1.19209e-07
v 0.2 0.9 -0.2
v 0.2 0.9 -0.7
v 0.2 0.9 -0.9
v 0.2 1 0.8
v 0.2 1 0.7
v 0.2 1 0.5
v 0.2 1 0.0999999
v 0.2 1 -1.19209e-07
v 0.2 1 -0.2
v 0.2 1 -0.6
v 0.2 1 -0.7
v 0.2 1 -0.9
v 0.2 1.1 0.8
v 0.2 1.1 0.7
v 0.2 1.1 0.0999999
v 0.2 1.1 -1.19209e-07
v 0.2 1.1 -0.6
v 0.2 1.1 -0.7
v 0.2 2.3 1
v 0.2 2.3 0.9
v 0.2 2.3 0.5
v 0.2 2.3 -1.19209e-07
v 0.2 2.3 -0.2
v 0.2 2.3 -0.3
v 0.2 2.3 -0.9
v 0.2 2.3 -1.2
v 0.2 2.4 0.5
v 0.2 2.4 -0.3
v 0.2 2.4 -0.9
v 0.2 2.4 -1.2
v 0.2 2.5 1.1
v 0.2 2.5 1
v 0.2 2.5 0.9
v 0.2 2.6 1.1
v 0.2 2.6 1
v 0.3 2.3 0.6
v 0.3 2.3 0.5
v 0.3 2.3 -1.2
v 0.3 2.3 -1.4
v 0.3 2.4 0.6
v 0.3 2.4 0.5
v 0.3 2.4 -1.2
v 0.3 2.4 -1.4
v 0.4 2.3 0.4
v 0.4 2.3 0.2
v 0.4 2.3 -1.4
v 0.4 2.3 -1.5
v 0.4 2.4 0.4
v 0.4 2.4 0.2
v 0.4 2.4 -1.4
v 0.4 2.4 -1.5
v 0.5 2.3 0.5
v 0.5 2.3 0.4
v 0.5 2.3 0.2
v 0.5 2.3 -1.19209e-07
v 0.5 2.3 -0.1
v 0.5 2.3 -0.8
v 0.5 2.3 -0.9
v 0.5 2.3 -1
v 0.5 2.3 -1.5
v 0.5 2.3 -1.6
v 0.5 2.4 0.5
v 0.5 2.4 0.4
v 0.5 2.4 0.2
v 0.5 2.4 -0.1
v 0.5 2.4 -0.8
v 0.5 2.4 -1
v 0.5 2.4 -1.5
v 0.5 2.4 -1.6
v 0.6 2.3 -0.1
v 0.6 2.3 -0.8
v 0.6 2.3 -1
v 0.6 2.3 -1.1
v 0.6 2.3 -1.6
v 0.6 2.3 -1.7
v 0.6 2.4 -0.1
v 0.6 2.4 -0.8
v 0.6 2.4 -1
v 0.6 2.4 -1.1
v 0.6 2.4 -1.6
v 0.6 2.4 -1.7
v 0.7 2.3 0.4
v 0.7 2.3 0.3
v 0.7 2.3 -0.8
v 0.7 2.3 -0.9
v 0.7 2.3 -1.1
v 0.7 2.3 -1.2
v 0.7 2.4 0.4
v 0.7 2.4 0.3
v 0.7 2.4 -0.8
v 0.7 2.4 -0.9
v 0.7 2.4 -1.1
v 0.7 2.4 -1.2
v 0.8 2.3 0.3
v 0.8 2.3 0.2
v 0.8 2.3 -0.3
v 0.8 2.3 -0.4
v 0.8 2.3 -1.2
v 0.8 2.3 -1.6
v 0.8 2.4 0.3
v 0.8 2.4 0.2
v 0.8 2.4 -0.3
v 0.8 2.4 -0.4
v 0.8 2.4 -1.2
v 0.8 2.4 -1.6
v 0.9 2.3 0.2
v 0.9 2.3 -0.2
v 0.9 2.4 0.2
v 0.9 2.4 -0.2
v 1 2.3 -0.2
v 1 2.3 -0.3
v 1 2.3 -0.4
v 1 2.3 -0.6
v 1 2.3 -0.9
v 1 2.3 -1
v 1 2.3 -1.5
v 1 2.3 -1.6
v 1 2.4 -0.2
v 1 2.4 -0.3
v 1 2.4 -0.4
v 1 2.4 -0.6
v 1 2.4 -0.9
v 1 2.4 -1
v 1 2.4 -1.5
v 1 2.4 -1.6
v 1.1 2.3 -0.6
v 1.1 2.3 -0.9
v 1.1 2.3 -1.3
v 1.1 2.3 -1.5
v 1.1 2.4 -0.6
v 1.1 2.4 -0.9
v 1.1 2.4 -1.3
v 1.1 2.4 -1.5
v 1.2 2.3 -1
v 1.2 2.3 -1.3
v 1.2 2.4 -1
v 1.2 2.4 -1.3
v -1.2 2.3 -1
v -1.2 2.3 -1.3
v -1.2 2.4 -1
v -1.2 2.4 -1.3
v -1.1 2.3 -0.6
v -1.1 2.3 -0.9
v -1.1 2.3 -1.3
v -1.1 2.3 -1.5
v -1.1 2.4 -0.6
v -1.1 2.4 -0.9
v -1.1 2.4 -1.3
v -1.1 2.4 -1.5
v -1 2.3 -0.2
v -1 2.3 -0.3
v -1 2.3 -0.4
v -1 2.3 -0.6
v -1 2.3 -0.9
v -1 2.3 -1
v -1 2.3 -1.5
v -1 2.3 -1.6
v -1 2.4 -0.2
v -1 2.4 -0.3
v -1 2.4 -0.4
v -1 2.4 -0.6
v -1 2.4 -0.9
v -1 2.4 -1
v -1 2.4 -1.5
v -1 2.4 -1.6
v -0.9 2.3 0.2
v -0.9 2.3 -0.2
v -0.9 2.4 0.2
v -0.9 2.4 -0.2
v -0.8 2.3 0.3
v -0.8 2.3 0.2
v -0.8 2.3 -0.3
v -0.8 2.3 -0.4
v -0.8 2.3 -1.2
v -0.8 2.3 -1.6
v -0.8 2.4 0.3
v -0.8 2.4 0.2
v -0.8 2.4 -0.3
v -0.8 2.4 -0.4
v -0.8 2.4 -1.2
v -0.8 2.4 -1.6
v -0.7 2.3 0.4
v -0.7 2.3 0.3
v -0.7 2.3 -0.8
v -0.7 2.3 -0.9
v -0.7 2.3 -1.1
v -0.7 2.3 -1.2
v -0.7 2.4 0.4
v -0.7 2.4 0.3
v -0.7 2.4 -0.8
v -0.7 2.4 -0.9
v -0.7 2.4 -1.1
v -0.7 2.4 -1.2
v -0.6 2.3 -0.1
v -0.6 2.3 -0.8
v -0.6 2.3 -1
v -0.6 2.3 -1.1
v -0.6 2.3 -1.6
v -0.6 2.3 -1.7
v -0.6 2.4 -0.1
v -0.6 2.4 -0.8
v -0.6 2.4 -1
v -0.6 2.4 -1.1
v -0.6 2.4 -1.6
v -0.6 2.4 -1.7
v -0.5 2.3 0.5
v -0.5 2.3 0.4
v -0.5 2.3 0.2
v -0.5 2.3 -1.19209e-07
v -0.5 2.3 -0.1
v -0.5 2.3 -0.8
v -0.5 2.3 -0.9
v -0.5 2.3 -1
v -0.5 2.3 -1.5
v -0.5 2.3 -1.6
v -0.5 2.4 0.5
v -0.5 2.4 0.4
v -0.5 2.4 0.2
v -0.5 2.4 -0.1
v -0.5 2.4 -0.8
v -0.5 2.4 -1
v -0.5 2.4 -1.5
v -0.5 2.4 -1.6
v -0.4 2.3 0.4
v -0.4 2.3 0.2
v -0.4 2.3 -1.4
v -0.4 2.3 -1.5
v -0.4 2.4 0.4
v -0.4 2.4 0.2
v -0.4 2.4 -1.4
v -0.4 2.4 -1.5
v -0.3 2.3 0.6
v -0.3 2.3 0.5
v -0.3 2.3 -1.2
v -0.3 2.3 -1.4
v -0.3 2.4 0.6
v -0.3 2.4 0.5
v -0.3 2.4 -1.2
v -0.3 2.4 -1.4
v -0.2 0.9 0.7
v -0.2 0.9 0.5
v -0.2 0.9 -1.19209e-07
v -0.2 0.9 -0.2
v -0.2 0.9 -0.7
v -0.2 0.9 -0.9
v -0.2 1 0.8
v -0.2 1 0.7
v -0.2 1 0.5
v -0.2 1 0.0999999
v -0.2 1 -1.19209e-07
v -0.2 1 -0.2
v -0.2 1 -0.6
v -0.2 1 -0.7
v -0.2 1 -0.9
v -0.2 1.1 0.8
v -0.2 1.1 0.7
v -0.2 1.1 0.0999999
v -0.2 1.1 -1.19209e-07
v -0.2 1.1 -0.6
v -0.2 1.1 -0.7
v -0.2 2.3 1
v -0.2 2.3 0.9
v -0.2 2.3 0.5
v -0.2 2.3 -1.19209e-07
v -0.2 2.3 -0.2
v -0.2 2.3 -0.3
v -0.2 2.3 -0.9
v -0.2 2.3 -1.2
v -0.2 2.4 0.5
v -0.2 2.4 -0.3
v -0.2 2.4 -0.9
v -0.2 2.4 -1.2
v -0.2 2.5 1.1
v -0.2 2.5 1
v -0.2 2.5 0.9
v -0.2 2.6 1.1
v -0.2 2.6 1
v -0.0999999 2.3 -0.3
v -0.0999999 2.3 -0.7
v -0.0999999 2.3 -0.9
v -0.0999999 2.4 -0.3
v -0.0999999 2.4 -0.9
v 0.2 2.3 -0.3
v 0.2 2.3 -0.7
v 0.2 2.3 -0.9
v 0.2 2.4 -0.3
v 0.2 2.4 -0.9
v 0.3 2.3 1
v 0.3 2.3 0.9
v 0.3 2.3 0.4
v 0.3 2.3 -1.19209e-07
v 0.3 2.3 -0.2
v 0.3 2.3 -0.3
v 0.3 2.3 -0.9
v 0.3 2.3 -1
v 0.3 2.3 -1.1
v 0.3 2.3 -1.2
v 0.3 2.4 0.4
v 0.3 2.4 -0.3
v 0.3 2.4 -0.9
v 0.3 2.4 -1
v 0.3 2.4 -1.1
v 0.3 2.4 -1.2
v 0.3 2.5 1.1
v 0.3 2.5 1
v 0.3 2.5 0.9
v 0.3 2.6 1.1
v 0.3 2.6 1
v 0.4 0.9 0.7
v 0.4 0.9 0.5
v 0.4 0.9 -1.19209e-07
v 0.4 0.9 -0.2
v 0.4 0.9 -0.7
v 0.4 0.9 -0.9
v 0.4 1 0.8
v 0.4 1 0.7
v 0.4 1 0.5
v 0.4 1 0.0999999
v 0.4 1 -1.19209e-07
v 0.4 1 -0.2
v 0.4 1 -0.6
v 0.4 1 -0.7
v 0.4 1 -0.9
v 0.4 1.1 1.1
v 0.4 1.1 1
v 0.4 1.1 0.8
v 0.4 1.1 0.7
v 0.4 1.1 0.0999999
v 0.4 1.1 -1.19209e-07
v 0.4 1.1 -0.6
v 0.4 1.1 -0.7
v 0.4 1.2 1.2
v 0.4 1.2 1.1
v 0.4 1.2 1
v 0.4 1.3 1.2
v 0.4 1.3 1.1
v 0.4 1.4 -1
v 0.4 1.4 -1.1
v 0.4 2 -1
v 0.4 2 -1.1
v 0.4 2.1 1.2
v 0.4 2.1 1.1
v 0.4 2.2 1.2
v 0.4 2.2 1.1
v 0.4 2.2 1
v 0.4 2.3 1.1
v 0.4 2.3 1
v 0.4 2.3 0.5
v 0.4 2.3 0.4
v 0.4 2.3 -1.2
v 0.4 2.3 -1.4
v 0.4 2.4 0.5
v 0.4 2.4 0.4
v 0.4 2.4 -1.2
v 0.4 2.4 -1.4
v 0.5 1.1 1
v 0.5 1.1 0.7
v 0.5 1.1 0.5
v 0.5 1.1 -1.19209e-07
v 0.5 1.1 -0.2
v 0.5 1.1 -0.7
v 0.5 1.1 -0.9
v 0.5 1.2 1.1
v 0.5 1.2 1
v 0.5 1.2 0.7
v 0.5 1.2 0.5
v 0.5 1.2 -1.19209e-07
v 0.5 1.2 -0.2
v 0.5 1.2 -0.7
v 0.5 1.2 -0.9
v 0.5 1.3 1.2
v 0.5 1.3 1.1
v 0.5 1.3 1
v 0.5 1.3 -0.9
v 0.5 1.3 -1
v 0.5 1.4 1.2
v 0.5 1.4 1.1
v 0.5 2 1.2
v 0.5 2 1.1
v 0.5 2.1 1.2
v 0.5 2.1 1.1
v 0.5 2.1 1
v 0.5 2.1 -0.9
v 0.5 2.1 -1
v 0.5 2.2 1.1
v 0.5 2.2 1
v 0.5 2.2 0.7
v 0.5 2.2 0.5
v 0.5 2.2 -1.19209e-07
v 0.5 2.2 -0.2
v 0.5 2.2 -0.7
v 0.5 2.2 -0.9
v 0.5 2.3 1
v 0.5 2.3 0.7
v 0.5 2.3 0.6
v 0.5 2.3 0.5
v 0.5 2.3 0.4
v 0.5 2.3 0.2
v 0.5 2.3 -1.19209e-07
v 0.5 2.3 -0.1
v 0.5 2.3 -0.2
v 0.5 2.3 -0.7
v 0.5 2.3 -0.8
v 0.5 2.3 -0.9
v 0.5 2.3 -1
v 0.5 2.3 -1.1
v 0.5 2.3 -1.4
v 0.5 2.3 -1.5
v 0.5 2.4 0.6
v 0.5 2.4 0.5
v 0.5 2.4 0.4
v 0.5 2.4 0.2
v 0.5 2.4 -1
v 0.5 2.4 -1.1
v 0.5 2.4 -1.4
v 0.5 2.4 -1.5
v 0.6 1.2 1
v 0.6 1.2 0.7
v 0.6 1.2 0.5
v 0.6 1.2 -1.19209e-07
v 0.6 1.2 -0.2
v 0.6 1.2 -0.7
v 0.6 1.2 -0.9
v 0.6 1.3 1.1
v 0.6 1.3 1
v 0.6 1.3 0.7
v 0.6 1.3 0.5
v 0.6 1.3 -1.19209e-07
v 0.6 1.3 -0.2
v 0.6 1.3 -0.7
v 0.6 1.3 -0.9
v 0.6 1.4 1.2
v 0.6 1.4 1.1
v 0.6 1.4 1
v 0.6 2 1.2
v 0.6 2 1.1
v 0.6 2 1
v 0.6 2.1 1.1
v 0.6 2.1 1
v 0.6 2.1 0.7
v 0.6 2.1 0.5
v 0.6 2.1 -1.19209e-07
v 0.6 2.1 -0.2
v 0.6 2.1 -0.7
v 0.6 2.1 -0.9
v 0.6 2.2 1
v 0.6 2.2 0.7
v 0.6 2.2 0.5
v 0.6 2.2 -1.19209e-07
v 0.6 2.2 -0.2
v 0.6 2.2 -0.7
v 0.6 2.2 -0.9
v 0.6 2.3 0.2
v 0.6 2.3 -0.1
v 0.6 2.3 -0.8
v 0.6 2.3 -1
v 0.6 2.3 -1.5
v 0.6 2.3 -1.6
v 0.6 2.4 0.2
v 0.6 2.4 -0.1
v 0.6 2.4 -0.8
v 0.6 2.4 -1
v 0.6 2.4 -1.5
v 0.6 2.4 -1.6
v 0.7 1.3 1
v 0.7 1.3 0.7
v 0.7 1.3 0.5
v 0.7 1.3 -1.19209e-07
v 0.7 1.3 -0.2
v 0.7 1.3 -0.7
v 0.7 1.3 -0.9
v 0.7 1.4 1.1
v 0.7 1.4 1
v 0.7 2 1.1
v 0.7 2 1
v 0.7 2.1 1
v 0.7 2.1 0.7
v 0.7 2.1 0.5
v 0.7 2.1 -1.19209e-07
v 0.7 2.1 -0.2
v 0.7 2.1 -0.7
v 0.7 2.1 -0.9
v 0.7 2.3 0.5
v 0.7 2.3 0.4
v 0.7 2.3 -0.1
v 0.7 2.3 -0.2
v 0.7 2.3 -0.3
v 0.7 2.3 -0.8
v 0.7 2.3 -1
v 0.7 2.3 -1.1
v 0.7 2.4 0.5
v 0.7 2.4 0.4
v 0.7 2.4 -0.1
v 0.7 2.4 -0.2
v 0.7 2.4 -0.3
v 0.7 2.4 -0.8
v 0.7 2.4 -1
v 0.7 2.4 -1.1
v 0.8 2.3 0.4
v 0.8 2.3 0.3
v 0.8 2.3 -0.2
v 0.8 2.3 -0.3
v 0.8 2.3 -1.1
v 0.8 2.3 -1.2
v 0.8 2.4 0.4
v 0.8 2.4 0.3
v 0.8 2.4 -0.2
v 0.8 2.4 -0.3
v 0.8 2.4 -1.1
v 0.8 2.4 -1.2
v 0.9 2.3 0.3
v 0.9 2.3 0.2
v 0.9 2.3 -1.2
v 0.9 2.3 -1.6
v 0.9 2.4 0.3
v 0.9 2.4 0.2
v 0.9 2.4 -1.2
v 0.9 2.4 -1.6
v 1 2.3 0.2
v 1 2.3 -0.2
v 1 2.3 -0.8
v 1 2.3 -0.9
v 1 2.3 -1.6
v 1 2.3 -1.7
v 1 2.4 0.2
v 1 2.4 -0.2
v 1 2.4 -0.8
v 1 2.4 -0.9
v 1 2.4 -1.6
v 1 2.4 -1.7
v 1.1 2.3 -0.2
v 1.1 2.3 -0.6
v 1.1 2.3 -1.5
v 1.1 2.3 -1.6
v 1.1 2.4 -0.2
v 1.1 2.4 -0.6
v 1.1 2.4 -1.5
v 1.1 2.4 -1.6
v 1.2 2.3 -0.6
v 1.2 2.3 -1
v 1.2 2.3 -1.3
v 1.2 2.3 -1.5
v 1.2 2.4 -0.6
v 1.2 2.4 -1
v 1.2 2.4 -1.3
v 1.2 2.4 -1.5
v 1.3 2.3 -1
v 1.3 2.3 -1.3
v 1.3 2.4 -1
v 1.3 2.4 -1.3
v -0.6 1.4 1.2
v -0.6 2 1.2
v -0.5 1.3 1.2
v -0.5 1.4 1.2
v -0.5 1.8 1.2
v -0.5 1.9 1.2
v -0.5 2 1.2
v -0.5 2.1 1.2
v -0.4 1.2 1.2
v -0.4 1.3 1.2
v -0.4 1.8 1.2
v -0.4 1.9 1.2
v -0.4 2 1.2
v -0.4 2.1 1.2
v -0.4 2.2 1.2
v -0.3 1.4 1.2
v -0.3 1.5 1.2
v -0.2 1.3 1.2
v -0.2 1.4 1.2
v -0.2 1.5 1.2
v -0.2 1.8 1.2
v -0.2 1.9 1.2
v -0.2 2 1.2
v -0.0999999 1.8 1.2
v -0.0999999 1.9 1.2
v 0.1 1.8 1.2
v 0.1 1.9 1.2
v 0.2 1.3 1.2
v 0.2 1.4 1.2
v 0.2 1.5 1.2
v 0.2 1.8 1.2
v 0.2 1.9 1.2
v 0.2 2 1.2
v 0.3 1.4 1.2
v 0.3 1.5 1.2
v 0.4 1.2 1.2
v 0.4 1.3 1.2
v 0.4 1.8 1.2
v 0.4 1.9 1.2
v 0.4 2 1.2
v 0.4 2.1 1.2
v 0.4 2.2 1.2
v 0.5 1.3 1.2
v 0.5 1.4 1.2
v 0.5 1.8 1.2
v 0.5 1.9 1.2
v 0.5 2 1.2
v 0.5 2.1 1.2
v 0.6 1.4 1.2
v 0.6 2 1.2
v -0.7 1.4 1.1
v -0.7 2 1.1
v -0.6 1.3 1.1
v -0.6 1.4 1.1
v -0.6 2 1.1
v -0.6 2.1 1.1
v -0.5 1.2 1.1
v -0.5 1.3 1.1
v -0.5 1.4 1.1
v -0.5 2 1.1
v -0.5 2.1 1.1
v -0.5 2.2 1.1
v -0.4 1.1 1.1
v -0.4 1.2 1.1
v -0.4 1.3 1.1
v -0.4 2.1 1.1
v -0.4 2.2 1.1
v -0.4 2.3 1.1
v -0.3 2.5 1.1
v -0.3 2.6 1.1
v -0.2 2.5 1.1
v -0.2 2.6 1.1
v 0.2 2.5 1.1
v 0.2 2.6 1.1
v 0.3 2.5 1.1
v 0.3 2.6 1.1
v 0.4 1.1 1.1
v 0.4 1.2 1.1
v 0.4 1.3 1.1
v 0.4 2.1 1.1
v 0.4 2.2 1.1
v 0.4 2.3 1.1
v 0.5 1.2 1.1
v 0.5 1.3 1.1
v 0.5 1.4 1.1
v 0.5 2 1.1
v 0.5 2.1 1.1
v 0.5 2.2 1.1
v 0.6 1.3 1.1
v 0.6 1.4 1.1
v 0.6 2 1.1
v 0.6 2.1 1.1
v 0.7 1.4 1.1
v 0.7 2 1.1
v -0.7 1.3 1
v -0.7 1.4 1
v -0.7 2 1
v -0.7 2.1 1
v -0.6 1.2 1
v -0.6 1.3 1
v -0.6 1.4 1
v -0.6 2 1
v -0.6 2.1 1
v -0.6 2.2 1
v -0.5 1.1 1
v -0.5 1.2 1
v -0.5 1.3 1
v -0.5 2.1 1
v -0.5 2.2 1
v -0.5 2.3 1
v -0.4 1.1 1
v -0.4 1.2 1
v -0.4 2.2 1
v -0.4 2.3 1
v -0.3 2.3 1
v -0.3 2.5 1
v -0.2 2.3 1
v -0.2 2.5 1
v 0.2 2.3 1
v 0.2 2.5 1
v 0.3 2.3 1
v 0.3 2.5 1
v 0.4 1.1 1
v 0.4 1.2 1
v 0.4 2.2 1
v 0.4 2.3 1
v 0.5 1.1 1
v 0.5 1.2 1
v 0.5 1.3 1
v 0.5 2.1 1
v 0.5 2.2 1
v 0.5 2.3 1
v 0.6 1.2 1
v 0.6 1.3 1
v 0.6 1.4 1
v 0.6 2 1
v 0.6 2.1 1
v 0.6 2.2 1
v 0.7 1.3 1
v 0.7 1.4 1
v 0.7 2 1
v 0.7 2.1 1
v -0.4 1 0.8
v -0.4 1.1 0.8
v -0.2 1 0.8
v -0.2 1.1 0.8
v 0.2 1 0.8
v 0.2 1.1 0.8
v 0.4 1 0.8
v 0.4 1.1 0.8
v -0.4 0.9 0.7
v -0.4 1 0.7
v -0.2 0.9 0.7
v -0.2 1 0.7
v 0.2 0.9 0.7
v 0.2 1 0.7
v 0.4 0.9 0.7
v 0.4 1 0.7
v -0.5 2.3 0.6
v -0.5 2.4 0.6
v -0.3 2.3 0.6
v -0.3 2.4 0.6
v 0.3 2.3 0.6
v 0.3 2.4 0.6
v 0.5 2.3 0.6
v 0.5 2.4 0.6
v -0.7 2.3 0.5
v -0.7 2.4 0.5
v -0.5 2.3 0.5
v -0.5 2.4 0.5
v -0.3 2.3 0.5
v -0.3 2.4 0.5
v -0.2 2.3 0.5
v -0.2 2.4 0.5
v 0.2 2.3 0.5
v 0.2 2.4 0.5
v 0.3 2.3 0.5
v 0.3 2.4 0.5
v 0.5 2.3 0.5
v 0.5 2.4 0.5
v 0.7 2.3 0.5
v 0.7 2.4 0.5
v -0.8 2.3 0.4
v -0.8 2.4 0.4
v -0.7 2.3 0.4
v -0.7 2.4 0.4
v -0.5 2.3 0.4
v -0.5 2.4 0.4
v -0.4 2.3 0.4
v -0.4 2.4 0.4
v 0.4 2.3 0.4
v 0.4 2.4 0.4
v 0.5 2.3 0.4
v 0.5 2.4 0.4
v 0.7 2.3 0.4
v 0.7 2.4 0.4
v 0.8 2.3 0.4
v 0.8 2.4 0.4
v -0.9 2.3 0.3
v -0.9 2.4 0.3
v -0.8 2.3 0.3
v -0.8 2.4 0.3
v 0.8 2.3 0.3
v 0.8 2.4 0.3
v 0.9 2.3 0.3
v 0.9 2.4 0.3
v -1 2.3 0.2
v -1 2.4 0.2
v -0.9 2.3 0.2
v -0.9 2.4 0.2
v -0.6 2.3 0.2
v -0.6 2.4 0.2
v -0.5 2.3 0.2
v -0.5 2.4 0.2
v 0.5 2.3 0.2
v 0.5 2.4 0.2
v 0.6 2.3 0.2
v 0.6 2.4 0.2
v 0.9 2.3 0.2
v 0.9 2.4 0.2
v 1 2.3 0.2
v 1 2.4 0.2
v -0.4 1 0.0999999
v -0.4 1.1 0.0999999
v -0.2 1 0.0999999
v -0.2 1.1 0.0999999
v 0.2 1 0.0999999
v 0.2 1.1 0.0999999
v 0.4 1 0.0999999
v 0.4 1.1 0.0999999
v -0.4 0.9 -1.19209e-07
v -0.4 1 -1.19209e-07
v -0.2 0.9 -1.19209e-07
v -0.2 1 -1.19209e-07
v 0.2 0.9 -1.19209e-07
v 0.2 1 -1.19209e-07
v 0.4 0.9 -1.19209e-07
v 0.4 1 -1.19209e-07
v -0.7 2.3 -0.1
v -0.7 2.4 -0.1
v -0.6 2.3 -0.1
v -0.6 2.4 -0.1
v 0.6 2.3 -0.1
v 0.6 2.4 -0.1
v 0.7 2.3 -0.1
v 0.7 2.4 -0.1
v -1.1 2.3 -0.2
v -1.1 2.4 -0.2
v -1 2.3 -0.2
v -1 2.4 -0.2
v -0.8 2.3 -0.2
v -0.8 2.4 -0.2
v -0.7 2.3 -0.2
v -0.7 2.4 -0.2
v 0.7 2.3 -0.2
v 0.7 2.4 -0.2
v 0.8 2.3 -0.2
v 0.8 2.4 -0.2
v 1 2.3 -0.2
v 1 2.4 -0.2
v 1.1 2.3 -0.2
v 1.1 2.4 -0.2
v -1 2.3 -0.3
v -1 2.4 -0.3
v -0.8 2.3 -0.3
v -0.8 2.4 -0.3
v -0.2 2.3 -0.3
v -0.2 2.4 -0.3
v -0.0999999 2.3 -0.3
v -0.0999999 2.4 -0.3
v 0.1 2.3 -0.3
v 0.1 2.4 -0.3
v 0.2 2.3 -0.3
v 0.2 2.4 -0.3
v 0.8 2.3 -0.3
v 0.8 2.4 -0.3
v 1 2.3 -0.3
v 1 2.4 -0.3
v -1.2 2.3 -0.6
v -1.2 2.4 -0.6
v -1.1 2.3 -0.6
v -1.1 2.4 -0.6
v -0.4 1 -0.6
v -0.4 1.1 -0.6
v -0.2 1 -0.6
v -0.2 1.1 -0.6
v 0.2 1 -0.6
v 0.2 1.1 -0.6
v 0.4 1 -0.6
v 0.4 1.1 -0.6
v 1.1 2.3 -0.6
v 1.1 2.4 -0.6
v 1.2 2.3 -0.6
v 1.2 2.4 -0.6
v -0.4 0.9 -0.7
v -0.4 1 -0.7
v -0.2 0.9 -0.7
v -0.2 1 -0.7
v 0.2 0.9 -0.7
v 0.2 1 -0.7
v 0.4 0.9 -0.7
v 0.4 1 -0.7
v -1 2.3 -0.8
v -1 2.4 -0.8
v -0.7 2.3 -0.8
v -0.7 2.4 -0.8
v -0.6 2.3 -0.8
v -0.6 2.4 -0.8
v -0.5 2.3 -0.8
v -0.5 2.4 -0.8
v 0.5 2.3 -0.8
v 0.5 2.4 -0.8
v 0.6 2.3 -0.8
v 0.6 2.4 -0.8
v 0.7 2.3 -0.8
v 0.7 2.4 -0.8
v 1 2.3 -0.8
v 1 2.4 -0.8
v -1.1 2.3 -0.9
v -1.1 2.4 -0.9
v -1 2.3 -0.9
v -1 2.4 -0.9
v -0.3 2.3 -0.9
v -0.3 2.4 -0.9
v -0.2 2.3 -0.9
v -0.2 2.4 -0.9
v 0.2 2.3 -0.9
v 0.2 2.4 -0.9
v 0.3 2.3 -0.9
v 0.3 2.4 -0.9
v 1 2.3 -0.9
v 1 2.4 -0.9
v 1.1 2.3 -0.9
v 1.1 2.4 -0.9
v -1.3 2.3 -1
v -1.3 2.4 -1
v -1.2 2.3 -1
v -1.2 2.4 -1
v -0.7 2.3 -1
v -0.7 2.4 -1
v -0.6 2.3 -1
v -0.6 2.4 -1
v -0.5 2.3 -1
v -0.5 2.4 -1
v -0.3 2.3 -1
v -0.3 2.4 -1
v 0.3 2.3 -1
v 0.3 2.4 -1
v 0.5 2.3 -1
v 0.5 2.4 -1
v 0.6 2.3 -1
v 0.6 2.4 -1
v 0.7 2.3 -1
v 0.7 2.4 -1
v 1.2 2.3 -1
v 1.2 2.4 -1
v 1.3 2.3 -1
v 1.3 2.4 -1
v -0.8 2.3 -1.1
v -0.8 2.4 -1.1
v -0.7 2.3 -1.1
v -0.7 2.4 -1.1
v 0.7 2.3 -1.1
v 0.7 2.4 -1.1
v 0.8 2.3 -1.1
v 0.8 2.4 -1.1
v -0.9 2.3 -1.2
v -0.9 2.4 -1.2
v -0.8 2.3 -1.2
v -0.8 2.4 -1.2
v -0.4 2.3 -1.2
v -0.4 2.4 -1.2
v -0.3 2.3 -1.2
v -0.3 2.4 -1.2
v 0.3 2.3 -1.2
v 0.3 2.4 -1.2
v 0.4 2.3 -1.2
v 0.4 2.4 -1.2
v 0.8 2.3 -1.2
v 0.8 2.4 -1.2
v 0.9 2.3 -1.2
v 0.9 2.4 -1.2
v -1.2 2.3 -1.3
v -1.2 2.4 -1.3
v -1.1 2.3 -1.3
v -1.1 2.4 -1.3
v 1.1 2.3 -1.3
v 1.1 2.4 -1.3
v 1.2 2.3 -1.3
v 1.2 2.4 -1.3
v -0.5 2.3 -1.4
v -0.5 2.4 -1.4
v -0.4 2.3 -1.4
v -0.4 2.4 -1.4
v 0.4 2.3 -1.4
v 0.4 2.4 -1.4
v 0.5 2.3 -1.4
v 0.5 2.4 -1.4
v -1.1 2.3 -1.5
v -1.1 2.4 -1.5
v -1 2.3 -1.5
v -1 2.4 -1.5
v -0.6 2.3 -1.5
v -0.6 2.4 -1.5
v -0.5 2.3 -1.5
v -0.5 2.4 -1.5
v 0.5 2.3 -1.5
v 0.5 2.4 -1.5
v 0.6 2.3 -1.5
v 0.6 2.4 -1.5
v 1 2.3 -1.5
v 1 2.4 -1.5
v 1.1 2.3 -1.5
v 1.1 2.4 -1.5
v -1 2.3 -1.6
v -1 2.4 -1.6
v -0.9 2.3 -1.6
v -0.9 2.4 -1.6
v -0.8 2.3 -1.6
v -0.8 2.4 -1.6
v -0.6 2.3 -1.6
v -0.6 2.4 -1.6
v 0.6 2.3 -1.6
v 0.6 2.4 -1.6
v 0.8 2.3 -1.6
v 0.8 2.4 -1.6
v 0.9 2.3 -1.6
v 0.9 2.4 -1.6
v 1 2.3 -1.6
v 1 2.4 -1.6
v -0.3 2.5 1
v -0.3 2.6 1
v -0.2 2.5 1
v -0.2 2.6 1
v 0.2 2.5 1
v 0.2 2.6 1
v 0.3 2.5 1
v 0.3 2.6 1
v -0.3 2.3 0.9
v -0.3 2.5 0.9
v -0.2 2.3 0.9
v -0.2 2.5 0.9
v 0.2 2.3 0.9
v 0.2 2.5 0.9
v 0.3 2.3 0.9
v 0.3 2.5 0.9
v -0.4 1 0.7
v -0.4 1.1 0.7
v -0.2 1 0.7
v -0.2 1.1 0.7
v 0.2 1 0.7
v 0.2 1.1 0.7
v 0.4 1 0.7
v 0.4 1.1 0.7
v -0.5 2.3 0.5
v -0.5 2.4 0.5
v -0.4 0.9 0.5
v -0.4 1 0.5
v -0.4 2.3 0.5
v -0.4 2.4 0.5
v -0.2 0.9 0.5
v -0.2 1 0.5
v 0.2 0.9 0.5
v 0.2 1 0.5
v 0.4 0.9 0.5
v 0.4 1 0.5
v 0.4 2.3 0.5
v 0.4 2.4 0.5
v 0.5 2.3 0.5
v 0.5 2.4 0.5
v -0.7 2.3 0.4
v -0.7 2.4 0.4
v -0.5 2.3 0.4
v -0.5 2.4 0.4
v -0.4 2.3 0.4
v -0.4 2.4 0.4
v -0.3 2.3 0.4
v -0.3 2.4 0.4
v 0.3 2.3 0.4
v 0.3 2.4 0.4
v 0.4 2.3 0.4
v 0.4 2.4 0.4
v 0.5 2.3 0.4
v 0.5 2.4 0.4
v 0.7 2.3 0.4
v 0.7 2.4 0.4
v -0.8 2.3 0.3
v -0.8 2.4 0.3
v -0.7 2.3 0.3
v -0.7 2.4 0.3
v 0.7 2.3 0.3
v 0.7 2.4 0.3
v 0.8 2.3 0.3
v 0.8 2.4 0.3
v -0.9 2.3 0.2
v -0.9 2.4 0.2
v -0.8 2.3 0.2
v -0.8 2.4 0.2
v -0.5 2.3 0.2
v -0.5 2.4 0.2
v -0.4 2.3 0.2
v -0.4 2.4 0.2
v 0.4 2.3 0.2
v 0.4 2.4 0.2
v 0.5 2.3 0.2
v 0.5 2.4 0.2
v 0.8 2.3 0.2
v 0.8 2.4 0.2
v 0.9 2.3 0.2
v 0.9 2.4 0.2
v -0.4 1 -1.19209e-07
v -0.4 1.1 -1.19209e-07
v -0.2 1 -1.19209e-07
v -0.2 1.1 -1.19209e-07
v 0.2 1 -1.19209e-07
v 0.2 1.1 -1.19209e-07
v 0.4 1 -1.19209e-07
v 0.4 1.1 -1.19209e-07
v -0.6 2.3 -0.1
v -0.6 2.4 -0.1
v -0.5 2.3 -0.1
v -0.5 2.4 -0.1
v 0.5 2.3 -0.1
v 0.5 2.4 -0.1
v 0.6 2.3 -0.1
v 0.6 2.4 -0.1
v -1 2.3 -0.2
v -1 2.4 -0.2
v -0.9 2.3 -0.2
v -0.9 2.4 -0.2
v -0.4 0.9 -0.2
v -0.4 1 -0.2
v -0.2 0.9 -0.2
v -0.2 1 -0.2
v 0.2 0.9 -0.2
v 0.2 1 -0.2
v 0.4 0.9 -0.2
v 0.4 1 -0.2
v 0.9 2.3 -0.2
v 0.9 2.4 -0.2
v 1 2.3 -0.2
v 1 2.4 -0.2
v -0.8 2.3 -0.3
v -0.8 2.4 -0.3
v -0.7 2.3 -0.3
v -0.7 2.4 -0.3
v -0.3 2.3 -0.3
v -0.3 2.4 -0.3
v -0.2 2.3 -0.3
v -0.2 2.4 -0.3
v 0.2 2.3 -0.3
v 0.2 2.4 -0.3
v 0.3 2.3 -0.3
v 0.3 2.4 -0.3
v 0.7 2.3 -0.3
v 0.7 2.4 -0.3
v 0.8 2.3 -0.3
v 0.8 2.4 -0.3
v -1 2.3 -0.4
v -1 2.4 -0.4
v -0.8 2.3 -0.4
v -0.8 2.4 -0.4
v 0.8 2.3 -0.4
v 0.8 2.4 -0.4
v 1 2.3 -0.4
v 1 2.4 -0.4
v -1.1 2.3 -0.6
v -1.1 2.4 -0.6
v -1 2.3 -0.6
v -1 2.4 -0.6
v 1 2.3 -0.6
v 1 2.4 -0.6
v 1.1 2.3 -0.6
v 1.1 2.4 -0.6
v -0.4 1 -0.7
v -0.4 1.1 -0.7
v -0.2 1 -0.7
v -0.2 1.1 -0.7
v 0.2 1 -0.7
v 0.2 1.1 -0.7
v 0.4 1 -0.7
v 0.4 1.1 -0.7
v -0.7 2.3 -0.8
v -0.7 2.4 -0.8
v -0.6 2.3 -0.8
v -0.6 2.4 -0.8
v 0.6 2.3 -0.8
v 0.6 2.4 -0.8
v 0.7 2.3 -0.8
v 0.7 2.4 -0.8
v -1 2.3 -0.9
v -1 2.4 -0.9
v -0.7 1.3 -0.9
v -0.7 2.1 -0.9
v -0.7 2.3 -0.9
v -0.7 2.4 -0.9
v -0.6 1.2 -0.9
v -0.6 1.3 -0.9
v -0.6 2.1 -0.9
v -0.6 2.2 -0.9
v -0.5 1.1 -0.9
v -0.5 1.2 -0.9
v -0.5 1.3 -0.9
v -0.5 2.1 -0.9
v -0.5 2.2 -0.9
v -0.5 2.3 -0.9
v -0.4 0.9 -0.9
v -0.4 1 -0.9
v -0.3 2.3 -0.9
v -0.2 0.9 -0.9
v -0.2 1 -0.9
v -0.2 2.3 -0.9
v -0.2 2.4 -0.9
v -0.0999999 2.3 -0.9
v -0.0999999 2.4 -0.9
v 0.1 2.3 -0.9
v 0.1 2.4 -0.9
v 0.2 0.9 -0.9
v 0.2 1 -0.9
v 0.2 2.3 -0.9
v 0.2 2.4 -0.9
v 0.3 2.3 -0.9
v 0.4 0.9 -0.9
v 0.4 1 -0.9
v 0.5 1.1 -0.9
v 0.5 1.2 -0.9
v 0.5 1.3 -0.9
v 0.5 2.1 -0.9
v 0.5 2.2 -0.9
v 0.5 2.3 -0.9
v 0.6 1.2 -0.9
v 0.6 1.3 -0.9
v 0.6 2.1 -0.9
v 0.6 2.2 -0.9
v 0.7 1.3 -0.9
v 0.7 2.1 -0.9
v 0.7 2.3 -0.9
v 0.7 2.4 -0.9
v 1 2.3 -0.9
v 1 2.4 -0.9
v -1.2 2.3 -1
v -1.2 2.4 -1
v -1 2.3 -1
v -1 2.4 -1
v -0.6 2.3 -1
v -0.6 2.4 -1
v -0.5 1.3 -1
v -0.5 2.1 -1
v -0.5 2.3 -1
v -0.5 2.4 -1
v -0.4 1.4 -1
v -0.4 2 -1
v 0.4 1.4 -1
v 0.4 2 -1
v 0.5 1.3 -1
v 0.5 2.1 -1
v 0.5 2.3 -1
v 0.5 2.4 -1
v 0.6 2.3 -1
v 0.6 2.4 -1
v 1 2.3 -1
v 1 2.4 -1
v 1.2 2.3 -1
v 1.2 2.4 -1
v -0.7 2.3 -1.1
v -0.7 2.4 -1.1
v -0.6 2.3 -1.1
v -0.6 2.4 -1.1
v -0.5 2.3 -1.1
v -0.5 2.4 -1.1
v -0.4 1.4 -1.1
v -0.4 2 -1.1
v -0.3 2.3 -1.1
v -0.3 2.4 -1.1
v 0.3 2.3 -1.1
v 0.3 2.4 -1.1
v 0.4 1.4 -1.1
v 0.4 2 -1.1
v 0.5 2.3 -1.1
v 0.5 2.4 -1.1
v 0.6 2.3 -1.1
v 0.6 2.4 -1.1
v 0.7 2.3 -1.1
v 0.7 2.4 -1.1
v -0.8 2.3 -1.2
v -0.8 2.4 -1.2
v -0.7 2.3 -1.2
v -0.7 2.4 -1.2
v -0.3 2.3 -1.2
v -0.3 2.4 -1.2
v -0.2 2.3 -1.2
v -0.2 2.4 -1.2
v 0.2 2.3 -1.2
v 0.2 2.4 -1.2
v 0.3 2.3 -1.2
v 0.3 2.4 -1.2
v 0.7 2.3 -1.2
v 0.7 2.4 -1.2
v 0.8 2.3 -1.2
v 0.8 2.4 -1.2
v -1.3 2.3 -1.3
v -1.3 2.4 -1.3
v -1.2 2.3 -1.3
v -1.2 2.4 -1.3
v 1.2 2.3 -1.3
v 1.2 2.4 -1.3
v 1.3 2.3 -1.3
v 1.3 2.4 -1.3
v -0.4 2.3 -1.4
v -0.4 2.4 -1.4
v -0.3 2.3 -1.4
v -0.3 2.4 -1.4
v 0.3 2.3 -1.4
v 0.3 2.4 -1.4
v 0.4 2.3 -1.4
v 0.4 2.4 -1.4
v -1.2 2.3 -1.5
v -1.2 2.4 -1.5
v -1.1 2.3 -1.5
v -1.1 2.4 -1.5
v -0.5 2.3 -1.5
v -0.5 2.4 -1.5
v -0.4 2.3 -1.5
v -0.4 2.4 -1.5
v 0.4 2.3 -1.5
v 0.4 2.4 -1.5
v 0.5 2.3 -1.5
v 0.5 2.4 -1.5
v 1.1 2.3 -1.5
v 1.1 2.4 -1.5
v 1.2 2.3 -1.5
v 1.2 2.4 -1.5
v -1.1 2.3 -1.6
v -1.1 2.4 -1.6
v -1 2.3 -1.6
v -1 2.4 -1.6
v -0.6 2.3 -1.6
v -0.6 2.4 -1.6
v -0.5 2.3 -1.6
v -0.5 2.4 -1.6
v 0.5 2.3 -1.6
v 0.5 2.4 -1.6
v 0.6 2.3 -1.6
v 0.6 2.4 -1.6
v 1 2.3 -1.6
v 1 2.4 -1.6
v 1.1 2.3 -1.6
v 1.1 2.4 -1.6
v -1 2.3 -1.7
v -1 2.4 -1.7
v -0.6 2.3 -1.7
v -0.6 2.4 -1.7
v 0.6 2.3 -1.7
v 0.6 2.4 -1.7
v 1 2.3 -1.7
v 1 2.4 -1.7
v -0.4 0.9 0.7
v -0.2 0.9 0.7
v 0.2 0.9 0.7
v 0.4 0.9 0.7
v -0.4 0.9 0.5
v -0.2 0.9 0.5
v 0.2 0.9 0.5
v 0.4 0.9 0.5
v -0.4 0.9 -1.19209e-07
v -0.2 0.9 -1.19209e-07
v 0.2 0.9 -1.19209e-07
v 0.4 0.9 -1.19209e-07
v -0.4 0.9 -0.2
v -0.2 0.9 -0.2
v 0.2 0.9 -0.2
v 0.4 0.9 -0.2
v -0.4 0.9 -0.7
v -0.2 0.9 -0.7
v 0.2 0.9 -0.7
v 0.4 0.9 -0.7
v -0.4 0.9 -0.9
v -0.2 0.9 -0.9
v 0.2 0.9 -0.9
v 0.4 0.9 -0.9
v -0.4 1 0.8
v -0.2 1 0.8
v 0.2 1 0.8
v 0.4 1 0.8
v -0.4 1 0.7
v -0.2 1 0.7
v 0.2 1 0.7
v 0.4 1 0.7
v -0.4 1 0.0999999
v -0.2 1 0.0999999
v 0.2 1 0.0999999
v 0.4 1 0.0999999
v -0.4 1 -1.19209e-07
v -0.2 1 -1.19209e-07
v 0.2 1 -1.19209e-07
v 0.4 1 -1.19209e-07
v -0.4 1 -0.6
v -0.2 1 -0.6
v 0.2 1 -0.6
v 0.4 1 -0.6
v -0.4 1 -0.7
v -0.2 1 -0.7
v 0.2 1 -0.7
v 0.4 1 -0.7
v -0.4 1.1 1.1
v 0.4 1.1 1.1
v -0.5 1.1 1
v -0.4 1.1 1
v 0.4 1.1 1
v 0.5 1.1 1
v -0.4 1.1 0.8
v -0.2 1.1 0.8
v 0.2 1.1 0.8
v 0.4 1.1 0.8
v -0.5 1.1 0.7
v -0.4 1.1 0.7
v -0.2 1.1 0.7
v 0.2 1.1 0.7
v 0.4 1.1 0.7
v 0.5 1.1 0.7
v -0.5 1.1 0.5
v 0.5 1.1 0.5
v -0.4 1.1 0.0999999
v -0.2 1.1 0.0999999
v 0.2 1.1 0.0999999
v 0.4 1.1 0.0999999
v -0.5 1.1 -1.19209e-07
v -0.4 1.1 -1.19209e-07
v -0.2 1.1 -1.19209e-07
v 0.2 1.1 -1.19209e-07
v 0.4 1.1 -1.19209e-07
v 0.5 1.1 -1.19209e-07
v -0.5 1.1 -0.2
v 0.5 1.1 -0.2
v -0.4 1.1 -0.6
v -0.2 1.1 -0.6
v 0.2 1.1 -0.6
v 0.4 1.1 -0.6
v -0.5 1.1 -0.7
v -0.4 1.1 -0.7
v -0.2 1.1 -0.7
v 0.2 1.1 -0.7
v 0.4 1.1 -0.7
v 0.5 1.1 -0.7
v -0.5 1.1 -0.9
v 0.5 1.1 -0.9
v -0.4 1.2 1.2
v 0.4 1.2 1.2
v -0.5 1.2 1.1
v -0.4 1.2 1.1
v 0.4 1.2 1.1
v 0.5 1.2 1.1
v -0.6 1.2 1
v -0.5 1.2 1
v -0.4 1.2 1
v 0.4 1.2 1
v 0.5 1.2 1
v 0.6 1.2 1
v -0.6 1.2 0.7
v -0.5 1.2 0.7
v 0.5 1.2 0.7
v 0.6 1.2 0.7
v -0.6 1.2 0.5
v -0.5 1.2 0.5
v 0.5 1.2 0.5
v 0.6 1.2 0.5
v -0.6 1.2 -1.19209e-07
v -0.5 1.2 -1.19209e-07
v 0.5 1.2 -1.19209e-07
v 0.6 1.2 -1.19209e-07
v -0.6 1.2 -0.2
v -0.5 1.2 -0.2
v 0.5 1.2 -0.2
v 0.6 1.2 -0.2
v -0.6 1.2 -0.7
v -0.5 1.2 -0.7
v 0.5 1.2 -0.7
v 0.6 1.2 -0.7
v -0.6 1.2 -0.9
v -0.5 1.2 -0.9
v 0.5 1.2 -0.9
v 0.6 1.2 -0.9
v -0.5 1.3 1.2
v -0.4 1.3 1.2
v 0.4 1.3 1.2
v 0.5 1.3 1.2
v -0.6 1.3 1.1
v -0.5 1.3 1.1
v -0.4 1.3 1.1
v 0.4 1.3 1.1
v 0.5 1.3 1.1
v 0.6 1.3 1.1
v -0.7 1.3 1
v -0.6 1.3 1
v -0.5 1.3 1
v 0.5 1.3 1
v 0.6 1.3 1
v 0.7 1.3 1
v -0.7 1.3 0.7
v -0.6 1.3 0.7
v 0.6 1.3 0.7
v 0.7 1.3 0.7
v -0.7 1.3 0.5
v -0.6 1.3 0.5
v 0.6 1.3 0.5
v 0.7 1.3 0.5
v -0.7 1.3 -1.19209e-07
v -0.6 1.3 -1.19209e-07
v 0.6 1.3 -1.19209e-07
v 0.7 1.3 -1.19209e-07
v -0.7 1.3 -0.2
v -0.6 1.3 -0.2
v 0.6 1.3 -0.2
v 0.7 1.3 -0.2
v -0.7 1.3 -0.7
v -0.6 1.3 -0.7
v 0.6 1.3 -0.7
v 0.7 1.3 -0.7
v -0.7 1.3 -0.9
v -0.6 1.3 -0.9
v -0.5 1.3 -0.9
v 0.5 1.3 -0.9
v 0.6 1.3 -0.9
v 0.7 1.3 -0.9
v -0.5 1.3 -1
v 0.5 1.3 -1
v -0.6 1.4 1.2
v -0.5 1.4 1.2
v 0.5 1.4 1.2
v 0.6 1.4 1.2
v -0.7 1.4 1.1
v -0.6 1.4 1.1
v -0.5 1.4 1.1
v 0.5 1.4 1.1
v 0.6 1.4 1.1
v 0.7 1.4 1.1
v -0.7 1.4 1
v -0.6 1.4 1
v 0.6 1.4 1
v 0.7 1.4 1
v -0.4 1.4 -1
v 0.4 1.4 -1
v -0.4 1.4 -1.1
v 0.4 1.4 -1.1
v -0.7 2.3 0.5
v -0.5 2.3 0.5
v 0.5 2.3 0.5
v 0.7 2.3 0.5
v -0.8 2.3 0.4
v -0.7 2.3 0.4
v -0.5 2.3 0.4
v 0.5 2.3 0.4
v 0.7 2.3 0.4
v 0.8 2.3 0.4
v -0.9 2.3 0.3
v -0.8 2.3 0.3
v -0.7 2.3 0.3
v 0.7 2.3 0.3
v 0.8 2.3 0.3
v 0.9 2.3 0.3
v -1 2.3 0.2
v -0.9 2.3 0.2
v -0.8 2.3 0.2
v -0.6 2.3 0.2
v -0.5 2.3 0.2
v 0.5 2.3 0.2
v 0.6 2.3 0.2
v 0.8 2.3 0.2
v 0.9 2.3 0.2
v 1 2.3 0.2
v -0.5 2.3 -1.19209e-07
v 0.5 2.3 -1.19209e-07
v -0.7 2.3 -0.1
v -0.6 2.3 -0.1
v -0.5 2.3 -0.1
v 0.5 2.3 -0.1
v 0.6 2.3 -0.1
v 0.7 2.3 -0.1
v -1.1 2.3 -0.2
v -1 2.3 -0.2
v -0.9 2.3 -0.2
v -0.8 2.3 -0.2
v -0.7 2.3 -0.2
v 0.7 2.3 -0.2
v 0.8 2.3 -0.2
v 0.9 2.3 -0.2
v 1 2.3 -0.2
v 1.1 2.3 -0.2
v -1 2.3 -0.3
v -0.8 2.3 -0.3
v -0.7 2.3 -0.3
v 0.7 2.3 -0.3
v 0.8 2.3 -0.3
v 1 2.3 -0.3
v -1 2.3 -0.4
v -0.8 2.3 -0.4
v 0.8 2.3 -0.4
v 1 2.3 -0.4
v -1.2 2.3 -0.6
v -1.1 2.3 -0.6
v -1 2.3 -0.6
v 1 2.3 -0.6
v 1.1 2.3 -0.6
v 1.2 2.3 -0.6
v -1 2.3 -0.8
v -0.7 2.3 -0.8
v -0.6 2.3 -0.8
v -0.5 2.3 -0.8
v 0.5 2.3 -0.8
v 0.6 2.3 -0.8
v 0.7 2.3 -0.8
v 1 2.3 -0.8
v -1.1 2.3 -0.9
v -1 2.3 -0.9
v -0.7 2.3 -0.9
v -0.5 2.3 -0.9
v -0.3 2.3 -0.9
v -0.2 2.3 -0.9
v 0.2 2.3 -0.9
v 0.3 2.3 -0.9
v 0.5 2.3 -0.9
v 0.7 2.3 -0.9
v 1 2.3 -0.9
v 1.1 2.3 -0.9
v -1.3 2.3 -1
v -1.2 2.3 -1
v -1 2.3 -1
v -0.7 2.3 -1
v -0.6 2.3 -1
v -0.5 2.3 -1
v -0.3 2.3 -1
v 0.3 2.3 -1
v 0.5 2.3 -1
v 0.6 2.3 -1
v 0.7 2.3 -1
v 1 2.3 -1
v 1.2 2.3 -1
v 1.3 2.3 -1
v -0.8 2.3 -1.1
v -0.7 2.3 -1.1
v -0.6 2.3 -1.1
v -0.5 2.3 -1.1
v -0.3 2.3 -1.1
v 0.3 2.3 -1.1
v 0.5 2.3 -1.1
v 0.6 2.3 -1.1
v 0.7 2.3 -1.1
v 0.8 2.3 -1.1
v -0.9 2.3 -1.2
v -0.8 2.3 -1.2
v -0.7 2.3 -1.2
v -0.4 2.3 -1.2
v -0.3 2.3 -1.2
v -0.2 2.3 -1.2
v 0.2 2.3 -1.2
v 0.3 2.3 -1.2
v 0.4 2.3 -1.2
v 0.7 2.3 -1.2
v 0.8 2.3 -1.2
v 0.9 2.3 -1.2
v -1.3 2.3 -1.3
v -1.2 2.3 -1.3
v -1.1 2.3 -1.3
v 1.1 2.3 -1.3
v 1.2 2.3 -1.3
v 1.3 2.3 -1.3
v -0.5 2.3 -1.4
v -0.4 2.3 -1.4
v -0.3 2.3 -1.4
v 0.3 2.3 -1.4
v 0.4 2.3 -1.4
v 0.5 2.3 -1.4
v -1.2 2.3 -1.5
v -1.1 2.3 -1.5
v -1 2.3 -1.5
v -0.6 2.3 -1.5
v -0.5 2.3 -1.5
v -0.4 2.3 -1.5
v 0.4 2.3 -1.5
v 0.5 2.3 -1.5
v 0.6 2.3 -1.5
v 1 2.3 -1.5
v 1.1 2.3 -1.5
v 1.2 2.3 -1.5
v -1.1 2.3 -1.6
v -1 2.3 -1.6
v -0.9 2.3 -1.6
v -0.8 2.3 -1.6
v -0.6 2.3 -1.6
v -0.5 2.3 -1.6
v 0.5 2.3 -1.6
v 0.6 2.3 -1.6
v 0.8 2.3 -1.6
v 0.9 2.3 -1.6
v 1 2.3 -1.6
v 1.1 2.3 -1.6
v -1 2.3 -1.7
v -0.6 2.3 -1.7
v 0.6 2.3 -1.7
v 1 2.3 -1.7
v -0.3 2.5 1.1
v -0.2 2.5 1.1
v 0.2 2.5 1.1
v 0.3 2.5 1.1
v -0.3 2.5 1
v -0.2 2.5 1
v 0.2 2.5 1
v 0.3 2.5 1
v -0.4 1 0.7
v -0.2 1 0.7
v 0.2 1 0.7
v 0.4 1 0.7
v -0.4 1 0.5
v -0.2 1 0.5
v 0.2 1 0.5
v 0.4 1 0.5
v -0.4 1 -1.19209e-07
v -0.2 1 -1.19209e-07
v 0.2 1 -1.19209e-07
v 0.4 1 -1.19209e-07
v -0.4 1 -0.2
v -0.2 1 -0.2
v 0.2 1 -0.2
v 0.4 1 -0.2
v -0.4 1 -0.7
v -0.2 1 -0.7
v 0.2 1 -0.7
v 0.4 1 -0.7
v -0.4 1 -0.9
v -0.2 1 -0.9
v 0.2 1 -0.9
v 0.4 1 -0.9
v -0.6 2 1.2
v -0.5 2 1.2
v 0.5 2 1.2
v 0.6 2 1.2
v -0.7 2 1.1
v -0.6 2 1.1
v -0.5 2 1.1
v 0.5 2 1.1
v 0.6 2 1.1
v 0.7 2 1.1
v -0.7 2 1
v -0.6 2 1
v 0.6 2 1
v 0.7 2 1
v -0.4 2 -1
v 0.4 2 -1
v -0.4 2 -1.1
v 0.4 2 -1.1
v -0.5 2.1 1.2
v -0.4 2.1 1.2
v 0.4 2.1 1.2
v 0.5 2.1 1.2
v -0.6 2.1 1.1
v -0.5 2.1 1.1
v -0.4 2.1 1.1
v 0.4 2.1 1.1
v 0.5 2.1 1.1
v 0.6 2.1 1.1
v -0.7 2.1 1
v -0.6 2.1 1
v -0.5 2.1 1
v 0.5 2.1 1
v 0.6 2.1 1
v 0.7 2.1 1
v -0.7 2.1 0.7
v -0.6 2.1 0.7
v 0.6 2.1 0.7
v 0.7 2.1 0.7
v -0.7 2.1 0.5
v -0.6 2.1 0.5
v 0.6 2.1 0.5
v 0.7 2.1 0.5
v -0.7 2.1 -1.19209e-07
v -0.6 2.1 -1.19209e-07
v 0.6 2.1 -1.19209e-07
v 0.7 2.1 -1.19209e-07
v -0.7 2.1 -0.2
v -0.6 2.1 -0.2
v 0.6 2.1 -0.2
v 0.7 2.1 -0.2
v -0.7 2.1 -0.7
v -0.6 2.1 -0.7
v 0.6 2.1 -0.7
v 0.7 2.1 -0.7
v -0.7 2.1 -0.9
v -0.6 2.1 -0.9
v -0.5 2.1 -0.9
v 0.5 2.1 -0.9
v 0.6 2.1 -0.9
v 0.7 2.1 -0.9
v -0.5 2.1 -1
v 0.5 2.1 -1
v -0.4 2.2 1.2
v 0.4 2.2 1.2
v -0.5 2.2 1.1
v -0.4 2.2 1.1
v 0.4 2.2 1.1
v 0.5 2.2 1.1
v -0.6 2.2 1
v -0.5 2.2 1
v -0.4 2.2 1
v 0.4 2.2 1
v 0.5 2.2 1
v 0.6 2.2 1
v -0.6 2.2 0.7
v -0.5 2.2 0.7
v 0.5 2.2 0.7
v 0.6 2.2 0.7
v -0.6 2.2 0.5
v -0.5 2.2 0.5
v 0.5 2.2 0.5
v 0.6 2.2 0.5
v -0.6 2.2 -1.19209e-07
v -0.5 2.2 -1.19209e-07
v 0.5 2.2 -1.19209e-07
v 0.6 2.2 -1.19209e-07
v -0.6 2.2 -0.2
v -0.5 2.2 -0.2
v 0.5 2.2 -0.2
v 0.6 2.2 -0.2
v -0.6 2.2 -0.7
v -0.5 2.2 -0.7
v 0.5 2.2 -0.7
v 0.6 2.2 -0.7
v -0.6 2.2 -0.9
v -0.5 2.2 -0.9
v 0.5 2.2 -0.9
v 0.6 2.2 -0.9
v -0.4 2.3 1.1
v 0.4 2.3 1.1
v -0.5 2.3 1
v -0.4 2.3 1
v -0.3 2.3 1
v -0.2 2.3 1
v 0.2 2.3 1
v 0.3 2.3 1
v 0.4 2.3 1
v 0.5 2.3 1
v -0.3 2.3 0.9
v -0.2 2.3 0.9
v 0.2 2.3 0.9
v 0.3 2.3 0.9
v -0.5 2.3 0.7
v 0.5 2.3 0.7
v -0.5 2.3 0.6
v -0.3 2.3 0.6
v 0.3 2.3 0.6
v 0.5 2.3 0.6
v -0.5 2.3 0.5
v -0.4 2.3 0.5
v -0.3 2.3 0.5
v -0.2 2.3 0.5
v 0.2 2.3 0.5
v 0.3 2.3 0.5
v 0.4 2.3 0.5
v 0.5 2.3 0.5
v -0.5 2.3 0.4
v -0.4 2.3 0.4
v -0.3 2.3 0.4
v 0.3 2.3 0.4
v 0.4 2.3 0.4
v 0.5 2.3 0.4
v -0.5 2.3 0.2
v -0.4 2.3 0.2
v 0.4 2.3 0.2
v 0.5 2.3 0.2
v -0.5 2.3 -1.19209e-07
v -0.3 2.3 -1.19209e-07
v -0.2 2.3 -1.19209e-07
v 0.2 2.3 -1.19209e-07
v 0.3 2.3 -1.19209e-07
v 0.5 2.3 -1.19209e-07
v -0.5 2.3 -0.1
v 0.5 2.3 -0.1
v -0.5 2.3 -0.2
v -0.3 2.3 -0.2
v -0.2 2.3 -0.2
v 0.2 2.3 -0.2
v 0.3 2.3 -0.2
v 0.5 2.3 -0.2
v -0.3 2.3 -0.3
v -0.2 2.3 -0.3
v -0.0999999 2.3 -0.3
v 0.1 2.3 -0.3
v 0.2 2.3 -0.3
v 0.3 2.3 -0.3
v -0.5 2.3 -0.7
v -0.2 2.3 -0.7
v -0.0999999 2.3 -0.7
v 0.1 2.3 -0.7
v 0.2 2.3 -0.7
v 0.5 2.3 -0.7
v -0.5 2.3 -0.8
v 0.5 2.3 -0.8
v -0.5 2.3 -0.9
v -0.3 2.3 -0.9
v -0.2 2.3 -0.9
v -0.0999999 2.3 -0.9
v 0.1 2.3 -0.9
v 0.2 2.3 -0.9
v 0.3 2.3 -0.9
v 0.5 2.3 -0.9
v -0.5 2.4 0.6
v -0.3 2.4 0.6
v 0.3 2.4 0.6
v 0.5 2.4 0.6
v -0.7 2.4 0.5
v -0.5 2.4 0.5
v -0.4 2.4 0.5
v -0.3 2.4 0.5
v -0.2 2.4 0.5
v 0.2 2.4 0.5
v 0.3 2.4 0.5
v 0.4 2.4 0.5
v 0.5 2.4 0.5
v 0.7 2.4 0.5
v -0.8 2.4 0.4
v -0.7 2.4 0.4
v -0.5 2.4 0.4
v -0.4 2.4 0.4
v -0.3 2.4 0.4
v 0.3 2.4 0.4
v 0.4 2.4 0.4
v 0.5 2.4 0.4
v 0.7 2.4 0.4
v 0.8 2.4 0.4
v -0.9 2.4 0.3
v -0.8 2.4 0.3
v -0.7 2.4 0.3
v 0.7 2.4 0.3
v 0.8 2.4 0.3
v 0.9 2.4 0.3
v -1 2.4 0.2
v -0.9 2.4 0.2
v -0.8 2.4 0.2
v -0.6 2.4 0.2
v -0.5 2.4 0.2
v -0.4 2.4 0.2
v 0.4 2.4 0.2
v 0.5 2.4 0.2
v 0.6 2.4 0.2
v 0.8 2.4 0.2
v 0.9 2.4 0.2
v 1 2.4 0.2
v -0.7 2.4 -0.1
v -0.6 2.4 -0.1
v -0.5 2.4 -0.1
v 0.5 2.4 -0.1
v 0.6 2.4 -0.1
v 0.7 2.4 -0.1
v -1.1 2.4 -0.2
v -1 2.4 -0.2
v -0.9 2.4 -0.2
v -0.8 2.4 -0.2
v -0.7 2.4 -0.2
v 0.7 2.4 -0.2
v 0.8 2.4 -0.2
v 0.9 2.4 -0.2
v 1 2.4 -0.2
v 1.1 2.4 -0.2
v -1 2.4 -0.3
v -0.8 2.4 -0.3
v -0.7 2.4 -0.3
v -0.3 2.4 -0.3
v -0.2 2.4 -0.3
v -0.0999999 2.4 -0.3
v 0.1 2.4 -0.3
v 0.2 2.4 -0.3
v 0.3 2.4 -0.3
v 0.7 2.4 -0.3
v 0.8 2.4 -0.3
v 1 2.4 -0.3
v -1 2.4 -0.4
v -0.8 2.4 -0.4
v 0.8 2.4 -0.4
v 1 2.4 -0.4
v -1.2 2.4 -0.6
v -1.1 2.4 -0.6
v -1 2.4 -0.6
v 1 2.4 -0.6
v 1.1 2.4 -0.6
v 1.2 2.4 -0.6
v -1 2.4 -0.8
v -0.7 2.4 -0.8
v -0.6 2.4 -0.8
v -0.5 2.4 -0.8
v 0.5 2.4 -0.8
v 0.6 2.4 -0.8
v 0.7 2.4 -0.8
v 1 2.4 -0.8
v -1.1 2.4 -0.9
v -1 2.4 -0.9
v -0.7 2.4 -0.9
v -0.3 2.4 -0.9
v -0.2 2.4 -0.9
v -0.0999999 2.4 -0.9
v 0.1 2.4 -0.9
v 0.2 2.4 -0.9
v 0.3 2.4 -0.9
v 0.7 2.4 -0.9
v 1 2.4 -0.9
v 1.1 2.4 -0.9
v -1.3 2.4 -1
v -1.2 2.4 -1
v -1 2.4 -1
v -0.7 2.4 -1
v -0.6 2.4 -1
v -0.5 2.4 -1
v -0.3 2.4 -1
v 0.3 2.4 -1
v 0.5 2.4 -1
v 0.6 2.4 -1
v 0.7 2.4 -1
v 1 2.4 -1
v 1.2 2.4 -1
v 1.3 2.4 -1
v -0.8 2.4 -1.1
v -0.7 2.4 -1.1
v -0.6 2.4 -1.1
v -0.5 2.4 -1.1
v -0.3 2.4 -1.1
v 0.3 2.4 -1.1
v 0.5 2.4 -1.1
v 0.6 2.4 -1.1
v 0.7 2.4 -1.1
v 0.8 2.4 -1.1
v -0.9 2.4 -1.2
v -0.8 2.4 -1.2
v -0.7 2.4 -1.2
v -0.4 2.4 -1.2
v -0.3 2.4 -1.2
v -0.2 2.4 -1.2
v 0.2 2.4 -1.2
v 0.3 2.4 -1.2
v 0.4 2.4 -1.2
v 0.7 2.4 -1.2
v 0.8 2.4 -1.2
v 0.9 2.4 -1.2
v -1.3 2.4 -1.3
v -1.2 2.4 -1.3
v -1.1 2.4 -1.3
v 1.1 2.4 -1.3
v 1.2 2.4 -1.3
v 1.3 2.4 -1.3
v -0.5 2.4 -1.4
v -0.4 2.4 -1.4
v -0.3 2.4 -1.4
v 0.3 2.4 -1.4
v 0.4 2.4 -1.4
v 0.5 2.4 -1.4
v -1.2 2.4 -1.5
v -1.1 2.4 -1.5
v -1 2.4 -1.5
v -0.6 2.4 -1.5
v -0.5 2.4 -1.5
v -0.4 2.4 -1.5
v 0.4 2.4 -1.5
v 0.5 2.4 -1.5
v 0.6 2.4 -1.5
v 1 2.4 -1.5
v 1.1 2.4 -1.5
v 1.2 2.4 -1.5
v -1.1 2.4 -1.6
v -1 2.4 -1.6
v -0.9 2.4 -1.6
v -0.8 2.4 -1.6
v -0.6 2.4 -1.6
v -0.5 2.4 -1.6
v 0.5 2.4 -1.6
v 0.6 2.4 -1.6
v 0.8 2.4 -1.6
v 0.9 2.4 -1.6
v 1 2.4 -1.6
v 1.1 2.4 -1.6
v -1 2.4 -1.7
v -0.6 2.4 -1.7
v 0.6 2.4 -1.7
v 1 2.4 -1.7
v -0.3 2.5 1
v -0.2 2.5 1
v 0.2 2.5 1
v 0.3 2.5 1
v -0.3 2.5 0.9
v -0.2 2.5 0.9
v 0.2 2.5 0.9
v 0.3 2.5 0.9
v -0.3 2.6 1.1
v -0.2 2.6 1.1
v 0.2 2.6 1.1
v 0.3 2.6 1.1
v -0.3 2.6 1
v -0.2 2.6 1
v 0.2 2.6 1
v 0.3 2.6 1

# faces
f 3/3/1 2/3/1 1/3/1
f 4/3/1 2/3/1 3/3/1
f 9/3/1 6/3/1 5/3/1
f 10/3/1 6/3/1 9/3/1
f 11/3/1 8/3/1 7/3/1
f 12/3/1 8/3/1 11/3/1
f 17/3/1 14/3/1 13/3/1
f 18/3/1 14/3/1 17/3/1
f 19/3/1 16/3/1 15/3/1
f 20/3/1 16/3/1 19/3/1
f 27/3/1 22/3/1 21/3/1
f 28/3/1 22/3/1 27/3/1
f 29/3/1 24/3/1 23/3/1
f 30/3/1 24/3/1 29/3/1
f 31/3/1 26/3/1 25/3/1
f 32/3/1 26/3/1 31/3/1
f 37/3/1 34/3/1 33/3/1
f 38/3/1 34/3/1 37/3/1
f 39/3/1 36/3/1 35/3/1
f 40/3/1 36/3/1 39/3/1
f 47/3/1 42/3/1 41/3/1
f 48/3/1 42/3/1 47/3/1
f 49/3/1 44/3/1 43/3/1
f 50/3/1 44/3/1 49/3/1
f 51/3/1 46/3/1 45/3/1
f 52/3/1 46/3/1 51/3/1
f 61/2/1 54/2/1 53/2/1
f 62/2/1 61/2/1 60/2/1
f 63/2/1 54/2/1 61/2/1
f 63/2/1 61/2/1 62/2/1
f 64/2/1 54/2/1 63/2/1
f 65/4/1 55/4/1 54/4/1
f 65/2/1 54/2/1 64/2/1
f 66/2/1 56/2/1 55/2/1
f 66/4/1 55/4/1 65/4/1
f 67/4/1 57/4/1 56/4/1
f 67/2/1 56/2/1 66/2/1
f 68/2/1 58/2/1 57/2/1
f 68/4/1 57/4/1 67/4/1
f 69/4/1 59/4/1 58/4/1
f 69/2/1 58/2/1 68/2/1
f 70/4/1 59/4/1 69/4/1
f 79/3/1 72/3/1 71/3/1
f 80/3/1 72/3/1 79/3/1
f 81/3/1 74/3/1 73/3/1
f 82/3/1 74/3/1 81/3/1
f 83/3/1 76/3/1 75/3/1
f 84/3/1 76/3/1 83/3/1
f 85/3/1 78/3/1 77/3/1
f 86/3/1 78/3/1 85/3/1
f 95/2/1 88/2/1 87/2/1
f 96/4/1 89/4/1 88/4/1
f 96/2/1 88/2/1 95/2/1
f 97/2/1 90/2/1 89/2/1
f 97/4/1 89/4/1 96/4/1
f 98/4/1 91/4/1 90/4/1
f 98/2/1 90/2/1 97/2/1
f 99/2/1 92/2/1 91/2/1
f 99/4/1 91/4/1 98/4/1
f 100/4/1 93/4/1 92/4/1
f 100/2/1 92/2/1 99/2/1
f 101/4/1 93/4/1 100/4/1
f 103/2/1 95/2/1 94/2/1
f 104/2/1 95/2/1 103/2/1
f 105/2/1 103/2/1 102/2/1
f 106/2/1 103/2/1 105/2/1
f 108/2/1 107/2/1 106/2/1
f 109/2/1 107/2/1 108/2/1
f 116/2/1 110/2/1 109/2/1
f 117/4/1 111/4/1 110/4/1
f 117/2/1 110/2/1 116/2/1
f 118/2/1 112/2/1 111/2/1
f 118/4/1 111/4/1 117/4/1
f 119/4/1 113/4/1 112/4/1
f 119/2/1 112/2/1 118/2/1
f 120/2/1 114/2/1 113/2/1
f 120/4/1 113/4/1 119/4/1
f 121/4/1 115/4/1 114/4/1
f 121/2/1 114/2/1 120/2/1
f 122/4/1 115/4/1 121/4/1
f 129/3/1 124/3/1 123/3/1
f 130/3/1 124/3/1 129/3/1
f 131/3/1 126/3/1 125/3/1
f 132/3/1 126/3/1 131/3/1
f 133/3/1 128/3/1 127/3/1
f 134/3/1 128/3/1 133/3/1
f 143/2/1 136/2/1 135/2/1
f 144/4/1 137/4/1 136/4/1
f 144/2/1 136/2/1 143/2/1
f 145/2/1 138/2/1 137/2/1
f 145/4/1 137/4/1 144/4/1
f 146/4/1 139/4/1 138/4/1
f 146/2/1 138/2/1 145/2/1
f 147/2/1 140/2/1 139/2/1
f 147/4/1 139/4/1 146/4/1
f 148/4/1 141/4/1 140/4/1
f 148/2/1 140/2/1 147/2/1
f 149/4/1 141/4/1 148/4/1
f 151/2/1 143/2/1 142/2/1
f 152/2/1 143/2/1 151/2/1
f 155/2/1 151/2/1 150/2/1
f 156/2/1 151/2/1 155/2/1
f 159/2/1 158/2/1 157/2/1
f 160/2/1 158/2/1 159/2/1
f 162/4/1 154/4/1 153/4/1
f 163/4/1 154/4/1 162/4/1
f 164/2/1 161/2/1 160/2/1
f 165/2/1 161/2/1 164/2/1
f 172/2/1 166/2/1 165/2/1
f 173/4/1 167/4/1 166/4/1
f 173/2/1 166/2/1 172/2/1
f 174/4/1 167/4/1 173/4/1
f 175/2/1 168/2/1 167/2/1
f 175/4/1 167/4/1 174/4/1
f 176/2/1 168/2/1 175/2/1
f 177/2/1 168/2/1 176/2/1
f 178/4/1 169/4/1 168/4/1
f 178/2/1 168/2/1 177/2/1
f 179/4/1 169/4/1 178/4/1
f 180/2/1 170/2/1 169/2/1
f 180/4/1 169/4/1 179/4/1
f 181/4/1 171/4/1 170/4/1
f 181/2/1 170/2/1 180/2/1
f 182/4/1 171/4/1 181/4/1
f 183/4/1 171/4/1 182/4/1
f 188/3/1 175/3/1 174/3/1
f 189/3/1 175/3/1 188/3/1
f 190/3/1 177/3/1 176/3/1
f 191/3/1 177/3/1 190/3/1
f 192/3/1 185/3/1 184/3/1
f 193/3/1 185/3/1 192/3/1
f 194/3/1 187/3/1 186/3/1
f 195/3/1 187/3/1 194/3/1
f 203/4/1 197/4/1 196/4/1
f 204/4/1 197/4/1 203/4/1
f 206/4/1 199/4/1 198/4/1
f 207/4/1 199/4/1 206/4/1
f 209/4/1 201/4/1 200/4/1
f 210/4/1 201/4/1 209/4/1
f 213/4/1 203/4/1 202/4/1
f 214/4/1 203/4/1 213/4/1
f 215/4/1 206/4/1 205/4/1
f 216/4/1 206/4/1 215/4/1
f 217/4/1 209/4/1 208/4/1
f 218/4/1 209/4/1 217/4/1
f 220/2/1 212/2/1 211/2/1
f 221/2/1 212/2/1 220/2/1
f 222/2/1 220/2/1 219/2/1
f 223/2/1 220/2/1 222/2/1
f 226/4/1 225/4/1 224/4/1
f 227/4/1 225/4/1 226/4/1
f 230/2/1 229/2/1 228/2/1
f 231/2/1 229/2/1 230/2/1
f 233/2/1 232/2/1 231/2/1
f 234/2/1 232/2/1 233/2/1
f 239/3/1 236/3/1 235/3/1
f 240/3/1 236/3/1 239/3/1
f 241/3/1 238/3/1 237/3/1
f 242/3/1 238/3/1 241/3/1
f 253/3/1 246/3/1 245/3/1
f 253/3/1 247/3/1 246/3/1
f 253/3/1 248/3/1 247/3/1
f 254/3/1 248/3/1 253/3/1
f 255/3/1 250/3/1 249/3/1
f 256/3/1 250/3/1 255/3/1
f 257/3/1 252/3/1 251/3/1
f 258/3/1 252/3/1 257/3/1
f 260/4/1 244/4/1 243/4/1
f 261/4/1 244/4/1 260/4/1
f 262/4/1 260/4/1 259/4/1
f 263/4/1 260/4/1 262/4/1
f 267/3/1 265/3/1 264/3/1
f 267/3/1 266/3/1 265/3/1
f 268/3/1 266/3/1 267/3/1
f 272/3/1 270/3/1 269/3/1
f 272/3/1 271/3/1 270/3/1
f 273/3/1 271/3/1 272/3/1
f 281/4/1 275/4/1 274/4/1
f 282/4/1 275/4/1 281/4/1
f 284/4/1 277/4/1 276/4/1
f 285/4/1 277/4/1 284/4/1
f 287/4/1 279/4/1 278/4/1
f 288/4/1 279/4/1 287/4/1
f 289/4/1 281/4/1 280/4/1
f 290/4/1 281/4/1 289/4/1
f 291/4/1 284/4/1 283/4/1
f 292/4/1 284/4/1 291/4/1
f 293/4/1 287/4/1 286/4/1
f 294/4/1 287/4/1 293/4/1
f 303/3/1 299/3/1 298/3/1
f 303/3/1 300/3/1 299/3/1
f 303/3/1 298/3/1 297/3/1
f 304/3/1 300/3/1 303/3/1
f 305/3/1 302/3/1 301/3/1
f 306/3/1 302/3/1 305/3/1
f 308/4/1 296/4/1 295/4/1
f 309/4/1 296/4/1 308/4/1
f 310/4/1 308/4/1 307/4/1
f 311/4/1 308/4/1 310/4/1
f 316/3/1 313/3/1 312/3/1
f 317/3/1 313/3/1 316/3/1
f 318/3/1 315/3/1 314/3/1
f 319/3/1 315/3/1 318/3/1
f 324/3/1 321/3/1 320/3/1
f 325/3/1 321/3/1 324/3/1
f 326/3/1 323/3/1 322/3/1
f 327/3/1 323/3/1 326/3/1
f 338/3/1 329/3/1 328/3/1
f 339/3/1 329/3/1 338/3/1
f 340/3/1 331/3/1 330/3/1
f 340/3/1 332/3/1 331/3/1
f 341/3/1 332/3/1 340/3/1
f 342/3/1 334/3/1 333/3/1
f 342/3/1 335/3/1 334/3/1
f 343/3/1 335/3/1 342/3/1
f 344/3/1 337/3/1 336/3/1
f 345/3/1 337/3/1 344/3/1
f 352/3/1 347/3/1 346/3/1
f 353/3/1 347/3/1 352/3/1
f 354/3/1 349/3/1 348/3/1
f 355/3/1 349/3/1 354/3/1
f 356/3/1 351/3/1 350/3/1
f 357/3/1 351/3/1 356/3/1
f 364/3/1 359/3/1 358/3/1
f 365/3/1 359/3/1 364/3/1
f 366/3/1 361/3/1 360/3/1
f 367/3/1 361/3/1 366/3/1
f 368/3/1 363/3/1 362/3/1
f 369/3/1 363/3/1 368/3/1
f 376/3/1 371/3/1 370/3/1
f 377/3/1 371/3/1 376/3/1
f 378/3/1 373/3/1 372/3/1
f 379/3/1 373/3/1 378/3/1
f 380/3/1 375/3/1 374/3/1
f 381/3/1 375/3/1 380/3/1
f 384/3/1 383/3/1 382/3/1
f 385/3/1 383/3/1 384/3/1
f 394/3/1 387/3/1 386/3/1
f 395/3/1 387/3/1 394/3/1
f 396/3/1 389/3/1 388/3/1
f 397/3/1 389/3/1 396/3/1
f 398/3/1 391/3/1 390/3/1
f 399/3/1 391/3/1 398/3/1
f 400/3/1 393/3/1 392/3/1
f 401/3/1 393/3/1 400/3/1
f 406/3/1 403/3/1 402/3/1
f 407/3/1 403/3/1 406/3/1
f 408/3/1 405/3/1 404/3/1
f 409/3/1 405/3/1 408/3/1
f 412/3/1 411/3/1 410/3/1
f 413/3/1 411/3/1 412/3/1
f 414/3/2 415/3/2 416/3/2
f 416/3/2 415/3/2 417/3/2
f 418/3/2 419/3/2 422/3/2
f 422/3/2 419/3/2 423/3/2
f 420/3/2 421/3/2 424/3/2
f 424/3/2 421/3/2 425/3/2
f 426/3/2 427/3/2 434/3/2
f 434/3/2 427/3/2 435/3/2
f 428/3/2 429/3/2 436/3/2
f 436/3/2 429/3/2 437/3/2
f 430/3/2 431/3/2 438/3/2
f 438/3/2 431/3/2 439/3/2
f 432/3/2 433/3/2 440/3/2
f 440/3/2 433/3/2 441/3/2
f 442/3/2 443/3/2 444/3/2
f 444/3/2 443/3/2 445/3/2
f 446/3/2 447/3/2 452/3/2
f 452/3/2 447/3/2 453/3/2
f 448/3/2 449/3/2 454/3/2
f 454/3/2 449/3/2 455/3/2
f 450/3/2 451/3/2 456/3/2
f 456/3/2 451/3/2 457/3/2
f 458/3/2 459/3/2 464/3/2
f 464/3/2 459/3/2 465/3/2
f 460/3/2 461/3/2 466/3/2
f 466/3/2 461/3/2 467/3/2
f 462/3/2 463/3/2 468/3/2
f 468/3/2 463/3/2 469/3/2
f 470/3/2 471/3/2 476/3/2
f 476/3/2 471/3/2 477/3/2
f 472/3/2 473/3/2 478/3/2
f 478/3/2 473/3/2 479/3/2
f 474/3/2 475/3/2 480/3/2
f 480/3/2 475/3/2 481/3/2
f 482/3/2 483/3/2 492/3/2
f 492/3/2 483/3/2 493/3/2
f 484/3/2 485/3/2 494/3/2
f 485/3/2 486/3/2 494/3/2
f 494/3/2 486/3/2 495/3/2
f 487/3/2 488/3/2 496/3/2
f 488/3/2 489/3/2 496/3/2
f 496/3/2 489/3/2 497/3/2
f 490/3/2 491/3/2 498/3/2
f 498/3/2 491/3/2 499/3/2
f 500/3/2 501/3/2 504/3/2
f 504/3/2 501/3/2 505/3/2
f 502/3/2 503/3/2 506/3/2
f 506/3/2 503/3/2 507/3/2
f 508/3/2 509/3/2 512/3/2
f 512/3/2 509/3/2 513/3/2
f 510/3/2 511/3/2 514/3/2
f 514/3/2 511/3/2 515/3/2
f 516/4/2 517/4/2 523/4/2
f 523/4/2 517/4/2 524/4/2
f 518/4/2 519/4/2 526/4/2
f 526/4/2 519/4/2 527/4/2
f 520/4/2 521/4/2 529/4/2
f 529/4/2 521/4/2 530/4/2
f 522/4/2 523/4/2 531/4/2
f 531/4/2 523/4/2 532/4/2
f 525/4/2 526/4/2 533/4/2
f 533/4/2 526/4/2 534/4/2
f 528/4/2 529/4/2 535/4/2
f 535/4/2 529/4/2 536/4/2
f 540/3/2 541/3/2 545/3/2
f 541/3/2 542/3/2 545/3/2
f 539/3/2 540/3/2 545/3/2
f 545/3/2 542/3/2 546/3/2
f 543/3/2 544/3/2 547/3/2
f 547/3/2 544/3/2 548/3/2
f 537/4/2 538/4/2 550/4/2
f 550/4/2 538/4/2 551/4/2
f 549/4/2 550/4/2 552/4/2
f 552/4/2 550/4/2 553/4/2
f 554/3/2 555/3/2 557/3/2
f 555/3/2 556/3/2 557/3/2
f 557/3/2 556/3/2 558/3/2
f 559/3/2 560/3/2 562/3/2
f 560/3/2 561/3/2 562/3/2
f 562/3/2 561/3/2 563/3/2
f 566/3/2 567/3/2 574/3/2
f 567/3/2 568/3/2 574/3/2
f 568/3/2 569/3/2 574/3/2
f 574/3/2 569/3/2 575/3/2
f 570/3/2 571/3/2 576/3/2
f 576/3/2 571/3/2 577/3/2
f 572/3/2 573/3/2 578/3/2
f 578/3/2 573/3/2 579/3/2
f 564/4/2 565/4/2 581/4/2
f 581/4/2 565/4/2 582/4/2
f 580/4/2 581/4/2 583/4/2
f 583/4/2 581/4/2 584/4/2
f 585/4/2 586/4/2 592/4/2
f 592/4/2 586/4/2 593/4/2
f 587/4/2 588/4/2 595/4/2
f 595/4/2 588/4/2 596/4/2
f 589/4/2 590/4/2 598/4/2
f 598/4/2 590/4/2 599/4/2
f 591/4/2 592/4/2 602/4/2
f 602/4/2 592/4/2 603/4/2
f 594/4/2 595/4/2 604/4/2
f 604/4/2 595/4/2 605/4/2
f 597/4/2 598/4/2 606/4/2
f 606/4/2 598/4/2 607/4/2
f 600/2/2 601/2/2 609/2/2
f 609/2/2 601/2/2 610/2/2
f 608/2/2 609/2/2 611/2/2
f 611/2/2 609/2/2 612/2/2
f 613/4/2 614/4/2 615/4/2
f 615/4/2 614/4/2 616/4/2
f 617/2/2 618/2/2 619/2/2
f 619/2/2 618/2/2 620/2/2
f 620/2/2 621/2/2 622/2/2
f 622/2/2 621/2/2 623/2/2
f 624/3/2 625/3/2 628/3/2
f 628/3/2 625/3/2 629/3/2
f 626/3/2 627/3/2 630/3/2
f 630/3/2 627/3/2 631/3/2
f 632/2/2 633/2/2 640/2/2
f 633/4/2 634/4/2 641/4/2
f 640/2/2 633/2/2 641/2/2
f 634/2/2 635/2/2 642/2/2
f 641/4/2 634/4/2 642/4/2
f 635/4/2 636/4/2 643/4/2
f 642/2/2 635/2/2 643/2/2
f 636/2/2 637/2/2 644/2/2
f 643/4/2 636/4/2 644/4/2
f 637/4/2 638/4/2 645/4/2
f 644/2/2 637/2/2 645/2/2
f 645/4/2 638/4/2 646/4/2
f 639/2/2 640/2/2 648/2/2
f 648/2/2 640/2/2 649/2/2
f 647/2/2 648/2/2 652/2/2
f 652/2/2 648/2/2 653/2/2
f 654/2/2 655/2/2 656/2/2
f 656/2/2 655/2/2 657/2/2
f 650/4/2 651/4/2 659/4/2
f 659/4/2 651/4/2 660/4/2
f 657/2/2 658/2/2 661/2/2
f 661/2/2 658/2/2 662/2/2
f 662/2/2 663/2/2 669/2/2
f 663/4/2 664/4/2 670/4/2
f 669/2/2 663/2/2 670/2/2
f 670/4/2 664/4/2 671/4/2
f 664/2/2 665/2/2 672/2/2
f 671/4/2 664/4/2 672/4/2
f 672/2/2 665/2/2 673/2/2
f 673/2/2 665/2/2 674/2/2
f 665/4/2 666/4/2 675/4/2
f 674/2/2 665/2/2 675/2/2
f 675/4/2 666/4/2 676/4/2
f 666/2/2 667/2/2 677/2/2
f 676/4/2 666/4/2 677/4/2
f 667/4/2 668/4/2 678/4/2
f 677/2/2 667/2/2 678/2/2
f 678/4/2 668/4/2 679/4/2
f 679/4/2 668/4/2 680/4/2
f 671/3/2 672/3/2 685/3/2
f 685/3/2 672/3/2 686/3/2
f 673/3/2 674/3/2 687/3/2
f 687/3/2 674/3/2 688/3/2
f 681/3/2 682/3/2 689/3/2
f 689/3/2 682/3/2 690/3/2
f 683/3/2 684/3/2 691/3/2
f 691/3/2 684/3/2 692/3/2
f 693/2/2 694/2/2 701/2/2
f 694/4/2 695/4/2 702/4/2
f 701/2/2 694/2/2 702/2/2
f 695/2/2 696/2/2 703/2/2
f 702/4/2 695/4/2 703/4/2
f 696/4/2 697/4/2 704/4/2
f 703/2/2 696/2/2 704/2/2
f 697/2/2 698/2/2 705/2/2
f 704/4/2 697/4/2 705/4/2
f 698/4/2 699/4/2 706/4/2
f 705/2/2 698/2/2 706/2/2
f 706/4/2 699/4/2 707/4/2
f 700/2/2 701/2/2 709/2/2
f 709/2/2 701/2/2 710/2/2
f 708/2/2 709/2/2 711/2/2
f 711/2/2 709/2/2 712/2/2
f 712/2/2 713/2/2 714/2/2
f 714/2/2 713/2/2 715/2/2
f 715/2/2 716/2/2 722/2/2
f 716/4/2 717/4/2 723/4/2
f 722/2/2 716/2/2 723/2/2
f 717/2/2 718/2/2 724/2/2
f 723/4/2 717/4/2 724/4/2
f 718/4/2 719/4/2 725/4/2
f 724/2/2 718/2/2 725/2/2
f 719/2/2 720/2/2 726/2/2
f 725/4/2 719/4/2 726/4/2
f 720/4/2 721/4/2 727/4/2
f 726/2/2 720/2/2 727/2/2
f 727/4/2 721/4/2 728/4/2
f 729/3/2 730/3/2 735/3/2
f 735/3/2 730/3/2 736/3/2
f 731/3/2 732/3/2 737/3/2
f 737/3/2 732/3/2 738/3/2
f 733/3/2 734/3/2 739/3/2
f 739/3/2 734/3/2 740/3/2
f 741/2/2 742/2/2 749/2/2
f 748/2/2 749/2/2 750/2/2
f 749/2/2 742/2/2 751/2/2
f 750/2/2 749/2/2 751/2/2
f 751/2/2 742/2/2 752/2/2
f 742/4/2 743/4/2 753/4/2
f 752/2/2 742/2/2 753/2/2
f 743/2/2 744/2/2 754/2/2
f 753/4/2 743/4/2 754/4/2
f 744/4/2 745/4/2 755/4/2
f 754/2/2 744/2/2 755/2/2
f 745/2/2 746/2/2 756/2/2
f 755/4/2 745/4/2 756/4/2
f 746/4/2 747/4/2 757/4/2
f 756/2/2 746/2/2 757/2/2
f 757/4/2 747/4/2 758/4/2
f 759/3/2 760/3/2 767/3/2
f 767/3/2 760/3/2 768/3/2
f 761/3/2 762/3/2 769/3/2
f 769/3/2 762/3/2 770/3/2
f 763/3/2 764/3/2 771/3/2
f 771/3/2 764/3/2 772/3/2
f 765/3/2 766/3/2 773/3/2
f 773/3/2 766/3/2 774/3/2
f 775/3/2 776/3/2 781/3/2
f 781/3/2 776/3/2 782/3/2
f 777/3/2 778/3/2 783/3/2
f 783/3/2 778/3/2 784/3/2
f 779/3/2 780/3/2 785/3/2
f 785/3/2 780/3/2 786/3/2
f 787/3/2 788/3/2 791/3/2
f 791/3/2 788/3/2 792/3/2
f 789/3/2 790/3/2 793/3/2
f 793/3/2 790/3/2 794/3/2
f 795/3/2 796/3/2 801/3/2
f 801/3/2 796/3/2 802/3/2
f 797/3/2 798/3/2 803/3/2
f 803/3/2 798/3/2 804/3/2
f 799/3/2 800/3/2 805/3/2
f 805/3/2 800/3/2 806/3/2
f 807/3/2 808/3/2 811/3/2
f 811/3/2 808/3/2 812/3/2
f 809/3/2 810/3/2 813/3/2
f 813/3/2 810/3/2 814/3/2
f 815/3/2 816/3/2 819/3/2
f 819/3/2 816/3/2 820/3/2
f 817/3/2 818/3/2 821/3/2
f 821/3/2 818/3/2 822/3/2
f 823/3/2 824/3/2 825/3/2
f 825/3/2 824/3/2 826/3/2
f 830/2/3 828/2/3 827/2/3
f 831/2/3 828/2/3 830/2/3
f 832/2/3 828/2/3 831/2/3
f 833/2/3 828/2/3 832/2/3
f 836/2/3 830/2/3 829/2/3
f 836/2/3 831/2/3 830/2/3
f 837/4/3 832/4/3 831/4/3
f 837/2/3 831/2/3 836/2/3
f 838/2/3 834/2/3 833/2/3
f 838/4/3 832/4/3 837/4/3
f 838/2/3 833/2/3 832/2/3
f 839/2/3 834/2/3 838/2/3
f 840/2/3 834/2/3 839/2/3
f 842/2/3 837/2/3 836/2/3
f 842/2/3 836/2/3 835/2/3
f 842/2/3 838/2/3 837/2/3
f 843/2/3 838/2/3 842/2/3
f 844/2/3 842/2/3 835/2/3
f 845/4/3 843/4/3 842/4/3
f 845/2/3 842/2/3 844/2/3
f 846/2/3 838/2/3 843/2/3
f 846/4/3 843/4/3 845/4/3
f 847/2/3 838/2/3 846/2/3
f 848/4/3 839/4/3 838/4/3
f 848/2/3 838/2/3 847/2/3
f 849/2/3 841/2/3 840/2/3
f 849/4/3 839/4/3 848/4/3
f 849/2/3 840/2/3 839/2/3
f 850/4/3 848/4/3 847/4/3
f 850/2/3 846/2/3 845/2/3
f 850/2/3 847/2/3 846/2/3
f 851/2/3 849/2/3 848/2/3
f 851/4/3 848/4/3 850/4/3
f 852/2/3 850/2/3 845/2/3
f 852/2/3 851/2/3 850/2/3
f 853/2/3 849/2/3 851/2/3
f 853/2/3 851/2/3 852/2/3
f 854/2/3 844/2/3 835/2/3
f 854/4/3 845/4/3 844/4/3
f 855/2/3 852/2/3 845/2/3
f 855/4/3 845/4/3 854/4/3
f 856/2/3 852/2/3 855/2/3
f 857/4/3 853/4/3 852/4/3
f 857/2/3 852/2/3 856/2/3
f 858/2/3 849/2/3 853/2/3
f 858/4/3 853/4/3 857/4/3
f 859/2/3 841/2/3 849/2/3
f 859/2/3 849/2/3 858/2/3
f 860/4/3 856/4/3 855/4/3
f 860/2/3 855/2/3 854/2/3
f 861/2/3 858/2/3 857/2/3
f 861/4/3 856/4/3 860/4/3
f 861/2/3 857/2/3 856/2/3
f 862/2/3 860/2/3 854/2/3
f 862/2/3 854/2/3 835/2/3
f 862/2/3 861/2/3 860/2/3
f 863/2/3 861/2/3 862/2/3
f 864/2/3 858/2/3 861/2/3
f 864/2/3 861/2/3 863/2/3
f 865/4/3 859/4/3 858/4/3
f 865/2/3 858/2/3 864/2/3
f 866/2/3 841/2/3 859/2/3
f 866/4/3 859/4/3 865/4/3
f 867/2/3 841/2/3 866/2/3
f 868/2/3 841/2/3 867/2/3
f 869/2/3 864/2/3 863/2/3
f 870/2/3 864/2/3 869/2/3
f 871/4/3 865/4/3 864/4/3
f 871/2/3 864/2/3 870/2/3
f 872/2/3 867/2/3 866/2/3
f 872/4/3 865/4/3 871/4/3
f 872/2/3 866/2/3 865/2/3
f 873/2/3 867/2/3 872/2/3
f 874/2/3 867/2/3 873/2/3
f 875/2/3 871/2/3 870/2/3
f 875/2/3 873/2/3 872/2/3
f 875/2/3 872/2/3 871/2/3
f 876/2/3 873/2/3 875/2/3
f 880/2/3 878/2/3 877/2/3
f 881/2/3 878/2/3 880/2/3
f 884/2/3 880/2/3 879/2/3
f 885/2/3 880/2/3 884/2/3
f 886/2/3 882/2/3 881/2/3
f 887/2/3 882/2/3 886/2/3
f 890/2/3 884/2/3 883/2/3
f 891/2/3 884/2/3 890/2/3
f 892/2/3 888/2/3 887/2/3
f 893/2/3 888/2/3 892/2/3
f 897/4/3 896/4/3 895/4/3
f 898/4/3 896/4/3 897/4/3
f 901/4/3 900/4/3 899/4/3
f 902/4/3 900/4/3 901/4/3
f 903/2/3 890/2/3 889/2/3
f 904/2/3 890/2/3 903/2/3
f 907/2/3 894/2/3 893/2/3
f 908/2/3 894/2/3 907/2/3
f 909/2/3 905/2/3 904/2/3
f 910/2/3 905/2/3 909/2/3
f 913/2/3 907/2/3 906/2/3
f 914/2/3 907/2/3 913/2/3
f 915/2/3 911/2/3 910/2/3
f 916/2/3 911/2/3 915/2/3
f 917/2/3 913/2/3 912/2/3
f 918/2/3 913/2/3 917/2/3
f 919/2/3 917/2/3 916/2/3
f 920/2/3 917/2/3 919/2/3
f 926/2/3 922/2/3 921/2/3
f 927/2/3 922/2/3 926/2/3
f 928/2/3 924/2/3 923/2/3
f 929/2/3 924/2/3 928/2/3
f 932/2/3 926/2/3 925/2/3
f 933/2/3 926/2/3 932/2/3
f 934/2/3 930/2/3 929/2/3
f 935/2/3 930/2/3 934/2/3
f 937/2/3 932/2/3 931/2/3
f 938/2/3 932/2/3 937/2/3
f 939/2/3 936/2/3 935/2/3
f 940/2/3 936/2/3 939/2/3
f 943/4/3 942/4/3 941/4/3
f 944/4/3 942/4/3 943/4/3
f 947/4/3 946/4/3 945/4/3
f 948/4/3 946/4/3 947/4/3
f 953/2/3 950/2/3 949/2/3
f 954/2/3 950/2/3 953/2/3
f 957/2/3 952/2/3 951/2/3
f 958/2/3 952/2/3 957/2/3
f 959/2/3 955/2/3 954/2/3
f 960/2/3 955/2/3 959/2/3
f 963/2/3 957/2/3 956/2/3
f 964/2/3 957/2/3 963/2/3
f 965/2/3 961/2/3 960/2/3
f 966/2/3 961/2/3 965/2/3
f 967/2/3 963/2/3 962/2/3
f 968/2/3 963/2/3 967/2/3
f 971/4/3 970/4/3 969/4/3
f 972/4/3 970/4/3 971/4/3
f 975/4/3 974/4/3 973/4/3
f 976/4/3 974/4/3 975/4/3
f 979/4/3 978/4/3 977/4/3
f 980/4/3 978/4/3 979/4/3
f 983/4/3 982/4/3 981/4/3
f 984/4/3 982/4/3 983/4/3
f 987/3/3 986/3/3 985/3/3
f 988/3/3 986/3/3 987/3/3
f 991/3/3 990/3/3 989/3/3
f 992/3/3 990/3/3 991/3/3
f 995/3/3 994/3/3 993/3/3
f 996/3/3 994/3/3 995/3/3
f 999/3/3 998/3/3 997/3/3
f 1000/3/3 998/3/3 999/3/3
f 1003/3/3 1002/3/3 1001/3/3
f 1004/3/3 1002/3/3 1003/3/3
f 1007/3/3 1006/3/3 1005/3/3
f 1008/3/3 1006/3/3 1007/3/3
f 1011/3/3 1010/3/3 1009/3/3
f 1012/3/3 1010/3/3 1011/3/3
f 1015/3/3 1014/3/3 1013/3/3
f 1016/3/3 1014/3/3 1015/3/3
f 1019/3/3 1018/3/3 1017/3/3
f 1020/3/3 1018/3/3 1019/3/3
f 1023/3/3 1022/3/3 1021/3/3
f 1024/3/3 1022/3/3 1023/3/3
f 1027/3/3 1026/3/3 1025/3/3
f 1028/3/3 1026/3/3 1027/3/3
f 1031/3/3 1030/3/3 1029/3/3
f 1032/3/3 1030/3/3 1031/3/3
f 1035/3/3 1034/3/3 1033/3/3
f 1036/3/3 1034/3/3 1035/3/3
f 1039/3/3 1038/3/3 1037/3/3
f 1040/3/3 1038/3/3 1039/3/3
f 1043/3/3 1042/3/3 1041/3/3
f 1044/3/3 1042/3/3 1043/3/3
f 1047/3/3 1046/3/3 1045/3/3
f 1048/3/3 1046/3/3 1047/3/3
f 1051/4/3 1050/4/3 1049/4/3
f 1052/4/3 1050/4/3 1051/4/3
f 1055/4/3 1054/4/3 1053/4/3
f 1056/4/3 1054/4/3 1055/4/3
f 1059/4/3 1058/4/3 1057/4/3
f 1060/4/3 1058/4/3 1059/4/3
f 1063/4/3 1062/4/3 1061/4/3
f 1064/4/3 1062/4/3 1063/4/3
f 1067/3/3 1066/3/3 1065/3/3
f 1068/3/3 1066/3/3 1067/3/3
f 1071/3/3 1070/3/3 1069/3/3
f 1072/3/3 1070/3/3 1071/3/3
f 1075/3/3 1074/3/3 1073/3/3
f 1076/3/3 1074/3/3 1075/3/3
f 1079/3/3 1078/3/3 1077/3/3
f 1080/3/3 1078/3/3 1079/3/3
f 1083/3/3 1082/3/3 1081/3/3
f 1084/3/3 1082/3/3 1083/3/3
f 1087/3/3 1086/3/3 1085/3/3
f 1088/3/3 1086/3/3 1087/3/3
f 1091/3/3 1090/3/3 1089/3/3
f 1092/3/3 1090/3/3 1091/3/3
f 1095/3/3 1094/3/3 1093/3/3
f 1096/3/3 1094/3/3 1095/3/3
f 1099/3/3 1098/3/3 1097/3/3
f 1100/3/3 1098/3/3 1099/3/3
f 1103/3/3 1102/3/3 1101/3/3
f 1104/3/3 1102/3/3 1103/3/3
f 1107/3/3 1106/3/3 1105/3/3
f 1108/3/3 1106/3/3 1107/3/3
f 1111/4/3 1110/4/3 1109/4/3
f 1112/4/3 1110/4/3 1111/4/3
f 1115/4/3 1114/4/3 1113/4/3
f 1116/4/3 1114/4/3 1115/4/3
f 1119/3/3 1118/3/3 1117/3/3
f 1120/3/3 1118/3/3 1119/3/3
f 1123/4/3 1122/4/3 1121/4/3
f 1124/4/3 1122/4/3 1123/4/3
f 1127/4/3 1126/4/3 1125/4/3
f 1128/4/3 1126/4/3 1127/4/3
f 1131/3/3 1130/3/3 1129/3/3
f 1132/3/3 1130/3/3 1131/3/3
f 1135/3/3 1134/3/3 1133/3/3
f 1136/3/3 1134/3/3 1135/3/3
f 1139/3/3 1138/3/3 1137/3/3
f 1140/3/3 1138/3/3 1139/3/3
f 1143/3/3 1142/3/3 1141/3/3
f 1144/3/3 1142/3/3 1143/3/3
f 1147/3/3 1146/3/3 1145/3/3
f 1148/3/3 1146/3/3 1147/3/3
f 1151/3/3 1150/3/3 1149/3/3
f 1152/3/3 1150/3/3 1151/3/3
f 1155/3/3 1154/3/3 1153/3/3
f 1156/3/3 1154/3/3 1155/3/3
f 1159/3/3 1158/3/3 1157/3/3
f 1160/3/3 1158/3/3 1159/3/3
f 1163/3/3 1162/3/3 1161/3/3
f 1164/3/3 1162/3/3 1163/3/3
f 1167/3/3 1166/3/3 1165/3/3
f 1168/3/3 1166/3/3 1167/3/3
f 1171/3/3 1170/3/3 1169/3/3
f 1172/3/3 1170/3/3 1171/3/3
f 1175/3/3 1174/3/3 1173/3/3
f 1176/3/3 1174/3/3 1175/3/3
f 1179/3/3 1178/3/3 1177/3/3
f 1180/3/3 1178/3/3 1179/3/3
f 1183/3/3 1182/3/3 1181/3/3
f 1184/3/3 1182/3/3 1183/3/3
f 1187/3/3 1186/3/3 1185/3/3
f 1188/3/3 1186/3/3 1187/3/3
f 1191/3/3 1190/3/3 1189/3/3
f 1192/3/3 1190/3/3 1191/3/3
f 1195/3/3 1194/3/3 1193/3/3
f 1196/3/3 1194/3/3 1195/3/3
f 1199/3/3 1198/3/3 1197/3/3
f 1200/3/3 1198/3/3 1199/3/3
f 1203/3/3 1202/3/3 1201/3/3
f 1204/3/3 1202/3/3 1203/3/3
f 1207/3/3 1206/3/3 1205/3/3
f 1208/3/3 1206/3/3 1207/3/3
f 1211/3/3 1210/3/3 1209/3/3
f 1212/3/3 1210/3/3 1211/3/3
f 1215/3/3 1214/3/3 1213/3/3
f 1216/3/3 1214/3/3 1215/3/3
f 1219/3/3 1218/3/3 1217/3/3
f 1220/3/3 1218/3/3 1219/3/3
f 1223/3/3 1222/3/3 1221/3/3
f 1224/3/3 1222/3/3 1223/3/3
f 1227/3/3 1226/3/3 1225/3/3
f 1228/3/3 1226/3/3 1227/3/3
f 1231/3/3 1230/3/3 1229/3/3
f 1232/3/3 1230/3/3 1231/3/3
f 1235/3/3 1234/3/3 1233/3/3
f 1236/3/3 1234/3/3 1235/3/3
f 1239/3/3 1238/3/3 1237/3/3
f 1240/3/3 1238/3/3 1239/3/3
f 1243/3/3 1242/3/3 1241/3/3
f 1244/3/3 1242/3/3 1243/3/3
f 1247/3/3 1246/3/3 1245/3/3
f 1248/3/3 1246/3/3 1247/3/3
f 1251/3/3 1250/3/3 1249/3/3
f 1252/3/3 1250/3/3 1251/3/3
f 1255/3/3 1254/3/3 1253/3/3
f 1256/3/3 1254/3/3 1255/3/3
f 1257/4/4 1258/4/4 1259/4/4
f 1259/4/4 1258/4/4 1260/4/4
f 1261/4/4 1262/4/4 1263/4/4
f 1263/4/4 1262/4/4 1264/4/4
f 1265/4/4 1266/4/4 1267/4/4
f 1267/4/4 1266/4/4 1268/4/4
f 1269/4/4 1270/4/4 1271/4/4
f 1271/4/4 1270/4/4 1272/4/4
f 1273/4/4 1274/4/4 1275/4/4
f 1275/4/4 1274/4/4 1276/4/4
f 1277/4/4 1278/4/4 1279/4/4
f 1279/4/4 1278/4/4 1280/4/4
f 1281/3/4 1282/3/4 1285/3/4
f 1285/3/4 1282/3/4 1286/3/4
f 1283/4/4 1284/4/4 1287/4/4
f 1287/4/4 1284/4/4 1288/4/4
f 1289/4/4 1290/4/4 1291/4/4
f 1291/4/4 1290/4/4 1292/4/4
f 1293/3/4 1294/3/4 1295/3/4
f 1295/3/4 1294/3/4 1296/3/4
f 1297/3/4 1298/3/4 1299/3/4
f 1299/3/4 1298/3/4 1300/3/4
f 1301/3/4 1302/3/4 1303/3/4
f 1303/3/4 1302/3/4 1304/3/4
f 1305/3/4 1306/3/4 1307/3/4
f 1307/3/4 1306/3/4 1308/3/4
f 1309/3/4 1310/3/4 1311/3/4
f 1311/3/4 1310/3/4 1312/3/4
f 1313/3/4 1314/3/4 1315/3/4
f 1315/3/4 1314/3/4 1316/3/4
f 1317/3/4 1318/3/4 1319/3/4
f 1319/3/4 1318/3/4 1320/3/4
f 1321/3/4 1322/3/4 1323/3/4
f 1323/3/4 1322/3/4 1324/3/4
f 1325/3/4 1326/3/4 1327/3/4
f 1327/3/4 1326/3/4 1328/3/4
f 1329/3/4 1330/3/4 1331/3/4
f 1331/3/4 1330/3/4 1332/3/4
f 1333/3/4 1334/3/4 1335/3/4
f 1335/3/4 1334/3/4 1336/3/4
f 1337/4/4 1338/4/4 1339/4/4
f 1339/4/4 1338/4/4 1340/4/4
f 1341/4/4 1342/4/4 1343/4/4
f 1343/4/4 1342/4/4 1344/4/4
f 1345/3/4 1346/3/4 1347/3/4
f 1347/3/4 1346/3/4 1348/3/4
f 1349/3/4 1350/3/4 1351/3/4
f 1351/3/4 1350/3/4 1352/3/4
f 1353/3/4 1354/3/4 1355/3/4
f 1355/3/4 1354/3/4 1356/3/4
f 1357/4/4 1358/4/4 1359/4/4
f 1359/4/4 1358/4/4 1360/4/4
f 1361/4/4 1362/4/4 1363/4/4
f 1363/4/4 1362/4/4 1364/4/4
f 1365/3/4 1366/3/4 1367/3/4
f 1367/3/4 1366/3/4 1368/3/4
f 1369/3/4 1370/3/4 1371/3/4
f 1371/3/4 1370/3/4 1372/3/4
f 1373/3/4 1374/3/4 1375/3/4
f 1375/3/4 1374/3/4 1376/3/4
f 1377/3/4 1378/3/4 1379/3/4
f 1379/3/4 1378/3/4 1380/3/4
f 1381/3/4 1382/3/4 1383/3/4
f 1383/3/4 1382/3/4 1384/3/4
f 1385/3/4 1386/3/4 1387/3/4
f 1387/3/4 1386/3/4 1388/3/4
f 1389/3/4 1390/3/4 1391/3/4
f 1391/3/4 1390/3/4 1392/3/4
f 1393/3/4 1394/3/4 1395/3/4
f 1395/3/4 1394/3/4 1396/3/4
f 1397/3/4 1398/3/4 1399/3/4
f 1399/3/4 1398/3/4 1400/3/4
f 1401/4/4 1402/4/4 1403/4/4
f 1403/4/4 1402/4/4 1404/4/4
f 1405/4/4 1406/4/4 1407/4/4
f 1407/4/4 1406/4/4 1408/4/4
f 1409/3/4 1410/3/4 1411/3/4
f 1411/3/4 1410/3/4 1412/3/4
f 1413/3/4 1414/3/4 1415/3/4
f 1415/3/4 1414/3/4 1416/3/4
f 1417/3/4 1418/3/4 1421/3/4
f 1421/3/4 1418/3/4 1422/3/4
f 1419/4/4 1420/4/4 1424/4/4
f 1424/4/4 1420/4/4 1425/4/4
f 1423/4/4 1424/4/4 1428/4/4
f 1425/4/4 1426/4/4 1428/4/4
f 1424/4/4 1425/4/4 1428/4/4
f 1428/4/4 1426/4/4 1429/4/4
f 1429/4/4 1426/4/4 1430/4/4
f 1430/4/4 1426/4/4 1431/4/4
f 1431/4/4 1432/4/4 1435/4/4
f 1430/4/4 1431/4/4 1435/4/4
f 1433/4/4 1434/4/4 1436/4/4
f 1436/4/4 1434/4/4 1437/4/4
f 1430/4/4 1435/4/4 1438/4/4
f 1430/4/4 1438/4/4 1440/4/4
f 1438/3/4 1439/3/4 1440/3/4
f 1440/3/4 1439/3/4 1441/3/4
f 1430/4/4 1440/4/4 1442/4/4
f 1430/4/4 1442/4/4 1446/4/4
f 1442/3/4 1443/3/4 1446/3/4
f 1446/3/4 1443/3/4 1447/3/4
f 1430/4/4 1446/4/4 1448/4/4
f 1444/4/4 1445/4/4 1449/4/4
f 1449/4/4 1445/4/4 1450/4/4
f 1427/4/4 1428/4/4 1451/4/4
f 1428/4/4 1429/4/4 1451/4/4
f 1451/4/4 1429/4/4 1452/4/4
f 1452/4/4 1429/4/4 1453/4/4
f 1430/4/4 1448/4/4 1454/4/4
f 1454/4/4 1448/4/4 1455/4/4
f 1455/4/4 1448/4/4 1456/4/4
f 1452/4/4 1453/4/4 1457/4/4
f 1454/4/4 1455/4/4 1457/4/4
f 1453/4/4 1454/4/4 1457/4/4
f 1457/4/4 1455/4/4 1458/4/4
f 1458/4/4 1455/4/4 1459/4/4
f 1459/4/4 1455/4/4 1460/4/4
f 1458/4/4 1459/4/4 1461/4/4
f 1461/4/4 1459/4/4 1462/4/4
f 1463/3/4 1464/3/4 1465/3/4
f 1465/3/4 1464/3/4 1466/3/4
f 1467/3/4 1468/3/4 1469/3/4
f 1469/3/4 1468/3/4 1470/3/4
f 1471/3/4 1472/3/4 1475/3/4
f 1475/3/4 1472/3/4 1476/3/4
f 1473/4/4 1474/4/4 1477/4/4
f 1477/4/4 1474/4/4 1478/4/4
f 1473/4/4 1477/4/4 1479/4/4
f 1478/4/4 1474/4/4 1480/4/4
f 1473/4/4 1479/4/4 1481/4/4
f 1479/4/4 1480/4/4 1481/4/4
f 1480/4/4 1474/4/4 1482/4/4
f 1481/4/4 1480/4/4 1482/4/4
f 1483/3/4 1484/3/4 1485/3/4
f 1485/3/4 1484/3/4 1486/3/4
f 1487/3/4 1488/3/4 1489/3/4
f 1489/3/4 1488/3/4 1490/3/4
f 1491/3/4 1492/3/4 1493/3/4
f 1493/3/4 1492/3/4 1494/3/4
f 1495/3/4 1496/3/4 1499/3/4
f 1499/3/4 1496/3/4 1500/3/4
f 1497/4/4 1498/4/4 1503/4/4
f 1503/4/4 1498/4/4 1504/4/4
f 1501/3/4 1502/3/4 1505/3/4
f 1505/3/4 1502/3/4 1506/3/4
f 1507/3/4 1508/3/4 1509/3/4
f 1509/3/4 1508/3/4 1510/3/4
f 1511/3/4 1512/3/4 1513/3/4
f 1513/3/4 1512/3/4 1514/3/4
f 1515/3/4 1516/3/4 1517/3/4
f 1517/3/4 1516/3/4 1518/3/4
f 1519/3/4 1520/3/4 1521/3/4
f 1521/3/4 1520/3/4 1522/3/4
f 1523/3/4 1524/3/4 1525/3/4
f 1525/3/4 1524/3/4 1526/3/4
f 1527/3/4 1528/3/4 1529/3/4
f 1529/3/4 1528/3/4 1530/3/4
f 1531/3/4 1532/3/4 1533/3/4
f 1533/3/4 1532/3/4 1534/3/4
f 1535/3/4 1536/3/4 1537/3/4
f 1537/3/4 1536/3/4 1538/3/4
f 1539/3/4 1540/3/4 1541/3/4
f 1541/3/4 1540/3/4 1542/3/4
f 1543/3/4 1544/3/4 1545/3/4
f 1545/3/4 1544/3/4 1546/3/4
f 1547/3/4 1548/3/4 1549/3/4
f 1549/3/4 1548/3/4 1550/3/4
f 1551/3/4 1552/3/4 1553/3/4
f 1553/3/4 1552/3/4 1554/3/4
f 1555/3/4 1556/3/4 1557/3/4
f 1557/3/4 1556/3/4 1558/3/4
f 1559/3/4 1560/3/4 1561/3/4
f 1561/3/4 1560/3/4 1562/3/4
f 1563/3/4 1564/3/4 1565/3/4
f 1565/3/4 1564/3/4 1566/3/4
f 1567/3/4 1568/3/4 1569/3/4
f 1569/3/4 1568/3/4 1570/3/4
f 1571/3/4 1572/3/4 1573/3/4
f 1573/3/4 1572/3/4 1574/3/4
f 1575/3/4 1576/3/4 1577/3/4
f 1577/3/4 1576/3/4 1578/3/4
f 1579/3/4 1580/3/4 1581/3/4
f 1581/3/4 1580/3/4 1582/3/4
f 1587/4/5 1584/4/5 1583/4/5
f 1588/4/5 1584/4/5 1587/4/5
f 1589/4/5 1586/4/5 1585/4/5
f 1590/4/5 1586/4/5 1589/4/5
f 1595/4/5 1592/4/5 1591/4/5
f 1596/4/5 1592/4/5 1595/4/5
f 1597/4/5 1594/4/5 1593/4/5
f 1598/4/5 1594/4/5 1597/4/5
f 1603/4/5 1600/4/5 1599/4/5
f 1604/4/5 1600/4/5 1603/4/5
f 1605/4/5 1602/4/5 1601/4/5
f 1606/4/5 1602/4/5 1605/4/5
f 1611/4/5 1608/4/5 1607/4/5
f 1612/4/5 1608/4/5 1611/4/5
f 1613/4/5 1610/4/5 1609/4/5
f 1614/4/5 1610/4/5 1613/4/5
f 1619/4/5 1616/4/5 1615/4/5
f 1620/4/5 1616/4/5 1619/4/5
f 1621/4/5 1618/4/5 1617/4/5
f 1622/4/5 1618/4/5 1621/4/5
f 1627/4/5 1624/4/5 1623/4/5
f 1628/4/5 1624/4/5 1627/4/5
f 1629/4/5 1626/4/5 1625/4/5
f 1630/4/5 1626/4/5 1629/4/5
f 1634/2/5 1632/2/5 1631/2/5
f 1635/2/5 1632/2/5 1634/2/5
f 1637/2/5 1634/2/5 1633/2/5
f 1637/2/5 1636/2/5 1635/2/5
f 1637/2/5 1635/2/5 1634/2/5
f 1638/2/5 1636/2/5 1637/2/5
f 1639/2/5 1636/2/5 1638/2/5
f 1640/2/5 1636/2/5 1639/2/5
f 1641/2/5 1637/2/5 1633/2/5
f 1642/2/5 1637/2/5 1641/2/5
f 1643/2/5 1639/2/5 1638/2/5
f 1644/2/5 1639/2/5 1643/2/5
f 1645/2/5 1636/2/5 1640/2/5
f 1646/2/5 1636/2/5 1645/2/5
f 1647/4/5 1644/4/5 1643/4/5
f 1647/4/5 1642/4/5 1641/4/5
f 1647/4/5 1646/4/5 1645/4/5
f 1647/4/5 1645/4/5 1644/4/5
f 1647/4/5 1643/4/5 1642/4/5
f 1648/4/5 1646/4/5 1647/4/5
f 1649/2/5 1648/2/5 1647/2/5
f 1650/2/5 1648/2/5 1649/2/5
f 1651/2/5 1648/2/5 1650/2/5
f 1652/2/5 1648/2/5 1651/2/5
f 1653/2/5 1649/2/5 1647/2/5
f 1654/2/5 1649/2/5 1653/2/5
f 1655/2/5 1651/2/5 1650/2/5
f 1656/2/5 1651/2/5 1655/2/5
f 1657/2/5 1648/2/5 1652/2/5
f 1658/2/5 1648/2/5 1657/2/5
f 1659/4/5 1656/4/5 1655/4/5
f 1659/4/5 1654/4/5 1653/4/5
f 1659/4/5 1658/4/5 1657/4/5
f 1659/4/5 1657/4/5 1656/4/5
f 1659/4/5 1655/4/5 1654/4/5
f 1660/4/5 1658/4/5 1659/4/5
f 1661/2/5 1660/2/5 1659/2/5
f 1662/2/5 1660/2/5 1661/2/5
f 1663/2/5 1660/2/5 1662/2/5
f 1664/2/5 1660/2/5 1663/2/5
f 1665/2/5 1661/2/5 1659/2/5
f 1666/2/5 1661/2/5 1665/2/5
f 1667/2/5 1663/2/5 1662/2/5
f 1668/2/5 1663/2/5 1667/2/5
f 1669/2/5 1660/2/5 1664/2/5
f 1670/2/5 1660/2/5 1669/2/5
f 1671/4/5 1668/4/5 1667/4/5
f 1671/4/5 1666/4/5 1665/4/5
f 1671/4/5 1670/4/5 1669/4/5
f 1671/4/5 1669/4/5 1668/4/5
f 1671/4/5 1667/4/5 1666/4/5
f 1672/4/5 1670/4/5 1671/4/5
f 1676/2/5 1674/2/5 1673/2/5
f 1677/2/5 1674/2/5 1676/2/5
f 1680/2/5 1676/2/5 1675/2/5
f 1681/2/5 1676/2/5 1680/2/5
f 1682/2/5 1678/2/5 1677/2/5
f 1683/2/5 1678/2/5 1682/2/5
f 1685/2/5 1680/2/5 1679/2/5
f 1686/2/5 1680/2/5 1685/2/5
f 1687/2/5 1684/2/5 1683/2/5
f 1688/2/5 1684/2/5 1687/2/5
f 1689/4/5 1686/4/5 1685/4/5
f 1690/4/5 1686/4/5 1689/4/5
f 1691/4/5 1688/4/5 1687/4/5
f 1692/4/5 1688/4/5 1691/4/5
f 1693/2/5 1690/2/5 1689/2/5
f 1694/2/5 1690/2/5 1693/2/5
f 1695/2/5 1692/2/5 1691/2/5
f 1696/2/5 1692/2/5 1695/2/5
f 1697/4/5 1694/4/5 1693/4/5
f 1698/4/5 1694/4/5 1697/4/5
f 1699/4/5 1696/4/5 1695/4/5
f 1700/4/5 1696/4/5 1699/4/5
f 1701/2/5 1698/2/5 1697/2/5
f 1702/2/5 1698/2/5 1701/2/5
f 1703/2/5 1700/2/5 1699/2/5
f 1704/2/5 1700/2/5 1703/2/5
f 1705/4/5 1702/4/5 1701/4/5
f 1706/4/5 1702/4/5 1705/4/5
f 1707/4/5 1704/4/5 1703/4/5
f 1708/4/5 1704/4/5 1707/4/5
f 1714/2/5 1710/2/5 1709/2/5
f 1715/2/5 1710/2/5 1714/2/5
f 1716/2/5 1712/2/5 1711/2/5
f 1717/2/5 1712/2/5 1716/2/5
f 1720/2/5 1714/2/5 1713/2/5
f 1721/2/5 1714/2/5 1720/2/5
f 1722/2/5 1718/2/5 1717/2/5
f 1723/2/5 1718/2/5 1722/2/5
f 1725/2/5 1720/2/5 1719/2/5
f 1726/2/5 1720/2/5 1725/2/5
f 1727/2/5 1724/2/5 1723/2/5
f 1728/2/5 1724/2/5 1727/2/5
f 1729/4/5 1726/4/5 1725/4/5
f 1730/4/5 1726/4/5 1729/4/5
f 1731/4/5 1728/4/5 1727/4/5
f 1732/4/5 1728/4/5 1731/4/5
f 1733/2/5 1730/2/5 1729/2/5
f 1734/2/5 1730/2/5 1733/2/5
f 1735/2/5 1732/2/5 1731/2/5
f 1736/2/5 1732/2/5 1735/2/5
f 1737/4/5 1734/4/5 1733/4/5
f 1738/4/5 1734/4/5 1737/4/5
f 1739/4/5 1736/4/5 1735/4/5
f 1740/4/5 1736/4/5 1739/4/5
f 1741/2/5 1738/2/5 1737/2/5
f 1742/2/5 1738/2/5 1741/2/5
f 1743/2/5 1740/2/5 1739/2/5
f 1744/2/5 1740/2/5 1743/2/5
f 1745/4/5 1742/4/5 1741/4/5
f 1746/4/5 1742/4/5 1745/4/5
f 1749/4/5 1744/4/5 1743/4/5
f 1750/4/5 1744/4/5 1749/4/5
f 1751/4/5 1748/4/5 1747/4/5
f 1752/4/5 1748/4/5 1751/4/5
f 1758/2/5 1754/2/5 1753/2/5
f 1759/2/5 1754/2/5 1758/2/5
f 1760/2/5 1756/2/5 1755/2/5
f 1761/2/5 1756/2/5 1760/2/5
f 1763/2/5 1758/2/5 1757/2/5
f 1764/2/5 1758/2/5 1763/2/5
f 1765/2/5 1762/2/5 1761/2/5
f 1766/2/5 1762/2/5 1765/2/5
f 1769/4/5 1768/4/5 1767/4/5
f 1770/4/5 1768/4/5 1769/4/5
f 1776/3/5 1772/3/5 1771/3/5
f 1777/3/5 1772/3/5 1776/3/5
f 1778/3/5 1774/3/5 1773/3/5
f 1779/3/5 1774/3/5 1778/3/5
f 1782/3/5 1776/3/5 1775/3/5
f 1783/3/5 1776/3/5 1782/3/5
f 1784/3/5 1780/3/5 1779/3/5
f 1785/3/5 1780/3/5 1784/3/5
f 1788/3/5 1782/3/5 1781/3/5
f 1789/3/5 1782/3/5 1788/3/5
f 1794/3/5 1786/3/5 1785/3/5
f 1795/3/5 1786/3/5 1794/3/5
f 1797/3/5 1791/3/5 1790/3/5
f 1798/3/5 1793/3/5 1792/3/5
f 1800/3/5 1797/3/5 1790/3/5
f 1801/3/5 1797/3/5 1800/3/5
f 1802/3/5 1793/3/5 1798/3/5
f 1803/3/5 1793/3/5 1802/3/5
f 1806/3/5 1788/3/5 1787/3/5
f 1807/3/5 1788/3/5 1806/3/5
f 1809/3/5 1800/3/5 1799/3/5
f 1810/3/5 1804/3/5 1803/3/5
f 1812/3/5 1796/3/5 1795/3/5
f 1813/3/5 1796/3/5 1812/3/5
f 1815/3/5 1806/3/5 1805/3/5
f 1816/3/5 1809/3/5 1808/3/5
f 1817/3/5 1800/3/5 1809/3/5
f 1817/3/5 1809/3/5 1816/3/5
f 1818/3/5 1811/3/5 1810/3/5
f 1818/3/5 1810/3/5 1803/3/5
f 1819/3/5 1811/3/5 1818/3/5
f 1820/3/5 1814/3/5 1813/3/5
f 1821/3/5 1815/3/5 1805/3/5
f 1821/3/5 1816/3/5 1815/3/5
f 1822/3/5 1816/3/5 1821/3/5
f 1823/3/5 1820/3/5 1819/3/5
f 1824/3/5 1814/3/5 1820/3/5
f 1824/3/5 1820/3/5 1823/3/5
f 1826/3/5 1821/3/5 1805/3/5
f 1827/3/5 1821/3/5 1826/3/5
f 1828/3/5 1814/3/5 1824/3/5
f 1829/3/5 1814/3/5 1828/3/5
f 1832/3/5 1800/3/5 1817/3/5
f 1833/3/5 1800/3/5 1832/3/5
f 1836/3/5 1818/3/5 1803/3/5
f 1837/3/5 1818/3/5 1836/3/5
f 1839/3/5 1826/3/5 1825/3/5
f 1840/3/5 1832/3/5 1831/3/5
f 1841/3/5 1832/3/5 1840/3/5
f 1842/3/5 1834/3/5 1833/3/5
f 1847/3/5 1836/3/5 1835/3/5
f 1848/3/5 1838/3/5 1837/3/5
f 1849/3/5 1838/3/5 1848/3/5
f 1850/3/5 1830/3/5 1829/3/5
f 1852/3/5 1839/3/5 1825/3/5
f 1852/3/5 1840/3/5 1839/3/5
f 1853/3/5 1840/3/5 1852/3/5
f 1855/3/5 1842/3/5 1833/3/5
f 1856/3/5 1842/3/5 1855/3/5
f 1857/3/5 1844/3/5 1843/3/5
f 1858/3/5 1846/3/5 1845/3/5
f 1859/3/5 1836/3/5 1847/3/5
f 1860/3/5 1836/3/5 1859/3/5
f 1862/3/5 1850/3/5 1849/3/5
f 1863/3/5 1830/3/5 1850/3/5
f 1863/3/5 1850/3/5 1862/3/5
f 1866/3/5 1855/3/5 1854/3/5
f 1867/3/5 1855/3/5 1866/3/5
f 1868/3/5 1857/3/5 1856/3/5
f 1869/3/5 1844/3/5 1857/3/5
f 1869/3/5 1857/3/5 1868/3/5
f 1870/3/5 1858/3/5 1845/3/5
f 1870/3/5 1859/3/5 1858/3/5
f 1871/3/5 1859/3/5 1870/3/5
f 1872/3/5 1861/3/5 1860/3/5
f 1873/3/5 1861/3/5 1872/3/5
f 1876/3/5 1866/3/5 1865/3/5
f 1877/3/5 1866/3/5 1876/3/5
f 1879/3/5 1844/3/5 1869/3/5
f 1880/3/5 1844/3/5 1879/3/5
f 1881/3/5 1870/3/5 1845/3/5
f 1882/3/5 1870/3/5 1881/3/5
f 1884/3/5 1874/3/5 1873/3/5
f 1885/3/5 1874/3/5 1884/3/5
f 1887/3/5 1852/3/5 1851/3/5
f 1888/3/5 1852/3/5 1887/3/5
f 1891/3/5 1864/3/5 1863/3/5
f 1892/3/5 1864/3/5 1891/3/5
f 1894/3/5 1879/3/5 1878/3/5
f 1895/3/5 1879/3/5 1894/3/5
f 1896/3/5 1883/3/5 1882/3/5
f 1897/3/5 1883/3/5 1896/3/5
f 1899/3/5 1889/3/5 1888/3/5
f 1900/3/5 1889/3/5 1899/3/5
f 1903/3/5 1894/3/5 1893/3/5
f 1904/3/5 1894/3/5 1903/3/5
f 1905/3/5 1898/3/5 1897/3/5
f 1906/3/5 1898/3/5 1905/3/5
f 1909/3/5 1891/3/5 1890/3/5
f 1910/3/5 1891/3/5 1909/3/5
f 1911/3/5 1901/3/5 1900/3/5
f 1912/3/5 1901/3/5 1911/3/5
f 1913/3/5 1876/3/5 1875/3/5
f 1914/3/5 1876/3/5 1913/3/5
f 1915/3/5 1903/3/5 1902/3/5
f 1916/3/5 1903/3/5 1915/3/5
f 1917/3/5 1907/3/5 1906/3/5
f 1918/3/5 1907/3/5 1917/3/5
f 1919/3/5 1886/3/5 1885/3/5
f 1920/3/5 1886/3/5 1919/3/5
f 1921/3/5 1909/3/5 1908/3/5
f 1922/3/5 1909/3/5 1921/3/5
f 1923/3/5 1914/3/5 1913/3/5
f 1923/3/5 1913/3/5 1912/3/5
f 1923/3/5 1915/3/5 1914/3/5
f 1924/3/5 1915/3/5 1923/3/5
f 1925/3/5 1921/3/5 1920/3/5
f 1925/3/5 1920/3/5 1919/3/5
f 1925/3/5 1919/3/5 1918/3/5
f 1926/3/5 1921/3/5 1925/3/5
f 1931/4/5 1928/4/5 1927/4/5
f 1932/4/5 1928/4/5 1931/4/5
f 1933/4/5 1930/4/5 1929/4/5
f 1934/4/5 1930/4/5 1933/4/5
f 1935/4/6 1936/4/6 1939/4/6
f 1939/4/6 1936/4/6 1940/4/6
f 1937/4/6 1938/4/6 1941/4/6
f 1941/4/6 1938/4/6 1942/4/6
f 1943/4/6 1944/4/6 1947/4/6
f 1947/4/6 1944/4/6 1948/4/6
f 1945/4/6 1946/4/6 1949/4/6
f 1949/4/6 1946/4/6 1950/4/6
f 1951/4/6 1952/4/6 1955/4/6
f 1955/4/6 1952/4/6 1956/4/6
f 1953/4/6 1954/4/6 1957/4/6
f 1957/4/6 1954/4/6 1958/4/6
f 1959/2/6 1960/2/6 1964/2/6
f 1964/2/6 1960/2/6 1965/2/6
f 1961/2/6 1962/2/6 1966/2/6
f 1966/2/6 1962/2/6 1967/2/6
f 1963/2/6 1964/2/6 1969/2/6
f 1969/2/6 1964/2/6 1970/2/6
f 1967/2/6 1968/2/6 1971/2/6
f 1971/2/6 1968/2/6 1972/2/6
f 1973/4/6 1974/4/6 1975/4/6
f 1975/4/6 1974/4/6 1976/4/6
f 1977/2/6 1978/2/6 1982/2/6
f 1982/2/6 1978/2/6 1983/2/6
f 1979/2/6 1980/2/6 1984/2/6
f 1984/2/6 1980/2/6 1985/2/6
f 1981/2/6 1982/2/6 1988/2/6
f 1988/2/6 1982/2/6 1989/2/6
f 1985/2/6 1986/2/6 1990/2/6
f 1990/2/6 1986/2/6 1991/2/6
f 1987/2/6 1988/2/6 1993/2/6
f 1993/2/6 1988/2/6 1994/2/6
f 1991/2/6 1992/2/6 1995/2/6
f 1995/2/6 1992/2/6 1996/2/6
f 1993/4/6 1994/4/6 1997/4/6
f 1997/4/6 1994/4/6 1998/4/6
f 1995/4/6 1996/4/6 1999/4/6
f 1999/4/6 1996/4/6 2000/4/6
f 1997/2/6 1998/2/6 2001/2/6
f 2001/2/6 1998/2/6 2002/2/6
f 1999/2/6 2000/2/6 2003/2/6
f 2003/2/6 2000/2/6 2004/2/6
f 2001/4/6 2002/4/6 2005/4/6
f 2005/4/6 2002/4/6 2006/4/6
f 2003/4/6 2004/4/6 2007/4/6
f 2007/4/6 2004/4/6 2008/4/6
f 2005/2/6 2006/2/6 2009/2/6
f 2009/2/6 2006/2/6 2010/2/6
f 2007/2/6 2008/2/6 2011/2/6
f 2011/2/6 2008/2/6 2012/2/6
f 2009/4/6 2010/4/6 2013/4/6
f 2013/4/6 2010/4/6 2014/4/6
f 2011/4/6 2012/4/6 2017/4/6
f 2017/4/6 2012/4/6 2018/4/6
f 2015/4/6 2016/4/6 2019/4/6
f 2019/4/6 2016/4/6 2020/4/6
f 2021/2/6 2022/2/6 2024/2/6
f 2024/2/6 2022/2/6 2025/2/6
f 2023/2/6 2024/2/6 2028/2/6
f 2028/2/6 2024/2/6 2029/2/6
f 2025/2/6 2026/2/6 2030/2/6
f 2030/2/6 2026/2/6 2031/2/6
f 2027/2/6 2028/2/6 2033/2/6
f 2033/2/6 2028/2/6 2034/2/6
f 2031/2/6 2032/2/6 2035/2/6
f 2035/2/6 2032/2/6 2036/2/6
f 2033/4/6 2034/4/6 2037/4/6
f 2037/4/6 2034/4/6 2038/4/6
f 2035/4/6 2036/4/6 2039/4/6
f 2039/4/6 2036/4/6 2040/4/6
f 2037/2/6 2038/2/6 2041/2/6
f 2041/2/6 2038/2/6 2042/2/6
f 2039/2/6 2040/2/6 2043/2/6
f 2043/2/6 2040/2/6 2044/2/6
f 2041/4/6 2042/4/6 2045/4/6
f 2045/4/6 2042/4/6 2046/4/6
f 2043/4/6 2044/4/6 2047/4/6
f 2047/4/6 2044/4/6 2048/4/6
f 2045/2/6 2046/2/6 2049/2/6
f 2049/2/6 2046/2/6 2050/2/6
f 2047/2/6 2048/2/6 2051/2/6
f 2051/2/6 2048/2/6 2052/2/6
f 2049/4/6 2050/4/6 2053/4/6
f 2053/4/6 2050/4/6 2054/4/6
f 2051/4/6 2052/4/6 2055/4/6
f 2055/4/6 2052/4/6 2056/4/6
f 2057/2/6 2058/2/6 2060/2/6
f 2060/2/6 2058/2/6 2061/2/6
f 2061/2/6 2058/2/6 2062/2/6
f 2062/2/6 2058/2/6 2063/2/6
f 2063/2/6 2058/2/6 2064/2/6
f 2064/2/6 2058/2/6 2065/2/6
f 2059/2/6 2060/2/6 2067/2/6
f 2060/2/6 2061/2/6 2067/2/6
f 2062/2/6 2063/2/6 2068/2/6
f 2068/2/6 2063/2/6 2069/2/6
f 2065/2/6 2066/2/6 2070/2/6
f 2064/2/6 2065/2/6 2070/2/6
f 2068/2/6 2069/2/6 2071/2/6
f 2069/2/6 2070/2/6 2071/2/6
f 2067/2/6 2068/2/6 2071/2/6
f 2059/2/6 2067/2/6 2071/2/6
f 2070/2/6 2066/2/6 2072/2/6
f 2071/2/6 2070/2/6 2072/2/6
f 2071/4/6 2072/4/6 2073/4/6
f 2073/4/6 2072/4/6 2074/4/6
f 2074/4/6 2072/4/6 2075/4/6
f 2075/4/6 2072/4/6 2076/4/6
f 2074/4/6 2075/4/6 2079/4/6
f 2079/4/6 2075/4/6 2080/4/6
f 2080/4/6 2075/4/6 2081/4/6
f 2081/4/6 2075/4/6 2082/4/6
f 2077/2/6 2078/2/6 2085/2/6
f 2085/2/6 2078/2/6 2086/2/6
f 2083/2/6 2084/2/6 2089/2/6
f 2089/2/6 2084/2/6 2090/2/6
f 2086/2/6 2087/2/6 2092/2/6
f 2088/2/6 2089/2/6 2093/2/6
f 2091/2/6 2092/2/6 2095/2/6
f 2092/2/6 2087/2/6 2096/2/6
f 2095/2/6 2092/2/6 2096/2/6
f 2080/2/6 2081/2/6 2097/2/6
f 2097/2/6 2081/2/6 2098/2/6
f 2093/2/6 2094/2/6 2099/2/6
f 2088/2/6 2093/2/6 2099/2/6
f 2099/2/6 2094/2/6 2100/2/6
f 2095/4/6 2096/4/6 2101/4/6
f 2099/4/6 2100/4/6 2102/4/6
f 2101/4/6 2096/4/6 2103/4/6
f 2103/4/6 2096/4/6 2104/4/6
f 2097/4/6 2098/4/6 2105/4/6
f 2105/4/6 2098/4/6 2106/4/6
f 2099/4/6 2102/4/6 2107/4/6
f 2107/4/6 2102/4/6 2108/4/6
f 2103/2/6 2104/2/6 2109/2/6
f 2105/2/6 2106/2/6 2110/2/6
f 2110/2/6 2106/2/6 2111/2/6
f 2111/2/6 2106/2/6 2112/2/6
f 2112/2/6 2106/2/6 2113/2/6
f 2107/2/6 2108/2/6 2114/2/6
f 2103/2/6 2109/2/6 2115/2/6
f 2109/2/6 2110/2/6 2115/2/6
f 2115/2/6 2110/2/6 2116/2/6
f 2111/2/6 2112/2/6 2117/2/6
f 2117/2/6 2112/2/6 2118/2/6
f 2113/2/6 2114/2/6 2119/2/6
f 2114/2/6 2108/2/6 2120/2/6
f 2119/2/6 2114/2/6 2120/2/6
f 2115/4/6 2116/4/6 2121/4/6
f 2119/4/6 2120/4/6 2122/4/6
f 2121/4/6 2116/4/6 2123/4/6
f 2123/4/6 2116/4/6 2124/4/6
f 2124/4/6 2116/4/6 2125/4/6
f 2117/4/6 2118/4/6 2126/4/6
f 2126/4/6 2118/4/6 2127/4/6
f 2119/4/6 2122/4/6 2128/4/6
f 2128/4/6 2122/4/6 2129/4/6
f 2129/4/6 2122/4/6 2130/4/6
f 2131/3/6 2132/3/6 2136/3/6
f 2136/3/6 2132/3/6 2137/3/6
f 2137/3/6 2132/3/6 2138/3/6
f 2133/3/6 2134/3/6 2141/3/6
f 2141/3/6 2134/3/6 2142/3/6
f 2142/3/6 2134/3/6 2143/3/6
f 2135/3/6 2136/3/6 2146/3/6
f 2146/3/6 2136/3/6 2147/3/6
f 2138/3/6 2139/3/6 2148/3/6
f 2137/3/6 2138/3/6 2148/3/6
f 2148/3/6 2139/3/6 2149/3/6
f 2141/3/6 2142/3/6 2150/3/6
f 2140/3/6 2141/3/6 2150/3/6
f 2150/3/6 2142/3/6 2151/3/6
f 2143/3/6 2144/3/6 2152/3/6
f 2152/3/6 2144/3/6 2153/3/6
f 2145/3/6 2146/3/6 2156/3/6
f 2156/3/6 2146/3/6 2157/3/6
f 2153/3/6 2154/3/6 2158/3/6
f 2158/3/6 2154/3/6 2159/3/6
f 2155/3/6 2156/3/6 2162/3/6
f 2162/3/6 2156/3/6 2163/3/6
f 2147/3/6 2148/3/6 2165/3/6
f 2165/3/6 2148/3/6 2166/3/6
f 2151/3/6 2152/3/6 2167/3/6
f 2167/3/6 2152/3/6 2168/3/6
f 2159/3/6 2160/3/6 2170/3/6
f 2170/3/6 2160/3/6 2171/3/6
f 2164/3/6 2165/3/6 2174/3/6
f 2174/3/6 2165/3/6 2175/3/6
f 2168/3/6 2169/3/6 2176/3/6
f 2176/3/6 2169/3/6 2177/3/6
f 2161/3/6 2162/3/6 2180/3/6
f 2180/3/6 2162/3/6 2181/3/6
f 2173/3/6 2174/3/6 2183/3/6
f 2177/3/6 2178/3/6 2184/3/6
f 2171/3/6 2172/3/6 2186/3/6
f 2186/3/6 2172/3/6 2187/3/6
f 2179/3/6 2180/3/6 2189/3/6
f 2182/3/6 2183/3/6 2190/3/6
f 2183/3/6 2174/3/6 2191/3/6
f 2190/3/6 2183/3/6 2191/3/6
f 2149/3/6 2139/3/6 2192/3/6
f 2192/3/6 2139/3/6 2193/3/6
f 2140/3/6 2150/3/6 2196/3/6
f 2196/3/6 2150/3/6 2197/3/6
f 2184/3/6 2185/3/6 2198/3/6
f 2177/3/6 2184/3/6 2198/3/6
f 2198/3/6 2185/3/6 2199/3/6
f 2187/3/6 2188/3/6 2200/3/6
f 2179/3/6 2189/3/6 2201/3/6
f 2189/3/6 2190/3/6 2201/3/6
f 2201/3/6 2190/3/6 2202/3/6
f 2199/3/6 2200/3/6 2203/3/6
f 2200/3/6 2188/3/6 2204/3/6
f 2203/3/6 2200/3/6 2204/3/6
f 2179/3/6 2201/3/6 2206/3/6
f 2206/3/6 2201/3/6 2207/3/6
f 2204/3/6 2188/3/6 2208/3/6
f 2208/3/6 2188/3/6 2209/3/6
f 2191/3/6 2174/3/6 2212/3/6
f 2212/3/6 2174/3/6 2213/3/6
f 2177/3/6 2198/3/6 2216/3/6
f 2216/3/6 2198/3/6 2217/3/6
f 2205/3/6 2206/3/6 2219/3/6
f 2211/3/6 2212/3/6 2220/3/6
f 2220/3/6 2212/3/6 2221/3/6
f 2193/3/6 2194/3/6 2223/3/6
f 2223/3/6 2194/3/6 2224/3/6
f 2195/3/6 2196/3/6 2225/3/6
f 2225/3/6 2196/3/6 2226/3/6
f 2217/3/6 2218/3/6 2228/3/6
f 2228/3/6 2218/3/6 2229/3/6
f 2209/3/6 2210/3/6 2230/3/6
f 2205/3/6 2219/3/6 2232/3/6
f 2219/3/6 2220/3/6 2232/3/6
f 2232/3/6 2220/3/6 2233/3/6
f 2213/3/6 2214/3/6 2235/3/6
f 2235/3/6 2214/3/6 2236/3/6
f 2222/3/6 2223/3/6 2237/3/6
f 2226/3/6 2227/3/6 2238/3/6
f 2215/3/6 2216/3/6 2239/3/6
f 2239/3/6 2216/3/6 2240/3/6
f 2229/3/6 2230/3/6 2242/3/6
f 2230/3/6 2210/3/6 2243/3/6
f 2242/3/6 2230/3/6 2243/3/6
f 2234/3/6 2235/3/6 2246/3/6
f 2246/3/6 2235/3/6 2247/3/6
f 2236/3/6 2237/3/6 2248/3/6
f 2237/3/6 2223/3/6 2249/3/6
f 2248/3/6 2237/3/6 2249/3/6
f 2226/3/6 2238/3/6 2250/3/6
f 2238/3/6 2239/3/6 2250/3/6
f 2250/3/6 2239/3/6 2251/3/6
f 2240/3/6 2241/3/6 2252/3/6
f 2252/3/6 2241/3/6 2253/3/6
f 2245/3/6 2246/3/6 2256/3/6
f 2256/3/6 2246/3/6 2257/3/6
f 2249/3/6 2223/3/6 2259/3/6
f 2259/3/6 2223/3/6 2260/3/6
f 2226/3/6 2250/3/6 2261/3/6
f 2261/3/6 2250/3/6 2262/3/6
f 2253/3/6 2254/3/6 2264/3/6
f 2264/3/6 2254/3/6 2265/3/6
f 2231/3/6 2232/3/6 2267/3/6
f 2267/3/6 2232/3/6 2268/3/6
f 2243/3/6 2244/3/6 2271/3/6
f 2271/3/6 2244/3/6 2272/3/6
f 2258/3/6 2259/3/6 2274/3/6
f 2274/3/6 2259/3/6 2275/3/6
f 2262/3/6 2263/3/6 2276/3/6
f 2276/3/6 2263/3/6 2277/3/6
f 2268/3/6 2269/3/6 2279/3/6
f 2279/3/6 2269/3/6 2280/3/6
f 2273/3/6 2274/3/6 2283/3/6
f 2283/3/6 2274/3/6 2284/3/6
f 2277/3/6 2278/3/6 2285/3/6
f 2285/3/6 2278/3/6 2286/3/6
f 2270/3/6 2271/3/6 2289/3/6
f 2289/3/6 2271/3/6 2290/3/6
f 2280/3/6 2281/3/6 2291/3/6
f 2291/3/6 2281/3/6 2292/3/6
f 2255/3/6 2256/3/6 2293/3/6
f 2293/3/6 2256/3/6 2294/3/6
f 2282/3/6 2283/3/6 2295/3/6
f 2295/3/6 2283/3/6 2296/3/6
f 2286/3/6 2287/3/6 2297/3/6
f 2297/3/6 2287/3/6 2298/3/6
f 2265/3/6 2266/3/6 2299/3/6
f 2299/3/6 2266/3/6 2300/3/6
f 2288/3/6 2289/3/6 2301/3/6
f 2301/3/6 2289/3/6 2302/3/6
f 2293/3/6 2294/3/6 2303/3/6
f 2292/3/6 2293/3/6 2303/3/6
f 2294/3/6 2295/3/6 2303/3/6
f 2303/3/6 2295/3/6 2304/3/6
f 2300/3/6 2301/3/6 2305/3/6
f 2299/3/6 2300/3/6 2305/3/6
f 2298/3/6 2299/3/6 2305/3/6
f 2305/3/6 2301/3/6 2306/3/6
f 2307/4/6 2308/4/6 2311/4/6
f 2311/4/6 2308/4/6 2312/4/6
f 2309/4/6 2310/4/6 2313/4/6
f 2313/4/6 2310/4/6 2314/4/6
f 2315/4/6 2316/4/6 2319/4/6
f 2319/4/6 2316/4/6 2320/4/6
f 2317/4/6 2318/4/6 2321/4/6
f 2321/4/6 2318/4/6 2322/4/6
