# MagicaVoxel @ Ephtracy

# group
o 

# material
mtllib LeatherBoots.mtl
usemtl palette

# normals
vn -1 0 0
vn 1 0 0
vn 0 0 1
vn 0 0 -1
vn 0 -1 0
vn 0 1 0

# texcoords
vt 0.310547 0.5
vt 0.333984 0.5
vt 0.365234 0.5

# verts
v -0.7 0 0.4
v -0.7 0 -0.2
v -0.7 0.1 0.4
v -0.7 0.1 -0.2
v -0.7 0.3 0.4
v -0.7 0.3 0.1
v -0.7 0.5 0.1
v -0.7 0.5 -0.2
v 0.3 0 0.4
v 0.3 0 -0.2
v 0.3 0.1 0.4
v 0.3 0.1 -0.2
v 0.3 0.3 0.4
v 0.3 0.3 0.1
v 0.3 0.5 0.1
v 0.3 0.5 -0.2
v -0.3 0 0.4
v -0.3 0 -0.2
v -0.3 0.1 0.4
v -0.3 0.1 -0.2
v -0.3 0.3 0.4
v -0.3 0.3 0.1
v -0.3 0.5 0.1
v -0.3 0.5 -0.2
v 0.7 0 0.4
v 0.7 0 -0.2
v 0.7 0.1 0.4
v 0.7 0.1 -0.2
v 0.7 0.3 0.4
v 0.7 0.3 0.1
v 0.7 0.5 0.1
v 0.7 0.5 -0.2
v -0.7 0 0.4
v -0.7 0.1 0.4
v -0.7 0.3 0.4
v -0.3 0 0.4
v -0.3 0.1 0.4
v -0.3 0.3 0.4
v 0.3 0 0.4
v 0.3 0.1 0.4
v 0.3 0.3 0.4
v 0.7 0 0.4
v 0.7 0.1 0.4
v 0.7 0.3 0.4
v -0.7 0.3 0.1
v -0.7 0.5 0.1
v -0.6 0.3 0.1
v -0.6 0.5 0.1
v -0.4 0.3 0.1
v -0.4 0.5 0.1
v -0.3 0.3 0.1
v -0.3 0.5 0.1
v 0.3 0.3 0.1
v 0.3 0.5 0.1
v 0.4 0.3 0.1
v 0.4 0.5 0.1
v 0.6 0.3 0.1
v 0.6 0.5 0.1
v 0.7 0.3 0.1
v 0.7 0.5 0.1
v -0.7 0 -0.2
v -0.7 0.1 -0.2
v -0.7 0.5 -0.2
v -0.3 0 -0.2
v -0.3 0.1 -0.2
v -0.3 0.5 -0.2
v 0.3 0 -0.2
v 0.3 0.1 -0.2
v 0.3 0.5 -0.2
v 0.7 0 -0.2
v 0.7 0.1 -0.2
v 0.7 0.5 -0.2
v -0.7 0 0.4
v -0.3 0 0.4
v 0.3 0 0.4
v 0.7 0 0.4
v -0.7 0 -0.2
v -0.3 0 -0.2
v 0.3 0 -0.2
v 0.7 0 -0.2
v -0.7 0.3 0.4
v -0.3 0.3 0.4
v 0.3 0.3 0.4
v 0.7 0.3 0.4
v -0.6 0.3 0.2
v -0.4 0.3 0.2
v 0.4 0.3 0.2
v 0.6 0.3 0.2
v -0.7 0.3 0.1
v -0.6 0.3 0.1
v -0.4 0.3 0.1
v -0.3 0.3 0.1
v 0.3 0.3 0.1
v 0.4 0.3 0.1
v 0.6 0.3 0.1
v 0.7 0.3 0.1
v -0.7 0.5 0.1
v -0.6 0.5 0.1
v -0.4 0.5 0.1
v -0.3 0.5 0.1
v 0.3 0.5 0.1
v 0.4 0.5 0.1
v 0.6 0.5 0.1
v 0.7 0.5 0.1
v -0.6 0.5 -0.1
v -0.4 0.5 -0.1
v 0.4 0.5 -0.1
v 0.6 0.5 -0.1
v -0.7 0.5 -0.2
v -0.3 0.5 -0.2
v 0.3 0.5 -0.2
v 0.7 0.5 -0.2

# faces
f 3/2/1 2/2/1 1/2/1
f 4/2/1 2/2/1 3/2/1
f 5/3/1 4/3/1 3/3/1
f 6/3/1 4/3/1 5/3/1
f 7/3/1 4/3/1 6/3/1
f 8/3/1 4/3/1 7/3/1
f 11/2/1 10/2/1 9/2/1
f 12/2/1 10/2/1 11/2/1
f 13/3/1 12/3/1 11/3/1
f 14/3/1 12/3/1 13/3/1
f 15/3/1 12/3/1 14/3/1
f 16/3/1 12/3/1 15/3/1
f 17/2/2 18/2/2 19/2/2
f 19/2/2 18/2/2 20/2/2
f 19/3/2 20/3/2 21/3/2
f 21/3/2 20/3/2 22/3/2
f 22/3/2 20/3/2 23/3/2
f 23/3/2 20/3/2 24/3/2
f 25/2/2 26/2/2 27/2/2
f 27/2/2 26/2/2 28/2/2
f 27/3/2 28/3/2 29/3/2
f 29/3/2 28/3/2 30/3/2
f 30/3/2 28/3/2 31/3/2
f 31/3/2 28/3/2 32/3/2
f 36/2/3 34/2/3 33/2/3
f 37/3/3 35/3/3 34/3/3
f 37/2/3 34/2/3 36/2/3
f 38/3/3 35/3/3 37/3/3
f 42/2/3 40/2/3 39/2/3
f 43/3/3 41/3/3 40/3/3
f 43/2/3 40/2/3 42/2/3
f 44/3/3 41/3/3 43/3/3
f 47/3/3 46/3/3 45/3/3
f 48/3/3 46/3/3 47/3/3
f 49/1/3 48/1/3 47/1/3
f 50/1/3 48/1/3 49/1/3
f 51/3/3 50/3/3 49/3/3
f 52/3/3 50/3/3 51/3/3
f 55/3/3 54/3/3 53/3/3
f 56/3/3 54/3/3 55/3/3
f 57/1/3 56/1/3 55/1/3
f 58/1/3 56/1/3 57/1/3
f 59/3/3 58/3/3 57/3/3
f 60/3/3 58/3/3 59/3/3
f 61/2/4 62/2/4 64/2/4
f 62/3/4 63/3/4 65/3/4
f 64/2/4 62/2/4 65/2/4
f 65/3/4 63/3/4 66/3/4
f 67/2/4 68/2/4 70/2/4
f 68/3/4 69/3/4 71/3/4
f 70/2/4 68/2/4 71/2/4
f 71/3/4 69/3/4 72/3/4
f 77/2/5 74/2/5 73/2/5
f 78/2/5 74/2/5 77/2/5
f 79/2/5 76/2/5 75/2/5
f 80/2/5 76/2/5 79/2/5
f 81/3/6 82/3/6 85/3/6
f 85/3/6 82/3/6 86/3/6
f 83/3/6 84/3/6 87/3/6
f 87/3/6 84/3/6 88/3/6
f 81/3/6 85/3/6 89/3/6
f 85/1/6 86/1/6 90/1/6
f 89/3/6 85/3/6 90/3/6
f 86/3/6 82/3/6 91/3/6
f 90/1/6 86/1/6 91/1/6
f 91/3/6 82/3/6 92/3/6
f 83/3/6 87/3/6 93/3/6
f 87/1/6 88/1/6 94/1/6
f 93/3/6 87/3/6 94/3/6
f 88/3/6 84/3/6 95/3/6
f 94/1/6 88/1/6 95/1/6
f 95/3/6 84/3/6 96/3/6
f 97/3/6 98/3/6 105/3/6
f 98/1/6 99/1/6 105/1/6
f 99/3/6 100/3/6 106/3/6
f 105/1/6 99/1/6 106/1/6
f 102/1/6 103/1/6 107/1/6
f 101/3/6 102/3/6 107/3/6
f 103/3/6 104/3/6 108/3/6
f 107/1/6 103/1/6 108/1/6
f 97/3/6 105/3/6 109/3/6
f 105/3/6 106/3/6 109/3/6
f 106/3/6 100/3/6 110/3/6
f 109/3/6 106/3/6 110/3/6
f 101/3/6 107/3/6 111/3/6
f 107/3/6 108/3/6 111/3/6
f 108/3/6 104/3/6 112/3/6
f 111/3/6 108/3/6 112/3/6
