# MagicaVoxel @ Ephtracy

# group
o 

# material
mtllib sword.mtl
usemtl palette

# normals
vn -1 0 0
vn 1 0 0
vn 0 0 1
vn 0 0 -1
vn 0 -1 0
vn 0 1 0

# texcoords
vt 0.279297 0.5
vt 0.970703 0.5
vt 0.974609 0.5
vt 0.978516 0.5

# verts
v 0.8 1.5 -0.3
v 0.8 1.5 -0.4
v 0.8 1.6 1.2
v 0.8 1.6 -0.3
v 0.8 1.6 -0.4
v 0.8 1.6 -1.1
v 0.8 1.6 -1.2
v 0.8 1.7 1.3
v 0.8 1.7 1.2
v 0.8 1.7 1.1
v 0.8 1.7 -0.3
v 0.8 1.8 1.3
v 0.8 1.8 1.1
v 0.8 1.8 -0.3
v 0.8 1.8 -0.4
v 0.8 1.8 -1.1
v 0.8 1.8 -1.2
v 0.8 1.9 -0.3
v 0.8 1.9 -0.4
v 0.9 1.5 -0.3
v 0.9 1.5 -0.4
v 0.9 1.6 1.2
v 0.9 1.6 -0.3
v 0.9 1.6 -0.4
v 0.9 1.6 -1.1
v 0.9 1.6 -1.2
v 0.9 1.7 1.3
v 0.9 1.7 1.2
v 0.9 1.7 1.1
v 0.9 1.7 -0.3
v 0.9 1.8 1.3
v 0.9 1.8 1.1
v 0.9 1.8 -0.3
v 0.9 1.8 -0.4
v 0.9 1.8 -1.1
v 0.9 1.8 -1.2
v 0.9 1.9 -0.3
v 0.9 1.9 -0.4
v 0.8 1.7 1.3
v 0.8 1.8 1.3
v 0.9 1.7 1.3
v 0.9 1.8 1.3
v 0.8 1.6 1.2
v 0.8 1.7 1.2
v 0.9 1.6 1.2
v 0.9 1.7 1.2
v 0.8 1.5 -0.3
v 0.8 1.6 -0.3
v 0.8 1.8 -0.3
v 0.8 1.9 -0.3
v 0.9 1.5 -0.3
v 0.9 1.6 -0.3
v 0.9 1.8 -0.3
v 0.9 1.9 -0.3
v 0.8 1.5 -0.4
v 0.8 1.6 -0.4
v 0.8 1.8 -0.4
v 0.8 1.9 -0.4
v 0.9 1.5 -0.4
v 0.9 1.6 -0.4
v 0.9 1.8 -0.4
v 0.9 1.9 -0.4
v 0.8 1.6 -1.2
v 0.8 1.8 -1.2
v 0.9 1.6 -1.2
v 0.9 1.8 -1.2
v 0.8 1.5 -0.3
v 0.9 1.5 -0.3
v 0.8 1.5 -0.4
v 0.9 1.5 -0.4
v 0.8 1.6 1.2
v 0.9 1.6 1.2
v 0.8 1.6 -0.3
v 0.9 1.6 -0.3
v 0.8 1.6 -0.4
v 0.9 1.6 -0.4
v 0.8 1.6 -1.1
v 0.9 1.6 -1.1
v 0.8 1.6 -1.2
v 0.9 1.6 -1.2
v 0.8 1.7 1.3
v 0.9 1.7 1.3
v 0.8 1.7 1.2
v 0.9 1.7 1.2
v 0.8 1.8 1.3
v 0.9 1.8 1.3
v 0.8 1.8 1.1
v 0.9 1.8 1.1
v 0.8 1.8 -0.3
v 0.9 1.8 -0.3
v 0.8 1.8 -0.4
v 0.9 1.8 -0.4
v 0.8 1.8 -1.1
v 0.9 1.8 -1.1
v 0.8 1.8 -1.2
v 0.9 1.8 -1.2
v 0.8 1.9 -0.3
v 0.9 1.9 -0.3
v 0.8 1.9 -0.4
v 0.9 1.9 -0.4

# faces
f 4/4/1 2/4/1 1/4/1
f 5/4/1 2/4/1 4/4/1
f 9/2/1 4/2/1 3/2/1
f 10/2/1 4/2/1 9/2/1
f 11/4/1 5/4/1 4/4/1
f 11/2/1 4/2/1 10/2/1
f 12/2/1 10/2/1 9/2/1
f 12/2/1 9/2/1 8/2/1
f 13/3/1 11/3/1 10/3/1
f 13/2/1 10/2/1 12/2/1
f 14/4/1 5/4/1 11/4/1
f 14/3/1 11/3/1 13/3/1
f 15/1/1 6/1/1 5/1/1
f 15/4/1 5/4/1 14/4/1
f 16/4/1 7/4/1 6/4/1
f 16/1/1 6/1/1 15/1/1
f 17/4/1 7/4/1 16/4/1
f 18/4/1 15/4/1 14/4/1
f 19/4/1 15/4/1 18/4/1
f 20/4/2 21/4/2 23/4/2
f 23/4/2 21/4/2 24/4/2
f 22/2/2 23/2/2 28/2/2
f 28/2/2 23/2/2 29/2/2
f 23/4/2 24/4/2 30/4/2
f 29/2/2 23/2/2 30/2/2
f 28/2/2 29/2/2 31/2/2
f 27/2/2 28/2/2 31/2/2
f 29/3/2 30/3/2 32/3/2
f 31/2/2 29/2/2 32/2/2
f 30/4/2 24/4/2 33/4/2
f 32/3/2 30/3/2 33/3/2
f 24/1/2 25/1/2 34/1/2
f 33/4/2 24/4/2 34/4/2
f 25/4/2 26/4/2 35/4/2
f 34/1/2 25/1/2 35/1/2
f 35/4/2 26/4/2 36/4/2
f 33/4/2 34/4/2 37/4/2
f 37/4/2 34/4/2 38/4/2
f 41/2/3 40/2/3 39/2/3
f 42/2/3 40/2/3 41/2/3
f 45/2/3 44/2/3 43/2/3
f 46/2/3 44/2/3 45/2/3
f 51/4/3 48/4/3 47/4/3
f 52/4/3 48/4/3 51/4/3
f 53/4/3 50/4/3 49/4/3
f 54/4/3 50/4/3 53/4/3
f 55/4/4 56/4/4 59/4/4
f 59/4/4 56/4/4 60/4/4
f 57/4/4 58/4/4 61/4/4
f 61/4/4 58/4/4 62/4/4
f 63/4/4 64/4/4 65/4/4
f 65/4/4 64/4/4 66/4/4
f 69/4/5 68/4/5 67/4/5
f 70/4/5 68/4/5 69/4/5
f 73/2/5 72/2/5 71/2/5
f 74/2/5 72/2/5 73/2/5
f 77/1/5 76/1/5 75/1/5
f 78/1/5 76/1/5 77/1/5
f 79/4/5 78/4/5 77/4/5
f 80/4/5 78/4/5 79/4/5
f 83/2/5 82/2/5 81/2/5
f 84/2/5 82/2/5 83/2/5
f 85/2/6 86/2/6 87/2/6
f 87/2/6 86/2/6 88/2/6
f 87/3/6 88/3/6 89/3/6
f 89/3/6 88/3/6 90/3/6
f 91/1/6 92/1/6 93/1/6
f 93/1/6 92/1/6 94/1/6
f 93/4/6 94/4/6 95/4/6
f 95/4/6 94/4/6 96/4/6
f 97/4/6 98/4/6 99/4/6
f 99/4/6 98/4/6 100/4/6
